M48
; DRILL file {KiCad 9.0.8} date 2026-04-05T10:53:16+0900
; FORMAT={-:-/ absolute / metric / decimal}
; #@! TF.CreationDate,2026-04-05T10:53:16+09:00
; #@! TF.GenerationSoftware,Kicad,Pcbnew,9.0.8
; #@! TF.FileFunction,Plated,1,2,PTH
FMAT,2
METRIC
; #@! TA.AperFunction,Plated,PTH,ViaDrill
T1C0.300
; #@! TA.AperFunction,Plated,PTH,ComponentDrill
T2C0.500
; #@! TA.AperFunction,Plated,PTH,ComponentDrill
T3C0.730
; #@! TA.AperFunction,Plated,PTH,ComponentDrill
T4C0.800
; #@! TA.AperFunction,Plated,PTH,ComponentDrill
T5C1.000
; #@! TA.AperFunction,Plated,PTH,ComponentDrill
T6C1.020
; #@! TA.AperFunction,Plated,PTH,ComponentDrill
T7C1.150
; #@! TA.AperFunction,Plated,PTH,ComponentDrill
T8C2.000
%
G90
G05
T1
X23.734Y-110.044
X24.2Y-54.8
X24.4Y-55.6
X24.4Y-109.6
X29.2Y-120.5
X29.4Y-113.3
X32.4Y-108.8
X39.2Y-73.4
X39.2Y-90.0
X39.4Y-60.8
X39.7Y-120.6
X39.8Y-113.5
X41.6Y-96.4
X45.2Y-107.2
X46.4Y-75.8
X46.4Y-92.4
X46.6Y-59.2
X51.2Y-59.2
X51.2Y-75.8
X51.2Y-92.4
X53.0Y-78.2
X53.1Y-113.4
X53.1Y-120.6
X53.6Y-60.8
X53.6Y-106.6
X53.6Y-109.601
X54.4Y-106.0
X54.4Y-110.2
X54.6Y-92.8
X55.8Y-57.0
X55.8Y-73.4
X55.8Y-77.0
X55.8Y-104.0
X56.0Y-85.8
X56.0Y-95.0
X56.4Y-53.4
X56.4Y-55.799
X58.4Y-90.8
X60.8Y-92.8
X61.8Y-108.4
X63.2Y-71.6
X63.2Y-88.2
X63.4Y-55.0
X67.4Y-71.6
X67.4Y-106.6
X67.4Y-120.8
X67.6Y-88.2
X67.8Y-55.0
X69.0Y-90.6
X71.0Y-104.6
X72.4Y-71.6
X72.4Y-85.8
X72.4Y-90.0
X72.4Y-102.4
X72.6Y-57.0
X74.2Y-106.0
X74.2Y-120.8
X75.0Y-87.8
X76.0Y-88.8
X76.4Y-116.6
X79.6Y-69.2
X79.8Y-52.6
X79.8Y-85.8
X80.8Y-108.4
X81.4Y-106.6
X81.4Y-109.0
X84.2Y-85.8
X84.4Y-52.6
X84.4Y-69.2
X89.0Y-102.4
X89.05Y-73.6
X89.2Y-57.6
X91.6Y-53.4
X96.4Y-55.0
X96.4Y-71.6
X96.4Y-88.2
X97.4Y-114.2
X97.4Y-121.6
X97.8Y-107.4
X101.0Y-55.0
X101.0Y-71.6
X101.0Y-88.2
X101.8Y-114.2
X105.0Y-102.8
X105.4Y-74.4
X105.6Y-57.6
X105.8Y-106.2
X106.25Y-76.8
X108.2Y-54.0
X111.8Y-110.4
X112.8Y-57.6
X112.8Y-74.2
X113.0Y-90.8
X114.6Y-110.4
X117.0Y-121.6
X117.4Y-57.6
X117.4Y-90.8
X117.6Y-74.2
X120.2Y-93.4
X120.8Y-89.8
X121.0Y-106.6
X121.6Y-76.8
X122.2Y-54.0
X122.2Y-74.6
X122.4Y-89.0
X122.4Y-91.8
X122.4Y-104.6
X123.2Y-53.4
X123.4Y-60.6
X123.4Y-76.6
X123.4Y-93.8
X123.6Y-91.8
X124.15Y-63.2
X125.8Y-106.6
X126.2Y-72.6
X126.2Y-79.8
X126.2Y-82.4
X126.2Y-94.8
X127.4Y-93.6
X127.6Y-105.6
X128.4Y-65.6
X128.4Y-77.4
X128.8Y-55.2
X128.8Y-82.4
X128.9Y-79.7
X128.995Y-68.0
X129.2Y-111.0
X129.397Y-55.8
X129.4Y-89.8
X131.2Y-110.4
X131.6Y-77.6
X131.6Y-79.6
X131.6Y-82.2
X132.2Y-89.4
X132.8Y-107.2
X134.0Y-79.2
X137.2Y-58.8
X137.884Y-55.8
X138.0Y-65.4
X138.6Y-55.2
X138.6Y-68.0
X139.6Y-63.0
X139.6Y-78.2
X141.8Y-76.6
X152.37Y-73.57
X152.8Y-65.6
X157.2Y-59.0
X157.8Y-55.4
X158.6Y-70.8
X158.6Y-108.0
X159.6Y-64.2
X159.6Y-100.4
X160.2Y-88.2
X161.0Y-70.0
X161.0Y-79.6
X161.0Y-81.6
X162.0Y-68.2
X162.2Y-99.8
X163.0Y-87.8
X163.6Y-79.6
X163.6Y-81.6
X164.0Y-58.0
X165.0Y-106.0
X165.8Y-88.6
X166.4Y-73.6
X166.4Y-79.8
X166.4Y-81.0
X167.6Y-101.2
X169.0Y-58.0
X169.2Y-104.0
X169.8Y-88.6
X169.8Y-104.6
X170.4Y-66.6
X170.4Y-84.0
X170.4Y-87.8
X171.0Y-63.0
X171.6Y-58.0
X171.6Y-103.399
X173.2Y-107.6
X175.0Y-69.4
X175.0Y-86.0
X175.0Y-102.6
X178.6Y-104.6
X179.6Y-69.4
X179.6Y-86.0
X179.6Y-102.6
X179.6Y-107.6
X182.2Y-107.6
X182.2Y-111.2
X182.4Y-112.6
X182.6Y-106.0
X182.8Y-98.2
X183.6Y-101.0
X184.8Y-106.0
X186.0Y-63.4
X187.0Y-64.4
X187.0Y-81.2
X187.0Y-87.8
X187.0Y-97.4
X188.0Y-63.6
X188.0Y-67.4
X189.8Y-96.8
X190.4Y-109.4
X191.6Y-83.6
X191.6Y-100.2
X191.8Y-67.0
X192.6Y-96.8
X192.6Y-99.2
X193.0Y-103.399
X195.2Y-104.4
X196.2Y-100.2
X196.4Y-67.0
X196.4Y-83.6
X196.4Y-104.2
X196.4Y-105.0
X198.8Y-108.6
X199.2Y-98.2
X203.2Y-79.2
X203.4Y-97.6
X203.6Y-62.8
X203.6Y-94.2
X205.4Y-103.2
X207.0Y-107.0
X208.2Y-97.6
X208.4Y-64.4
X208.4Y-80.8
X210.4Y-99.2
X210.4Y-116.6
X212.6Y-66.8
X212.8Y-80.8
X212.8Y-97.6
X213.0Y-64.4
X214.8Y-66.8
X217.2Y-104.2
X217.6Y-101.4
X220.0Y-64.8
X220.0Y-95.2
X220.2Y-68.2
X224.4Y-107.6
X224.8Y-66.8
X224.8Y-83.4
X224.8Y-100.0
X229.2Y-66.8
X229.2Y-83.4
X229.4Y-100.0
X234.0Y-102.0
X236.8Y-64.8
X236.8Y-69.2
X236.8Y-80.8
X239.0Y-56.6
X239.0Y-89.4
X239.5Y-110.1
X239.6Y-73.2
X239.7Y-120.0
X247.0Y-69.4
X249.4Y-120.2
X249.7Y-109.9
X253.2Y-73.2
X253.2Y-90.4
X253.4Y-56.6
X256.6Y-61.0
X256.6Y-67.2
X258.4Y-60.8
X259.6Y-110.0
X259.7Y-120.2
T3
X136.7Y-98.0
X138.2Y-98.0
X139.7Y-98.0
X141.2Y-98.0
X151.3Y-98.0
X152.8Y-98.0
X154.3Y-98.0
X155.8Y-98.0
T5
X72.3Y-114.2
X72.3Y-116.7
X72.3Y-119.2
X136.81Y-80.59
X136.81Y-88.21
X139.35Y-80.59
X139.35Y-88.21
X141.85Y-80.59
X141.89Y-88.21
X150.71Y-80.59
X150.71Y-88.21
X153.25Y-80.59
X153.25Y-88.21
X155.75Y-80.59
X155.79Y-88.21
X220.3Y-114.1
X220.3Y-116.6
X220.3Y-119.1
T6
X25.9Y-39.8
X70.7Y-39.8
X77.9Y-39.8
X122.7Y-39.8
X169.8Y-39.8
X214.6Y-39.8
X221.8Y-39.8
X266.6Y-39.8
T7
X128.7Y-40.0
X133.3Y-40.0
X137.9Y-40.0
X142.5Y-40.0
X150.5Y-39.8
X155.1Y-39.8
X159.7Y-39.8
X164.3Y-39.8
T2
G00X128.55Y-35.35
M15
G01X128.85Y-35.35
M16
G05
G00X131.05Y-35.35
M15
G01X131.35Y-35.35
M16
G05
G00X133.55Y-35.35
M15
G01X133.85Y-35.35
M16
G05
G00X158.55Y-35.4
M15
G01X158.85Y-35.4
M16
G05
G00X161.05Y-35.4
M15
G01X161.35Y-35.4
M16
G05
G00X163.55Y-35.4
M15
G01X163.85Y-35.4
M16
G05
T4
G00X130.345Y-60.781
M15
G01X129.145Y-60.781
M16
G05
G00X130.345Y-62.686
M15
G01X129.145Y-62.686
M16
G05
G00X154.545Y-60.781
M15
G01X153.345Y-60.781
M16
G05
G00X154.545Y-62.686
M15
G01X153.345Y-62.686
M16
G05
T8
G00X65.2Y-111.1
M15
G01X64.4Y-111.1
M16
G05
G00X65.2Y-122.3
M15
G01X64.4Y-122.3
M16
G05
G00X227.4Y-111.0
M15
G01X228.2Y-111.0
M16
G05
G00X227.4Y-122.2
M15
G01X228.2Y-122.2
M16
G05
M30
