M48
; DRILL file {KiCad 9.0.8} date 2026-04-05T10:53:16+0900
; FORMAT={-:-/ absolute / metric / decimal}
; #@! TF.CreationDate,2026-04-05T10:53:16+09:00
; #@! TF.GenerationSoftware,Kicad,Pcbnew,9.0.8
; #@! TF.FileFunction,NonPlated,1,2,NPTH
FMAT,2
METRIC
; #@! TA.AperFunction,NonPlated,NPTH,ComponentDrill
T1C0.500
; #@! TA.AperFunction,NonPlated,NPTH,ComponentDrill
T2C1.000
; #@! TA.AperFunction,NonPlated,NPTH,ComponentDrill
T3C2.200
; #@! TA.AperFunction,NonPlated,NPTH,ComponentDrill
T4C3.000
; #@! TA.AperFunction,NonPlated,NPTH,ComponentDrill
T5C4.800
%
G90
G05
T1
X41.45Y-47.6
X41.45Y-50.0
X42.2Y-47.6
X42.2Y-50.0
X42.95Y-47.6
X42.95Y-50.0
X43.7Y-47.6
X43.7Y-50.0
X44.45Y-47.6
X44.45Y-50.0
X45.2Y-47.6
X45.2Y-50.0
X111.65Y-47.6
X111.65Y-50.0
X112.4Y-47.6
X112.4Y-50.0
X113.15Y-47.6
X113.15Y-50.0
X113.9Y-47.6
X113.9Y-50.0
X114.65Y-47.6
X114.65Y-50.0
X115.4Y-47.6
X115.4Y-50.0
X145.1Y-74.7
X145.1Y-75.45
X145.1Y-76.2
X145.1Y-76.95
X145.1Y-77.7
X145.1Y-78.45
X145.1Y-103.9
X145.1Y-104.65
X145.1Y-105.4
X145.1Y-106.15
X145.1Y-106.9
X145.1Y-107.65
X147.5Y-74.7
X147.5Y-75.45
X147.5Y-76.2
X147.5Y-76.95
X147.5Y-77.7
X147.5Y-78.45
X147.5Y-103.9
X147.5Y-104.65
X147.5Y-105.4
X147.5Y-106.15
X147.5Y-106.9
X147.5Y-107.65
X177.45Y-47.6
X177.45Y-50.0
X178.2Y-47.6
X178.2Y-50.0
X178.95Y-47.6
X178.95Y-50.0
X179.7Y-47.6
X179.7Y-50.0
X180.45Y-47.6
X180.45Y-50.0
X181.2Y-47.6
X181.2Y-50.0
X255.95Y-47.6
X255.95Y-50.0
X256.7Y-47.6
X256.7Y-50.0
X257.45Y-47.6
X257.45Y-50.0
X258.2Y-47.6
X258.2Y-50.0
X258.95Y-47.6
X258.95Y-50.0
X259.7Y-47.6
X259.7Y-50.0
T2
X26.0Y-72.36
X26.0Y-88.96
X26.0Y-105.56
X52.6Y-59.6
X52.6Y-76.2
X52.6Y-92.8
X69.2Y-55.45
X69.2Y-72.05
X69.2Y-88.65
X85.8Y-52.96
X85.8Y-69.56
X85.8Y-86.16
X94.1Y-105.25
X102.4Y-55.45
X102.4Y-72.05
X102.4Y-88.65
X110.7Y-107.74
X119.0Y-57.94
X119.0Y-74.54
X119.0Y-91.14
X137.705Y-115.134
X160.445Y-124.746
X173.6Y-69.04
X173.6Y-85.64
X173.6Y-102.24
X190.2Y-66.55
X190.2Y-83.15
X190.2Y-99.75
X191.9Y-107.74
X206.8Y-64.06
X206.8Y-80.66
X206.8Y-97.26
X208.5Y-105.25
X223.4Y-66.55
X223.4Y-83.15
X223.4Y-99.75
X240.0Y-70.7
X240.0Y-87.3
X240.0Y-103.9
X266.6Y-61.26
X266.6Y-77.86
X266.6Y-94.46
T3
X142.4Y-34.8
X150.2Y-34.8
T4
X31.0Y-60.91
X31.0Y-77.51
X31.0Y-94.11
X36.0Y-63.11
X36.0Y-79.71
X36.0Y-96.31
X42.6Y-68.85
X42.6Y-85.45
X42.6Y-102.05
X47.6Y-71.05
X47.6Y-87.65
X47.6Y-104.25
X59.2Y-64.7
X59.2Y-81.3
X59.2Y-97.9
X64.2Y-66.9
X64.2Y-83.5
X64.2Y-100.1
X75.8Y-62.21
X75.8Y-78.81
X75.8Y-95.41
X80.8Y-64.41
X80.8Y-81.01
X80.8Y-97.61
X84.1Y-114.5
X89.1Y-116.7
X92.4Y-64.7
X92.4Y-81.3
X92.4Y-97.9
X97.4Y-66.9
X97.4Y-83.5
X97.4Y-100.1
X100.7Y-116.99
X105.7Y-119.19
X109.0Y-67.19
X109.0Y-83.79
X109.0Y-100.39
X114.0Y-69.39
X114.0Y-85.99
X114.0Y-102.59
X124.42Y-118.144
X127.65Y-122.55
X159.05Y-112.33
X164.48Y-111.736
X178.6Y-57.59
X178.6Y-74.19
X178.6Y-90.79
X181.9Y-116.99
X183.6Y-59.79
X183.6Y-76.39
X183.6Y-92.99
X186.9Y-119.19
X195.2Y-55.1
X195.2Y-71.7
X195.2Y-88.3
X198.5Y-114.5
X200.2Y-57.3
X200.2Y-73.9
X200.2Y-90.5
X203.5Y-116.7
X211.8Y-52.61
X211.8Y-69.21
X211.8Y-85.81
X216.8Y-54.81
X216.8Y-71.41
X216.8Y-88.01
X228.4Y-55.1
X228.4Y-71.7
X228.4Y-88.3
X233.4Y-57.3
X233.4Y-73.9
X233.4Y-90.5
X245.0Y-59.25
X245.0Y-75.85
X245.0Y-92.45
X250.0Y-61.45
X250.0Y-78.05
X250.0Y-94.65
X256.6Y-70.51
X256.6Y-87.11
X256.6Y-103.71
X261.6Y-72.71
X261.6Y-89.31
X261.6Y-105.91
T5
X31.0Y-66.81
X31.0Y-83.41
X31.0Y-100.01
X47.6Y-65.15
X47.6Y-81.75
X47.6Y-98.35
X64.2Y-61.0
X64.2Y-77.6
X64.2Y-94.2
X80.8Y-58.51
X80.8Y-75.11
X80.8Y-91.71
X89.1Y-110.8
X97.4Y-61.0
X97.4Y-77.6
X97.4Y-94.2
X105.7Y-113.29
X114.0Y-63.49
X114.0Y-80.09
X114.0Y-96.69
X130.6Y-117.44
X162.0Y-117.44
X178.6Y-63.49
X178.6Y-80.09
X178.6Y-96.69
X186.9Y-113.29
X195.2Y-61.0
X195.2Y-77.6
X195.2Y-94.2
X203.5Y-110.8
X211.8Y-58.51
X211.8Y-75.11
X211.8Y-91.71
X228.4Y-61.0
X228.4Y-77.6
X228.4Y-94.2
X245.0Y-65.15
X245.0Y-81.75
X245.0Y-98.35
X261.6Y-66.81
X261.6Y-83.41
X261.6Y-100.01
M30
