%TF.GenerationSoftware,KiCad,Pcbnew,9.0.8*%
%TF.CreationDate,2026-04-05T10:53:16+09:00*%
%TF.ProjectId,assemble-finish,61737365-6d62-46c6-952d-66696e697368,rev?*%
%TF.SameCoordinates,Original*%
%TF.FileFunction,Drillmap*%
%TF.FilePolarity,Positive*%
%FSLAX45Y45*%
G04 Gerber Fmt 4.5, Leading zero omitted, Abs format (unit mm)*
G04 Created by KiCad (PCBNEW 9.0.8) date 2026-04-05 10:53:16*
%MOMM*%
%LPD*%
G01*
G04 APERTURE LIST*
%ADD10C,0.050000*%
%ADD11C,0.200000*%
%ADD12C,0.100000*%
%ADD13C,0.220000*%
%ADD14C,0.300000*%
%ADD15C,0.480000*%
G04 APERTURE END LIST*
D10*
X14480000Y-10910000D02*
G75*
G02*
X14580000Y-10810000I100000J0D01*
G01*
X14680000Y-10810000D02*
G75*
G02*
X14780000Y-10910000I0J-100000D01*
G01*
X14680000Y-7890000D02*
G75*
G02*
X14780000Y-7990000I0J-100000D01*
G01*
X14780000Y-10250000D02*
G75*
G02*
X14680000Y-10350000I-100000J0D01*
G01*
X14480000Y-7990000D02*
G75*
G02*
X14580000Y-7890000I100000J0D01*
G01*
X14580000Y-10350000D02*
G75*
G02*
X14480000Y-10250000I0J100000D01*
G01*
X14780000Y-7330000D02*
G75*
G02*
X14680000Y-7430000I-100000J0D01*
G01*
X14580000Y-7430000D02*
G75*
G02*
X14480000Y-7330000I0J100000D01*
G01*
X26110000Y-5030000D02*
G75*
G02*
X26010000Y-4930000I0J100000D01*
G01*
X26010000Y-4830000D02*
G75*
G02*
X26110000Y-4730000I100000J0D01*
G01*
X17700000Y-4930000D02*
G75*
G02*
X17600000Y-5030000I-100000J0D01*
G01*
X17600000Y-4730000D02*
G75*
G02*
X17700000Y-4830000I0J-100000D01*
G01*
X25550000Y-4930000D02*
G75*
G02*
X25450000Y-5030000I-100000J0D01*
G01*
X18160000Y-4830000D02*
G75*
G02*
X18260000Y-4730000I100000J0D01*
G01*
X18260000Y-5030000D02*
G75*
G02*
X18160000Y-4930000I0J100000D01*
G01*
X11680000Y-5030000D02*
G75*
G02*
X11580000Y-4930000I0J100000D01*
G01*
X11580000Y-4830000D02*
G75*
G02*
X11680000Y-4730000I100000J0D01*
G01*
X4100000Y-4930000D02*
G75*
G02*
X4000000Y-5030000I-100000J0D01*
G01*
X4000000Y-4730000D02*
G75*
G02*
X4100000Y-4830000I0J-100000D01*
G01*
X11120000Y-4930000D02*
G75*
G02*
X11020000Y-5030000I-100000J0D01*
G01*
X4660000Y-5030000D02*
G75*
G02*
X4560000Y-4930000I0J100000D01*
G01*
X11020000Y-4730000D02*
G75*
G02*
X11120000Y-4830000I0J-100000D01*
G01*
X4560000Y-4830000D02*
G75*
G02*
X4660000Y-4730000I100000J0D01*
G01*
X14780000Y-10250000D02*
X14780000Y-7990000D01*
X14480000Y-10250000D02*
X14480000Y-7990000D01*
X14780000Y-7330000D02*
X14780000Y-5130000D01*
X14480000Y-7330000D02*
X14480000Y-5130000D01*
X25450000Y-5030000D02*
X18260000Y-5030000D01*
X26110000Y-4730000D02*
X26970000Y-4730000D01*
X18260000Y-4730000D02*
X25450000Y-4730000D01*
X17600000Y-5030000D02*
X14880000Y-5030000D01*
X11020000Y-5030000D02*
X4660000Y-5030000D01*
X11020000Y-4730000D02*
X4660000Y-4730000D01*
X4000000Y-4730000D02*
X2290000Y-4730000D01*
X4000000Y-5030000D02*
X2320000Y-5030000D01*
X14580000Y-7890000D02*
X14680000Y-7890000D01*
X14680000Y-7430000D02*
X14580000Y-7430000D01*
X14580000Y-10810000D02*
X14680000Y-10810000D01*
X14680000Y-10350000D02*
X14580000Y-10350000D01*
X25550000Y-4830000D02*
X25550000Y-4930000D01*
X26010000Y-4930000D02*
X26010000Y-4830000D01*
X17700000Y-4830000D02*
X17700000Y-4930000D01*
X18160000Y-4930000D02*
X18160000Y-4830000D01*
X11120000Y-4830000D02*
X11120000Y-4930000D01*
X11580000Y-4930000D02*
X11580000Y-4830000D01*
X4560000Y-4930000D02*
X4560000Y-4830000D01*
X4100000Y-4830000D02*
X4100000Y-4930000D01*
X14490000Y-4630000D02*
G75*
G02*
X14390000Y-4730000I-100000J0D01*
G01*
X26970000Y-3230000D02*
G75*
G02*
X27070000Y-3330000I0J-100000D01*
G01*
X14390000Y-3230000D02*
G75*
G02*
X14490000Y-3330000I0J-100000D01*
G01*
X11733300Y-12480000D02*
G75*
G02*
X11783147Y-12493309I0J-100000D01*
G01*
X14770000Y-3330000D02*
G75*
G02*
X14870000Y-3230000I100000J0D01*
G01*
X2290000Y-4730000D02*
G75*
G02*
X2190000Y-4630000I0J100000D01*
G01*
X2190000Y-3330000D02*
G75*
G02*
X2290000Y-3230000I100000J0D01*
G01*
X26940000Y-5030000D02*
G75*
G02*
X27040000Y-5130000I0J-100000D01*
G01*
X15967015Y-13350584D02*
G75*
G02*
X15830641Y-13312953I-49385J86954D01*
G01*
X27040000Y-12380000D02*
G75*
G02*
X26940000Y-12480000I-100000J0D01*
G01*
X17477031Y-12493044D02*
G75*
G02*
X17526414Y-12480002I49379J-86956D01*
G01*
X14380000Y-5030000D02*
G75*
G02*
X14480000Y-5130000I0J-100000D01*
G01*
X2220000Y-5130000D02*
G75*
G02*
X2320000Y-5030000I100000J0D01*
G01*
X2320000Y-12480000D02*
G75*
G02*
X2220000Y-12380000I0J100000D01*
G01*
X13409911Y-13313547D02*
G75*
G02*
X13273462Y-13350237I-86601J49997D01*
G01*
X14480000Y-11433206D02*
G75*
G02*
X14466605Y-11483205I-100000J-4D01*
G01*
X14780000Y-5130000D02*
G75*
G02*
X14880000Y-5030000I100000J0D01*
G01*
X14793011Y-11482946D02*
G75*
G02*
X14779999Y-11433622I86989J49326D01*
G01*
X27070000Y-4630000D02*
G75*
G02*
X26970000Y-4730000I-100000J0D01*
G01*
X14870000Y-4730000D02*
G75*
G02*
X14770000Y-4630000I0J100000D01*
G01*
X2190000Y-3330000D02*
X2190000Y-4630000D01*
X2290000Y-3230000D02*
X14390000Y-3230000D01*
X14490000Y-3330000D02*
X14490000Y-4630000D01*
X14390000Y-4730000D02*
X11680000Y-4730000D01*
X14870000Y-4730000D02*
X17600000Y-4730000D01*
X14770000Y-3330000D02*
X14770000Y-4630000D01*
X27070000Y-3330000D02*
X27070000Y-4630000D01*
X26970000Y-3230000D02*
X14870000Y-3230000D01*
X14780000Y-11433622D02*
X14780000Y-10910000D01*
X14793011Y-11482946D02*
X15830643Y-13312952D01*
X26940000Y-5030000D02*
X26110000Y-5030000D01*
X13409911Y-13313547D02*
X14466604Y-11483204D01*
X14480000Y-11433206D02*
X14480000Y-10910000D01*
X11783147Y-12493309D02*
X13273460Y-13350240D01*
X2220000Y-12380000D02*
X2220000Y-5130000D01*
X2320000Y-12480000D02*
X11733300Y-12480000D01*
X14380000Y-5030000D02*
X11680000Y-5030000D01*
X26940000Y-12480000D02*
X17526414Y-12480000D01*
X15967015Y-13350584D02*
X17477031Y-12493044D01*
X27040000Y-12380000D02*
X27040000Y-5130000D01*
X25450000Y-4730000D02*
G75*
G02*
X25550000Y-4830000I0J-100000D01*
G01*
D11*
D12*
X4120000Y-4735000D02*
X4170000Y-4785000D01*
X4170000Y-4735000D02*
X4120000Y-4785000D01*
X4120000Y-4975000D02*
X4170000Y-5025000D01*
X4170000Y-4975000D02*
X4120000Y-5025000D01*
X4195000Y-4735000D02*
X4245000Y-4785000D01*
X4245000Y-4735000D02*
X4195000Y-4785000D01*
X4195000Y-4975000D02*
X4245000Y-5025000D01*
X4245000Y-4975000D02*
X4195000Y-5025000D01*
X4270000Y-4735000D02*
X4320000Y-4785000D01*
X4320000Y-4735000D02*
X4270000Y-4785000D01*
X4270000Y-4975000D02*
X4320000Y-5025000D01*
X4320000Y-4975000D02*
X4270000Y-5025000D01*
X4345000Y-4735000D02*
X4395000Y-4785000D01*
X4395000Y-4735000D02*
X4345000Y-4785000D01*
X4345000Y-4975000D02*
X4395000Y-5025000D01*
X4395000Y-4975000D02*
X4345000Y-5025000D01*
X4420000Y-4735000D02*
X4470000Y-4785000D01*
X4470000Y-4735000D02*
X4420000Y-4785000D01*
X4420000Y-4975000D02*
X4470000Y-5025000D01*
X4470000Y-4975000D02*
X4420000Y-5025000D01*
X4495000Y-4735000D02*
X4545000Y-4785000D01*
X4545000Y-4735000D02*
X4495000Y-4785000D01*
X4495000Y-4975000D02*
X4545000Y-5025000D01*
X4545000Y-4975000D02*
X4495000Y-5025000D01*
X11140000Y-4735000D02*
X11190000Y-4785000D01*
X11190000Y-4735000D02*
X11140000Y-4785000D01*
X11140000Y-4975000D02*
X11190000Y-5025000D01*
X11190000Y-4975000D02*
X11140000Y-5025000D01*
X11215000Y-4735000D02*
X11265000Y-4785000D01*
X11265000Y-4735000D02*
X11215000Y-4785000D01*
X11215000Y-4975000D02*
X11265000Y-5025000D01*
X11265000Y-4975000D02*
X11215000Y-5025000D01*
X11290000Y-4735000D02*
X11340000Y-4785000D01*
X11340000Y-4735000D02*
X11290000Y-4785000D01*
X11290000Y-4975000D02*
X11340000Y-5025000D01*
X11340000Y-4975000D02*
X11290000Y-5025000D01*
X11365000Y-4735000D02*
X11415000Y-4785000D01*
X11415000Y-4735000D02*
X11365000Y-4785000D01*
X11365000Y-4975000D02*
X11415000Y-5025000D01*
X11415000Y-4975000D02*
X11365000Y-5025000D01*
X11440000Y-4735000D02*
X11490000Y-4785000D01*
X11490000Y-4735000D02*
X11440000Y-4785000D01*
X11440000Y-4975000D02*
X11490000Y-5025000D01*
X11490000Y-4975000D02*
X11440000Y-5025000D01*
X11515000Y-4735000D02*
X11565000Y-4785000D01*
X11565000Y-4735000D02*
X11515000Y-4785000D01*
X11515000Y-4975000D02*
X11565000Y-5025000D01*
X11565000Y-4975000D02*
X11515000Y-5025000D01*
X14485000Y-7445000D02*
X14535000Y-7495000D01*
X14535000Y-7445000D02*
X14485000Y-7495000D01*
X14485000Y-7520000D02*
X14535000Y-7570000D01*
X14535000Y-7520000D02*
X14485000Y-7570000D01*
X14485000Y-7595000D02*
X14535000Y-7645000D01*
X14535000Y-7595000D02*
X14485000Y-7645000D01*
X14485000Y-7670000D02*
X14535000Y-7720000D01*
X14535000Y-7670000D02*
X14485000Y-7720000D01*
X14485000Y-7745000D02*
X14535000Y-7795000D01*
X14535000Y-7745000D02*
X14485000Y-7795000D01*
X14485000Y-7820000D02*
X14535000Y-7870000D01*
X14535000Y-7820000D02*
X14485000Y-7870000D01*
X14485000Y-10365000D02*
X14535000Y-10415000D01*
X14535000Y-10365000D02*
X14485000Y-10415000D01*
X14485000Y-10440000D02*
X14535000Y-10490000D01*
X14535000Y-10440000D02*
X14485000Y-10490000D01*
X14485000Y-10515000D02*
X14535000Y-10565000D01*
X14535000Y-10515000D02*
X14485000Y-10565000D01*
X14485000Y-10590000D02*
X14535000Y-10640000D01*
X14535000Y-10590000D02*
X14485000Y-10640000D01*
X14485000Y-10665000D02*
X14535000Y-10715000D01*
X14535000Y-10665000D02*
X14485000Y-10715000D01*
X14485000Y-10740000D02*
X14535000Y-10790000D01*
X14535000Y-10740000D02*
X14485000Y-10790000D01*
X14725000Y-7445000D02*
X14775000Y-7495000D01*
X14775000Y-7445000D02*
X14725000Y-7495000D01*
X14725000Y-7520000D02*
X14775000Y-7570000D01*
X14775000Y-7520000D02*
X14725000Y-7570000D01*
X14725000Y-7595000D02*
X14775000Y-7645000D01*
X14775000Y-7595000D02*
X14725000Y-7645000D01*
X14725000Y-7670000D02*
X14775000Y-7720000D01*
X14775000Y-7670000D02*
X14725000Y-7720000D01*
X14725000Y-7745000D02*
X14775000Y-7795000D01*
X14775000Y-7745000D02*
X14725000Y-7795000D01*
X14725000Y-7820000D02*
X14775000Y-7870000D01*
X14775000Y-7820000D02*
X14725000Y-7870000D01*
X14725000Y-10365000D02*
X14775000Y-10415000D01*
X14775000Y-10365000D02*
X14725000Y-10415000D01*
X14725000Y-10440000D02*
X14775000Y-10490000D01*
X14775000Y-10440000D02*
X14725000Y-10490000D01*
X14725000Y-10515000D02*
X14775000Y-10565000D01*
X14775000Y-10515000D02*
X14725000Y-10565000D01*
X14725000Y-10590000D02*
X14775000Y-10640000D01*
X14775000Y-10590000D02*
X14725000Y-10640000D01*
X14725000Y-10665000D02*
X14775000Y-10715000D01*
X14775000Y-10665000D02*
X14725000Y-10715000D01*
X14725000Y-10740000D02*
X14775000Y-10790000D01*
X14775000Y-10740000D02*
X14725000Y-10790000D01*
X17720000Y-4735000D02*
X17770000Y-4785000D01*
X17770000Y-4735000D02*
X17720000Y-4785000D01*
X17720000Y-4975000D02*
X17770000Y-5025000D01*
X17770000Y-4975000D02*
X17720000Y-5025000D01*
X17795000Y-4735000D02*
X17845000Y-4785000D01*
X17845000Y-4735000D02*
X17795000Y-4785000D01*
X17795000Y-4975000D02*
X17845000Y-5025000D01*
X17845000Y-4975000D02*
X17795000Y-5025000D01*
X17870000Y-4735000D02*
X17920000Y-4785000D01*
X17920000Y-4735000D02*
X17870000Y-4785000D01*
X17870000Y-4975000D02*
X17920000Y-5025000D01*
X17920000Y-4975000D02*
X17870000Y-5025000D01*
X17945000Y-4735000D02*
X17995000Y-4785000D01*
X17995000Y-4735000D02*
X17945000Y-4785000D01*
X17945000Y-4975000D02*
X17995000Y-5025000D01*
X17995000Y-4975000D02*
X17945000Y-5025000D01*
X18020000Y-4735000D02*
X18070000Y-4785000D01*
X18070000Y-4735000D02*
X18020000Y-4785000D01*
X18020000Y-4975000D02*
X18070000Y-5025000D01*
X18070000Y-4975000D02*
X18020000Y-5025000D01*
X18095000Y-4735000D02*
X18145000Y-4785000D01*
X18145000Y-4735000D02*
X18095000Y-4785000D01*
X18095000Y-4975000D02*
X18145000Y-5025000D01*
X18145000Y-4975000D02*
X18095000Y-5025000D01*
X25570000Y-4735000D02*
X25620000Y-4785000D01*
X25620000Y-4735000D02*
X25570000Y-4785000D01*
X25570000Y-4975000D02*
X25620000Y-5025000D01*
X25620000Y-4975000D02*
X25570000Y-5025000D01*
X25645000Y-4735000D02*
X25695000Y-4785000D01*
X25695000Y-4735000D02*
X25645000Y-4785000D01*
X25645000Y-4975000D02*
X25695000Y-5025000D01*
X25695000Y-4975000D02*
X25645000Y-5025000D01*
X25720000Y-4735000D02*
X25770000Y-4785000D01*
X25770000Y-4735000D02*
X25720000Y-4785000D01*
X25720000Y-4975000D02*
X25770000Y-5025000D01*
X25770000Y-4975000D02*
X25720000Y-5025000D01*
X25795000Y-4735000D02*
X25845000Y-4785000D01*
X25845000Y-4735000D02*
X25795000Y-4785000D01*
X25795000Y-4975000D02*
X25845000Y-5025000D01*
X25845000Y-4975000D02*
X25795000Y-5025000D01*
X25870000Y-4735000D02*
X25920000Y-4785000D01*
X25920000Y-4735000D02*
X25870000Y-4785000D01*
X25870000Y-4975000D02*
X25920000Y-5025000D01*
X25920000Y-4975000D02*
X25870000Y-5025000D01*
X25945000Y-4735000D02*
X25995000Y-4785000D01*
X25995000Y-4735000D02*
X25945000Y-4785000D01*
X25945000Y-4975000D02*
X25995000Y-5025000D01*
X25995000Y-4975000D02*
X25945000Y-5025000D01*
X2650000Y-7236000D02*
G75*
G02*
X2550000Y-7236000I-50000J0D01*
G01*
X2550000Y-7236000D02*
G75*
G02*
X2650000Y-7236000I50000J0D01*
G01*
X2650000Y-8896000D02*
G75*
G02*
X2550000Y-8896000I-50000J0D01*
G01*
X2550000Y-8896000D02*
G75*
G02*
X2650000Y-8896000I50000J0D01*
G01*
X2650000Y-10556000D02*
G75*
G02*
X2550000Y-10556000I-50000J0D01*
G01*
X2550000Y-10556000D02*
G75*
G02*
X2650000Y-10556000I50000J0D01*
G01*
X5310000Y-5960000D02*
G75*
G02*
X5210000Y-5960000I-50000J0D01*
G01*
X5210000Y-5960000D02*
G75*
G02*
X5310000Y-5960000I50000J0D01*
G01*
X5310000Y-7620000D02*
G75*
G02*
X5210000Y-7620000I-50000J0D01*
G01*
X5210000Y-7620000D02*
G75*
G02*
X5310000Y-7620000I50000J0D01*
G01*
X5310000Y-9280000D02*
G75*
G02*
X5210000Y-9280000I-50000J0D01*
G01*
X5210000Y-9280000D02*
G75*
G02*
X5310000Y-9280000I50000J0D01*
G01*
X6970000Y-5545000D02*
G75*
G02*
X6870000Y-5545000I-50000J0D01*
G01*
X6870000Y-5545000D02*
G75*
G02*
X6970000Y-5545000I50000J0D01*
G01*
X6970000Y-7205000D02*
G75*
G02*
X6870000Y-7205000I-50000J0D01*
G01*
X6870000Y-7205000D02*
G75*
G02*
X6970000Y-7205000I50000J0D01*
G01*
X6970000Y-8865000D02*
G75*
G02*
X6870000Y-8865000I-50000J0D01*
G01*
X6870000Y-8865000D02*
G75*
G02*
X6970000Y-8865000I50000J0D01*
G01*
X8630000Y-5296000D02*
G75*
G02*
X8530000Y-5296000I-50000J0D01*
G01*
X8530000Y-5296000D02*
G75*
G02*
X8630000Y-5296000I50000J0D01*
G01*
X8630000Y-6956000D02*
G75*
G02*
X8530000Y-6956000I-50000J0D01*
G01*
X8530000Y-6956000D02*
G75*
G02*
X8630000Y-6956000I50000J0D01*
G01*
X8630000Y-8616000D02*
G75*
G02*
X8530000Y-8616000I-50000J0D01*
G01*
X8530000Y-8616000D02*
G75*
G02*
X8630000Y-8616000I50000J0D01*
G01*
X9460000Y-10525000D02*
G75*
G02*
X9360000Y-10525000I-50000J0D01*
G01*
X9360000Y-10525000D02*
G75*
G02*
X9460000Y-10525000I50000J0D01*
G01*
X10290000Y-5545000D02*
G75*
G02*
X10190000Y-5545000I-50000J0D01*
G01*
X10190000Y-5545000D02*
G75*
G02*
X10290000Y-5545000I50000J0D01*
G01*
X10290000Y-7205000D02*
G75*
G02*
X10190000Y-7205000I-50000J0D01*
G01*
X10190000Y-7205000D02*
G75*
G02*
X10290000Y-7205000I50000J0D01*
G01*
X10290000Y-8865000D02*
G75*
G02*
X10190000Y-8865000I-50000J0D01*
G01*
X10190000Y-8865000D02*
G75*
G02*
X10290000Y-8865000I50000J0D01*
G01*
X11120000Y-10774000D02*
G75*
G02*
X11020000Y-10774000I-50000J0D01*
G01*
X11020000Y-10774000D02*
G75*
G02*
X11120000Y-10774000I50000J0D01*
G01*
X11950000Y-5794000D02*
G75*
G02*
X11850000Y-5794000I-50000J0D01*
G01*
X11850000Y-5794000D02*
G75*
G02*
X11950000Y-5794000I50000J0D01*
G01*
X11950000Y-7454000D02*
G75*
G02*
X11850000Y-7454000I-50000J0D01*
G01*
X11850000Y-7454000D02*
G75*
G02*
X11950000Y-7454000I50000J0D01*
G01*
X11950000Y-9114000D02*
G75*
G02*
X11850000Y-9114000I-50000J0D01*
G01*
X11850000Y-9114000D02*
G75*
G02*
X11950000Y-9114000I50000J0D01*
G01*
X13820513Y-11513356D02*
G75*
G02*
X13720513Y-11513356I-50000J0D01*
G01*
X13720513Y-11513356D02*
G75*
G02*
X13820513Y-11513356I50000J0D01*
G01*
X16094487Y-12474644D02*
G75*
G02*
X15994487Y-12474644I-50000J0D01*
G01*
X15994487Y-12474644D02*
G75*
G02*
X16094487Y-12474644I50000J0D01*
G01*
X17410000Y-6904000D02*
G75*
G02*
X17310000Y-6904000I-50000J0D01*
G01*
X17310000Y-6904000D02*
G75*
G02*
X17410000Y-6904000I50000J0D01*
G01*
X17410000Y-8564000D02*
G75*
G02*
X17310000Y-8564000I-50000J0D01*
G01*
X17310000Y-8564000D02*
G75*
G02*
X17410000Y-8564000I50000J0D01*
G01*
X17410000Y-10224000D02*
G75*
G02*
X17310000Y-10224000I-50000J0D01*
G01*
X17310000Y-10224000D02*
G75*
G02*
X17410000Y-10224000I50000J0D01*
G01*
X19070000Y-6655000D02*
G75*
G02*
X18970000Y-6655000I-50000J0D01*
G01*
X18970000Y-6655000D02*
G75*
G02*
X19070000Y-6655000I50000J0D01*
G01*
X19070000Y-8315000D02*
G75*
G02*
X18970000Y-8315000I-50000J0D01*
G01*
X18970000Y-8315000D02*
G75*
G02*
X19070000Y-8315000I50000J0D01*
G01*
X19070000Y-9975000D02*
G75*
G02*
X18970000Y-9975000I-50000J0D01*
G01*
X18970000Y-9975000D02*
G75*
G02*
X19070000Y-9975000I50000J0D01*
G01*
X19240000Y-10774000D02*
G75*
G02*
X19140000Y-10774000I-50000J0D01*
G01*
X19140000Y-10774000D02*
G75*
G02*
X19240000Y-10774000I50000J0D01*
G01*
X20730000Y-6406000D02*
G75*
G02*
X20630000Y-6406000I-50000J0D01*
G01*
X20630000Y-6406000D02*
G75*
G02*
X20730000Y-6406000I50000J0D01*
G01*
X20730000Y-8066000D02*
G75*
G02*
X20630000Y-8066000I-50000J0D01*
G01*
X20630000Y-8066000D02*
G75*
G02*
X20730000Y-8066000I50000J0D01*
G01*
X20730000Y-9726000D02*
G75*
G02*
X20630000Y-9726000I-50000J0D01*
G01*
X20630000Y-9726000D02*
G75*
G02*
X20730000Y-9726000I50000J0D01*
G01*
X20900000Y-10525000D02*
G75*
G02*
X20800000Y-10525000I-50000J0D01*
G01*
X20800000Y-10525000D02*
G75*
G02*
X20900000Y-10525000I50000J0D01*
G01*
X22390000Y-6655000D02*
G75*
G02*
X22290000Y-6655000I-50000J0D01*
G01*
X22290000Y-6655000D02*
G75*
G02*
X22390000Y-6655000I50000J0D01*
G01*
X22390000Y-8315000D02*
G75*
G02*
X22290000Y-8315000I-50000J0D01*
G01*
X22290000Y-8315000D02*
G75*
G02*
X22390000Y-8315000I50000J0D01*
G01*
X22390000Y-9975000D02*
G75*
G02*
X22290000Y-9975000I-50000J0D01*
G01*
X22290000Y-9975000D02*
G75*
G02*
X22390000Y-9975000I50000J0D01*
G01*
X24050000Y-7070000D02*
G75*
G02*
X23950000Y-7070000I-50000J0D01*
G01*
X23950000Y-7070000D02*
G75*
G02*
X24050000Y-7070000I50000J0D01*
G01*
X24050000Y-8730000D02*
G75*
G02*
X23950000Y-8730000I-50000J0D01*
G01*
X23950000Y-8730000D02*
G75*
G02*
X24050000Y-8730000I50000J0D01*
G01*
X24050000Y-10390000D02*
G75*
G02*
X23950000Y-10390000I-50000J0D01*
G01*
X23950000Y-10390000D02*
G75*
G02*
X24050000Y-10390000I50000J0D01*
G01*
X26710000Y-6126000D02*
G75*
G02*
X26610000Y-6126000I-50000J0D01*
G01*
X26610000Y-6126000D02*
G75*
G02*
X26710000Y-6126000I50000J0D01*
G01*
X26710000Y-7786000D02*
G75*
G02*
X26610000Y-7786000I-50000J0D01*
G01*
X26610000Y-7786000D02*
G75*
G02*
X26710000Y-7786000I50000J0D01*
G01*
X26710000Y-9446000D02*
G75*
G02*
X26610000Y-9446000I-50000J0D01*
G01*
X26610000Y-9446000D02*
G75*
G02*
X26710000Y-9446000I50000J0D01*
G01*
D13*
X14240000Y-3370000D02*
X14240000Y-3590000D01*
X14130000Y-3480000D02*
X14350000Y-3480000D01*
X15020000Y-3370000D02*
X15020000Y-3590000D01*
X14910000Y-3480000D02*
X15130000Y-3480000D01*
D14*
X3206067Y-6197067D02*
X3206067Y-5984933D01*
X2993933Y-5984933D01*
X2993933Y-6197067D01*
X3206067Y-6197067D01*
X3206067Y-7857067D02*
X3206067Y-7644933D01*
X2993933Y-7644933D01*
X2993933Y-7857067D01*
X3206067Y-7857067D01*
X3206067Y-9517067D02*
X3206067Y-9304933D01*
X2993933Y-9304933D01*
X2993933Y-9517067D01*
X3206067Y-9517067D01*
X3706067Y-6417067D02*
X3706067Y-6204933D01*
X3493933Y-6204933D01*
X3493933Y-6417067D01*
X3706067Y-6417067D01*
X3706067Y-8077067D02*
X3706067Y-7864933D01*
X3493933Y-7864933D01*
X3493933Y-8077067D01*
X3706067Y-8077067D01*
X3706067Y-9737067D02*
X3706067Y-9524933D01*
X3493933Y-9524933D01*
X3493933Y-9737067D01*
X3706067Y-9737067D01*
X4366067Y-6991067D02*
X4366067Y-6778933D01*
X4153933Y-6778933D01*
X4153933Y-6991067D01*
X4366067Y-6991067D01*
X4366067Y-8651067D02*
X4366067Y-8438933D01*
X4153933Y-8438933D01*
X4153933Y-8651067D01*
X4366067Y-8651067D01*
X4366067Y-10311067D02*
X4366067Y-10098933D01*
X4153933Y-10098933D01*
X4153933Y-10311067D01*
X4366067Y-10311067D01*
X4866067Y-7211067D02*
X4866067Y-6998933D01*
X4653933Y-6998933D01*
X4653933Y-7211067D01*
X4866067Y-7211067D01*
X4866067Y-8871067D02*
X4866067Y-8658933D01*
X4653933Y-8658933D01*
X4653933Y-8871067D01*
X4866067Y-8871067D01*
X4866067Y-10531067D02*
X4866067Y-10318933D01*
X4653933Y-10318933D01*
X4653933Y-10531067D01*
X4866067Y-10531067D01*
X6026067Y-6576067D02*
X6026067Y-6363933D01*
X5813933Y-6363933D01*
X5813933Y-6576067D01*
X6026067Y-6576067D01*
X6026067Y-8236067D02*
X6026067Y-8023933D01*
X5813933Y-8023933D01*
X5813933Y-8236067D01*
X6026067Y-8236067D01*
X6026067Y-9896067D02*
X6026067Y-9683933D01*
X5813933Y-9683933D01*
X5813933Y-9896067D01*
X6026067Y-9896067D01*
X6526067Y-6796067D02*
X6526067Y-6583933D01*
X6313933Y-6583933D01*
X6313933Y-6796067D01*
X6526067Y-6796067D01*
X6526067Y-8456067D02*
X6526067Y-8243933D01*
X6313933Y-8243933D01*
X6313933Y-8456067D01*
X6526067Y-8456067D01*
X6526067Y-10116067D02*
X6526067Y-9903933D01*
X6313933Y-9903933D01*
X6313933Y-10116067D01*
X6526067Y-10116067D01*
X7686067Y-6327067D02*
X7686067Y-6114933D01*
X7473933Y-6114933D01*
X7473933Y-6327067D01*
X7686067Y-6327067D01*
X7686067Y-7987067D02*
X7686067Y-7774933D01*
X7473933Y-7774933D01*
X7473933Y-7987067D01*
X7686067Y-7987067D01*
X7686067Y-9647067D02*
X7686067Y-9434933D01*
X7473933Y-9434933D01*
X7473933Y-9647067D01*
X7686067Y-9647067D01*
X8186067Y-6547067D02*
X8186067Y-6334933D01*
X7973933Y-6334933D01*
X7973933Y-6547067D01*
X8186067Y-6547067D01*
X8186067Y-8207067D02*
X8186067Y-7994933D01*
X7973933Y-7994933D01*
X7973933Y-8207067D01*
X8186067Y-8207067D01*
X8186067Y-9867067D02*
X8186067Y-9654933D01*
X7973933Y-9654933D01*
X7973933Y-9867067D01*
X8186067Y-9867067D01*
X8516067Y-11556067D02*
X8516067Y-11343933D01*
X8303933Y-11343933D01*
X8303933Y-11556067D01*
X8516067Y-11556067D01*
X9016067Y-11776067D02*
X9016067Y-11563933D01*
X8803933Y-11563933D01*
X8803933Y-11776067D01*
X9016067Y-11776067D01*
X9346067Y-6576067D02*
X9346067Y-6363933D01*
X9133933Y-6363933D01*
X9133933Y-6576067D01*
X9346067Y-6576067D01*
X9346067Y-8236067D02*
X9346067Y-8023933D01*
X9133933Y-8023933D01*
X9133933Y-8236067D01*
X9346067Y-8236067D01*
X9346067Y-9896067D02*
X9346067Y-9683933D01*
X9133933Y-9683933D01*
X9133933Y-9896067D01*
X9346067Y-9896067D01*
X9846067Y-6796067D02*
X9846067Y-6583933D01*
X9633933Y-6583933D01*
X9633933Y-6796067D01*
X9846067Y-6796067D01*
X9846067Y-8456067D02*
X9846067Y-8243933D01*
X9633933Y-8243933D01*
X9633933Y-8456067D01*
X9846067Y-8456067D01*
X9846067Y-10116067D02*
X9846067Y-9903933D01*
X9633933Y-9903933D01*
X9633933Y-10116067D01*
X9846067Y-10116067D01*
X10176067Y-11805067D02*
X10176067Y-11592933D01*
X9963933Y-11592933D01*
X9963933Y-11805067D01*
X10176067Y-11805067D01*
X10676067Y-12025067D02*
X10676067Y-11812933D01*
X10463933Y-11812933D01*
X10463933Y-12025067D01*
X10676067Y-12025067D01*
X11006067Y-6825067D02*
X11006067Y-6612933D01*
X10793933Y-6612933D01*
X10793933Y-6825067D01*
X11006067Y-6825067D01*
X11006067Y-8485067D02*
X11006067Y-8272933D01*
X10793933Y-8272933D01*
X10793933Y-8485067D01*
X11006067Y-8485067D01*
X11006067Y-10145067D02*
X11006067Y-9932933D01*
X10793933Y-9932933D01*
X10793933Y-10145067D01*
X11006067Y-10145067D01*
X11506067Y-7045067D02*
X11506067Y-6832933D01*
X11293933Y-6832933D01*
X11293933Y-7045067D01*
X11506067Y-7045067D01*
X11506067Y-8705067D02*
X11506067Y-8492933D01*
X11293933Y-8492933D01*
X11293933Y-8705067D01*
X11506067Y-8705067D01*
X11506067Y-10365067D02*
X11506067Y-10152933D01*
X11293933Y-10152933D01*
X11293933Y-10365067D01*
X11506067Y-10365067D01*
X12548054Y-11920496D02*
X12548054Y-11708362D01*
X12335920Y-11708362D01*
X12335920Y-11920496D01*
X12548054Y-11920496D01*
X12871067Y-12361022D02*
X12871067Y-12148888D01*
X12658933Y-12148888D01*
X12658933Y-12361022D01*
X12871067Y-12361022D01*
X16011067Y-11339112D02*
X16011067Y-11126978D01*
X15798933Y-11126978D01*
X15798933Y-11339112D01*
X16011067Y-11339112D01*
X16554080Y-11279638D02*
X16554080Y-11067504D01*
X16341946Y-11067504D01*
X16341946Y-11279638D01*
X16554080Y-11279638D01*
X17966067Y-5865067D02*
X17966067Y-5652933D01*
X17753933Y-5652933D01*
X17753933Y-5865067D01*
X17966067Y-5865067D01*
X17966067Y-7525067D02*
X17966067Y-7312933D01*
X17753933Y-7312933D01*
X17753933Y-7525067D01*
X17966067Y-7525067D01*
X17966067Y-9185067D02*
X17966067Y-8972933D01*
X17753933Y-8972933D01*
X17753933Y-9185067D01*
X17966067Y-9185067D01*
X18296067Y-11805067D02*
X18296067Y-11592933D01*
X18083933Y-11592933D01*
X18083933Y-11805067D01*
X18296067Y-11805067D01*
X18466067Y-6085067D02*
X18466067Y-5872933D01*
X18253933Y-5872933D01*
X18253933Y-6085067D01*
X18466067Y-6085067D01*
X18466067Y-7745067D02*
X18466067Y-7532933D01*
X18253933Y-7532933D01*
X18253933Y-7745067D01*
X18466067Y-7745067D01*
X18466067Y-9405067D02*
X18466067Y-9192933D01*
X18253933Y-9192933D01*
X18253933Y-9405067D01*
X18466067Y-9405067D01*
X18796067Y-12025067D02*
X18796067Y-11812933D01*
X18583933Y-11812933D01*
X18583933Y-12025067D01*
X18796067Y-12025067D01*
X19626067Y-5616067D02*
X19626067Y-5403933D01*
X19413933Y-5403933D01*
X19413933Y-5616067D01*
X19626067Y-5616067D01*
X19626067Y-7276067D02*
X19626067Y-7063933D01*
X19413933Y-7063933D01*
X19413933Y-7276067D01*
X19626067Y-7276067D01*
X19626067Y-8936067D02*
X19626067Y-8723933D01*
X19413933Y-8723933D01*
X19413933Y-8936067D01*
X19626067Y-8936067D01*
X19956067Y-11556067D02*
X19956067Y-11343933D01*
X19743933Y-11343933D01*
X19743933Y-11556067D01*
X19956067Y-11556067D01*
X20126067Y-5836067D02*
X20126067Y-5623933D01*
X19913933Y-5623933D01*
X19913933Y-5836067D01*
X20126067Y-5836067D01*
X20126067Y-7496067D02*
X20126067Y-7283933D01*
X19913933Y-7283933D01*
X19913933Y-7496067D01*
X20126067Y-7496067D01*
X20126067Y-9156067D02*
X20126067Y-8943933D01*
X19913933Y-8943933D01*
X19913933Y-9156067D01*
X20126067Y-9156067D01*
X20456067Y-11776067D02*
X20456067Y-11563933D01*
X20243933Y-11563933D01*
X20243933Y-11776067D01*
X20456067Y-11776067D01*
X21286067Y-5367067D02*
X21286067Y-5154933D01*
X21073933Y-5154933D01*
X21073933Y-5367067D01*
X21286067Y-5367067D01*
X21286067Y-7027067D02*
X21286067Y-6814933D01*
X21073933Y-6814933D01*
X21073933Y-7027067D01*
X21286067Y-7027067D01*
X21286067Y-8687067D02*
X21286067Y-8474933D01*
X21073933Y-8474933D01*
X21073933Y-8687067D01*
X21286067Y-8687067D01*
X21786067Y-5587067D02*
X21786067Y-5374933D01*
X21573933Y-5374933D01*
X21573933Y-5587067D01*
X21786067Y-5587067D01*
X21786067Y-7247067D02*
X21786067Y-7034933D01*
X21573933Y-7034933D01*
X21573933Y-7247067D01*
X21786067Y-7247067D01*
X21786067Y-8907067D02*
X21786067Y-8694933D01*
X21573933Y-8694933D01*
X21573933Y-8907067D01*
X21786067Y-8907067D01*
X22946067Y-5616067D02*
X22946067Y-5403933D01*
X22733933Y-5403933D01*
X22733933Y-5616067D01*
X22946067Y-5616067D01*
X22946067Y-7276067D02*
X22946067Y-7063933D01*
X22733933Y-7063933D01*
X22733933Y-7276067D01*
X22946067Y-7276067D01*
X22946067Y-8936067D02*
X22946067Y-8723933D01*
X22733933Y-8723933D01*
X22733933Y-8936067D01*
X22946067Y-8936067D01*
X23446067Y-5836067D02*
X23446067Y-5623933D01*
X23233933Y-5623933D01*
X23233933Y-5836067D01*
X23446067Y-5836067D01*
X23446067Y-7496067D02*
X23446067Y-7283933D01*
X23233933Y-7283933D01*
X23233933Y-7496067D01*
X23446067Y-7496067D01*
X23446067Y-9156067D02*
X23446067Y-8943933D01*
X23233933Y-8943933D01*
X23233933Y-9156067D01*
X23446067Y-9156067D01*
X24606067Y-6031067D02*
X24606067Y-5818933D01*
X24393933Y-5818933D01*
X24393933Y-6031067D01*
X24606067Y-6031067D01*
X24606067Y-7691067D02*
X24606067Y-7478933D01*
X24393933Y-7478933D01*
X24393933Y-7691067D01*
X24606067Y-7691067D01*
X24606067Y-9351067D02*
X24606067Y-9138933D01*
X24393933Y-9138933D01*
X24393933Y-9351067D01*
X24606067Y-9351067D01*
X25106067Y-6251067D02*
X25106067Y-6038933D01*
X24893933Y-6038933D01*
X24893933Y-6251067D01*
X25106067Y-6251067D01*
X25106067Y-7911067D02*
X25106067Y-7698933D01*
X24893933Y-7698933D01*
X24893933Y-7911067D01*
X25106067Y-7911067D01*
X25106067Y-9571067D02*
X25106067Y-9358933D01*
X24893933Y-9358933D01*
X24893933Y-9571067D01*
X25106067Y-9571067D01*
X25766067Y-7157067D02*
X25766067Y-6944933D01*
X25553933Y-6944933D01*
X25553933Y-7157067D01*
X25766067Y-7157067D01*
X25766067Y-8817067D02*
X25766067Y-8604933D01*
X25553933Y-8604933D01*
X25553933Y-8817067D01*
X25766067Y-8817067D01*
X25766067Y-10477067D02*
X25766067Y-10264933D01*
X25553933Y-10264933D01*
X25553933Y-10477067D01*
X25766067Y-10477067D01*
X26266067Y-7377067D02*
X26266067Y-7164933D01*
X26053933Y-7164933D01*
X26053933Y-7377067D01*
X26266067Y-7377067D01*
X26266067Y-9037067D02*
X26266067Y-8824933D01*
X26053933Y-8824933D01*
X26053933Y-9037067D01*
X26266067Y-9037067D01*
X26266067Y-10697067D02*
X26266067Y-10484933D01*
X26053933Y-10484933D01*
X26053933Y-10697067D01*
X26266067Y-10697067D01*
D15*
X3100000Y-6921000D02*
X3340000Y-6681000D01*
X3100000Y-6441000D01*
X2860000Y-6681000D01*
X3100000Y-6921000D01*
X3100000Y-8581000D02*
X3340000Y-8341000D01*
X3100000Y-8101000D01*
X2860000Y-8341000D01*
X3100000Y-8581000D01*
X3100000Y-10241000D02*
X3340000Y-10001000D01*
X3100000Y-9761000D01*
X2860000Y-10001000D01*
X3100000Y-10241000D01*
X4760000Y-6755000D02*
X5000000Y-6515000D01*
X4760000Y-6275000D01*
X4520000Y-6515000D01*
X4760000Y-6755000D01*
X4760000Y-8415000D02*
X5000000Y-8175000D01*
X4760000Y-7935000D01*
X4520000Y-8175000D01*
X4760000Y-8415000D01*
X4760000Y-10075000D02*
X5000000Y-9835000D01*
X4760000Y-9595000D01*
X4520000Y-9835000D01*
X4760000Y-10075000D01*
X6420000Y-6340000D02*
X6660000Y-6100000D01*
X6420000Y-5860000D01*
X6180000Y-6100000D01*
X6420000Y-6340000D01*
X6420000Y-8000000D02*
X6660000Y-7760000D01*
X6420000Y-7520000D01*
X6180000Y-7760000D01*
X6420000Y-8000000D01*
X6420000Y-9660000D02*
X6660000Y-9420000D01*
X6420000Y-9180000D01*
X6180000Y-9420000D01*
X6420000Y-9660000D01*
X8080000Y-6091000D02*
X8320000Y-5851000D01*
X8080000Y-5611000D01*
X7840000Y-5851000D01*
X8080000Y-6091000D01*
X8080000Y-7751000D02*
X8320000Y-7511000D01*
X8080000Y-7271000D01*
X7840000Y-7511000D01*
X8080000Y-7751000D01*
X8080000Y-9411000D02*
X8320000Y-9171000D01*
X8080000Y-8931000D01*
X7840000Y-9171000D01*
X8080000Y-9411000D01*
X8910000Y-11320000D02*
X9150000Y-11080000D01*
X8910000Y-10840000D01*
X8670000Y-11080000D01*
X8910000Y-11320000D01*
X9740000Y-6340000D02*
X9980000Y-6100000D01*
X9740000Y-5860000D01*
X9500000Y-6100000D01*
X9740000Y-6340000D01*
X9740000Y-8000000D02*
X9980000Y-7760000D01*
X9740000Y-7520000D01*
X9500000Y-7760000D01*
X9740000Y-8000000D01*
X9740000Y-9660000D02*
X9980000Y-9420000D01*
X9740000Y-9180000D01*
X9500000Y-9420000D01*
X9740000Y-9660000D01*
X10570000Y-11569000D02*
X10810000Y-11329000D01*
X10570000Y-11089000D01*
X10330000Y-11329000D01*
X10570000Y-11569000D01*
X11400000Y-6589000D02*
X11640000Y-6349000D01*
X11400000Y-6109000D01*
X11160000Y-6349000D01*
X11400000Y-6589000D01*
X11400000Y-8249000D02*
X11640000Y-8009000D01*
X11400000Y-7769000D01*
X11160000Y-8009000D01*
X11400000Y-8249000D01*
X11400000Y-9909000D02*
X11640000Y-9669000D01*
X11400000Y-9429000D01*
X11160000Y-9669000D01*
X11400000Y-9909000D01*
X13060000Y-11984000D02*
X13300000Y-11744000D01*
X13060000Y-11504000D01*
X12820000Y-11744000D01*
X13060000Y-11984000D01*
X16200000Y-11984000D02*
X16440000Y-11744000D01*
X16200000Y-11504000D01*
X15960000Y-11744000D01*
X16200000Y-11984000D01*
X17860000Y-6589000D02*
X18100000Y-6349000D01*
X17860000Y-6109000D01*
X17620000Y-6349000D01*
X17860000Y-6589000D01*
X17860000Y-8249000D02*
X18100000Y-8009000D01*
X17860000Y-7769000D01*
X17620000Y-8009000D01*
X17860000Y-8249000D01*
X17860000Y-9909000D02*
X18100000Y-9669000D01*
X17860000Y-9429000D01*
X17620000Y-9669000D01*
X17860000Y-9909000D01*
X18690000Y-11569000D02*
X18930000Y-11329000D01*
X18690000Y-11089000D01*
X18450000Y-11329000D01*
X18690000Y-11569000D01*
X19520000Y-6340000D02*
X19760000Y-6100000D01*
X19520000Y-5860000D01*
X19280000Y-6100000D01*
X19520000Y-6340000D01*
X19520000Y-8000000D02*
X19760000Y-7760000D01*
X19520000Y-7520000D01*
X19280000Y-7760000D01*
X19520000Y-8000000D01*
X19520000Y-9660000D02*
X19760000Y-9420000D01*
X19520000Y-9180000D01*
X19280000Y-9420000D01*
X19520000Y-9660000D01*
X20350000Y-11320000D02*
X20590000Y-11080000D01*
X20350000Y-10840000D01*
X20110000Y-11080000D01*
X20350000Y-11320000D01*
X21180000Y-6091000D02*
X21420000Y-5851000D01*
X21180000Y-5611000D01*
X20940000Y-5851000D01*
X21180000Y-6091000D01*
X21180000Y-7751000D02*
X21420000Y-7511000D01*
X21180000Y-7271000D01*
X20940000Y-7511000D01*
X21180000Y-7751000D01*
X21180000Y-9411000D02*
X21420000Y-9171000D01*
X21180000Y-8931000D01*
X20940000Y-9171000D01*
X21180000Y-9411000D01*
X22840000Y-6340000D02*
X23080000Y-6100000D01*
X22840000Y-5860000D01*
X22600000Y-6100000D01*
X22840000Y-6340000D01*
X22840000Y-8000000D02*
X23080000Y-7760000D01*
X22840000Y-7520000D01*
X22600000Y-7760000D01*
X22840000Y-8000000D01*
X22840000Y-9660000D02*
X23080000Y-9420000D01*
X22840000Y-9180000D01*
X22600000Y-9420000D01*
X22840000Y-9660000D01*
X24500000Y-6755000D02*
X24740000Y-6515000D01*
X24500000Y-6275000D01*
X24260000Y-6515000D01*
X24500000Y-6755000D01*
X24500000Y-8415000D02*
X24740000Y-8175000D01*
X24500000Y-7935000D01*
X24260000Y-8175000D01*
X24500000Y-8415000D01*
X24500000Y-10075000D02*
X24740000Y-9835000D01*
X24500000Y-9595000D01*
X24260000Y-9835000D01*
X24500000Y-10075000D01*
X26160000Y-6921000D02*
X26400000Y-6681000D01*
X26160000Y-6441000D01*
X25920000Y-6681000D01*
X26160000Y-6921000D01*
X26160000Y-8581000D02*
X26400000Y-8341000D01*
X26160000Y-8101000D01*
X25920000Y-8341000D01*
X26160000Y-8581000D01*
X26160000Y-10241000D02*
X26400000Y-10001000D01*
X26160000Y-9761000D01*
X25920000Y-10001000D01*
X26160000Y-10241000D01*
D11*
X2448277Y-13677613D02*
X2448277Y-13477613D01*
X2448277Y-13477613D02*
X2495896Y-13477613D01*
X2495896Y-13477613D02*
X2524467Y-13487137D01*
X2524467Y-13487137D02*
X2543515Y-13506185D01*
X2543515Y-13506185D02*
X2553039Y-13525232D01*
X2553039Y-13525232D02*
X2562563Y-13563327D01*
X2562563Y-13563327D02*
X2562563Y-13591899D01*
X2562563Y-13591899D02*
X2553039Y-13629994D01*
X2553039Y-13629994D02*
X2543515Y-13649042D01*
X2543515Y-13649042D02*
X2524467Y-13668089D01*
X2524467Y-13668089D02*
X2495896Y-13677613D01*
X2495896Y-13677613D02*
X2448277Y-13677613D01*
X2648277Y-13677613D02*
X2648277Y-13544280D01*
X2648277Y-13582375D02*
X2657801Y-13563327D01*
X2657801Y-13563327D02*
X2667324Y-13553804D01*
X2667324Y-13553804D02*
X2686372Y-13544280D01*
X2686372Y-13544280D02*
X2705420Y-13544280D01*
X2772086Y-13677613D02*
X2772086Y-13544280D01*
X2772086Y-13477613D02*
X2762563Y-13487137D01*
X2762563Y-13487137D02*
X2772086Y-13496661D01*
X2772086Y-13496661D02*
X2781610Y-13487137D01*
X2781610Y-13487137D02*
X2772086Y-13477613D01*
X2772086Y-13477613D02*
X2772086Y-13496661D01*
X2895896Y-13677613D02*
X2876848Y-13668089D01*
X2876848Y-13668089D02*
X2867324Y-13649042D01*
X2867324Y-13649042D02*
X2867324Y-13477613D01*
X3000658Y-13677613D02*
X2981610Y-13668089D01*
X2981610Y-13668089D02*
X2972086Y-13649042D01*
X2972086Y-13649042D02*
X2972086Y-13477613D01*
X3229229Y-13677613D02*
X3229229Y-13477613D01*
X3229229Y-13477613D02*
X3295896Y-13620470D01*
X3295896Y-13620470D02*
X3362562Y-13477613D01*
X3362562Y-13477613D02*
X3362562Y-13677613D01*
X3543515Y-13677613D02*
X3543515Y-13572851D01*
X3543515Y-13572851D02*
X3533991Y-13553804D01*
X3533991Y-13553804D02*
X3514943Y-13544280D01*
X3514943Y-13544280D02*
X3476848Y-13544280D01*
X3476848Y-13544280D02*
X3457801Y-13553804D01*
X3543515Y-13668089D02*
X3524467Y-13677613D01*
X3524467Y-13677613D02*
X3476848Y-13677613D01*
X3476848Y-13677613D02*
X3457801Y-13668089D01*
X3457801Y-13668089D02*
X3448277Y-13649042D01*
X3448277Y-13649042D02*
X3448277Y-13629994D01*
X3448277Y-13629994D02*
X3457801Y-13610947D01*
X3457801Y-13610947D02*
X3476848Y-13601423D01*
X3476848Y-13601423D02*
X3524467Y-13601423D01*
X3524467Y-13601423D02*
X3543515Y-13591899D01*
X3638753Y-13544280D02*
X3638753Y-13744280D01*
X3638753Y-13553804D02*
X3657801Y-13544280D01*
X3657801Y-13544280D02*
X3695896Y-13544280D01*
X3695896Y-13544280D02*
X3714943Y-13553804D01*
X3714943Y-13553804D02*
X3724467Y-13563327D01*
X3724467Y-13563327D02*
X3733991Y-13582375D01*
X3733991Y-13582375D02*
X3733991Y-13639518D01*
X3733991Y-13639518D02*
X3724467Y-13658566D01*
X3724467Y-13658566D02*
X3714943Y-13668089D01*
X3714943Y-13668089D02*
X3695896Y-13677613D01*
X3695896Y-13677613D02*
X3657801Y-13677613D01*
X3657801Y-13677613D02*
X3638753Y-13668089D01*
X3819705Y-13658566D02*
X3829229Y-13668089D01*
X3829229Y-13668089D02*
X3819705Y-13677613D01*
X3819705Y-13677613D02*
X3810182Y-13668089D01*
X3810182Y-13668089D02*
X3819705Y-13658566D01*
X3819705Y-13658566D02*
X3819705Y-13677613D01*
X3819705Y-13553804D02*
X3829229Y-13563327D01*
X3829229Y-13563327D02*
X3819705Y-13572851D01*
X3819705Y-13572851D02*
X3810182Y-13563327D01*
X3810182Y-13563327D02*
X3819705Y-13553804D01*
X3819705Y-13553804D02*
X3819705Y-13572851D01*
D12*
X2137500Y-13981129D02*
X2187500Y-14031129D01*
X2187500Y-13981129D02*
X2137500Y-14031129D01*
D11*
X2486372Y-13897613D02*
X2505420Y-13897613D01*
X2505420Y-13897613D02*
X2524467Y-13907137D01*
X2524467Y-13907137D02*
X2533991Y-13916661D01*
X2533991Y-13916661D02*
X2543515Y-13935708D01*
X2543515Y-13935708D02*
X2553039Y-13973804D01*
X2553039Y-13973804D02*
X2553039Y-14021423D01*
X2553039Y-14021423D02*
X2543515Y-14059518D01*
X2543515Y-14059518D02*
X2533991Y-14078566D01*
X2533991Y-14078566D02*
X2524467Y-14088089D01*
X2524467Y-14088089D02*
X2505420Y-14097613D01*
X2505420Y-14097613D02*
X2486372Y-14097613D01*
X2486372Y-14097613D02*
X2467324Y-14088089D01*
X2467324Y-14088089D02*
X2457801Y-14078566D01*
X2457801Y-14078566D02*
X2448277Y-14059518D01*
X2448277Y-14059518D02*
X2438753Y-14021423D01*
X2438753Y-14021423D02*
X2438753Y-13973804D01*
X2438753Y-13973804D02*
X2448277Y-13935708D01*
X2448277Y-13935708D02*
X2457801Y-13916661D01*
X2457801Y-13916661D02*
X2467324Y-13907137D01*
X2467324Y-13907137D02*
X2486372Y-13897613D01*
X2638753Y-14078566D02*
X2648277Y-14088089D01*
X2648277Y-14088089D02*
X2638753Y-14097613D01*
X2638753Y-14097613D02*
X2629229Y-14088089D01*
X2629229Y-14088089D02*
X2638753Y-14078566D01*
X2638753Y-14078566D02*
X2638753Y-14097613D01*
X2829229Y-13897613D02*
X2733991Y-13897613D01*
X2733991Y-13897613D02*
X2724467Y-13992851D01*
X2724467Y-13992851D02*
X2733991Y-13983327D01*
X2733991Y-13983327D02*
X2753039Y-13973804D01*
X2753039Y-13973804D02*
X2800658Y-13973804D01*
X2800658Y-13973804D02*
X2819705Y-13983327D01*
X2819705Y-13983327D02*
X2829229Y-13992851D01*
X2829229Y-13992851D02*
X2838753Y-14011899D01*
X2838753Y-14011899D02*
X2838753Y-14059518D01*
X2838753Y-14059518D02*
X2829229Y-14078566D01*
X2829229Y-14078566D02*
X2819705Y-14088089D01*
X2819705Y-14088089D02*
X2800658Y-14097613D01*
X2800658Y-14097613D02*
X2753039Y-14097613D01*
X2753039Y-14097613D02*
X2733991Y-14088089D01*
X2733991Y-14088089D02*
X2724467Y-14078566D01*
X2962562Y-13897613D02*
X2981610Y-13897613D01*
X2981610Y-13897613D02*
X3000658Y-13907137D01*
X3000658Y-13907137D02*
X3010182Y-13916661D01*
X3010182Y-13916661D02*
X3019705Y-13935708D01*
X3019705Y-13935708D02*
X3029229Y-13973804D01*
X3029229Y-13973804D02*
X3029229Y-14021423D01*
X3029229Y-14021423D02*
X3019705Y-14059518D01*
X3019705Y-14059518D02*
X3010182Y-14078566D01*
X3010182Y-14078566D02*
X3000658Y-14088089D01*
X3000658Y-14088089D02*
X2981610Y-14097613D01*
X2981610Y-14097613D02*
X2962562Y-14097613D01*
X2962562Y-14097613D02*
X2943515Y-14088089D01*
X2943515Y-14088089D02*
X2933991Y-14078566D01*
X2933991Y-14078566D02*
X2924467Y-14059518D01*
X2924467Y-14059518D02*
X2914943Y-14021423D01*
X2914943Y-14021423D02*
X2914943Y-13973804D01*
X2914943Y-13973804D02*
X2924467Y-13935708D01*
X2924467Y-13935708D02*
X2933991Y-13916661D01*
X2933991Y-13916661D02*
X2943515Y-13907137D01*
X2943515Y-13907137D02*
X2962562Y-13897613D01*
X3153039Y-13897613D02*
X3172086Y-13897613D01*
X3172086Y-13897613D02*
X3191134Y-13907137D01*
X3191134Y-13907137D02*
X3200658Y-13916661D01*
X3200658Y-13916661D02*
X3210182Y-13935708D01*
X3210182Y-13935708D02*
X3219705Y-13973804D01*
X3219705Y-13973804D02*
X3219705Y-14021423D01*
X3219705Y-14021423D02*
X3210182Y-14059518D01*
X3210182Y-14059518D02*
X3200658Y-14078566D01*
X3200658Y-14078566D02*
X3191134Y-14088089D01*
X3191134Y-14088089D02*
X3172086Y-14097613D01*
X3172086Y-14097613D02*
X3153039Y-14097613D01*
X3153039Y-14097613D02*
X3133991Y-14088089D01*
X3133991Y-14088089D02*
X3124467Y-14078566D01*
X3124467Y-14078566D02*
X3114943Y-14059518D01*
X3114943Y-14059518D02*
X3105420Y-14021423D01*
X3105420Y-14021423D02*
X3105420Y-13973804D01*
X3105420Y-13973804D02*
X3114943Y-13935708D01*
X3114943Y-13935708D02*
X3124467Y-13916661D01*
X3124467Y-13916661D02*
X3133991Y-13907137D01*
X3133991Y-13907137D02*
X3153039Y-13897613D01*
X3305420Y-14097613D02*
X3305420Y-13964280D01*
X3305420Y-13983327D02*
X3314943Y-13973804D01*
X3314943Y-13973804D02*
X3333991Y-13964280D01*
X3333991Y-13964280D02*
X3362563Y-13964280D01*
X3362563Y-13964280D02*
X3381610Y-13973804D01*
X3381610Y-13973804D02*
X3391134Y-13992851D01*
X3391134Y-13992851D02*
X3391134Y-14097613D01*
X3391134Y-13992851D02*
X3400658Y-13973804D01*
X3400658Y-13973804D02*
X3419705Y-13964280D01*
X3419705Y-13964280D02*
X3448277Y-13964280D01*
X3448277Y-13964280D02*
X3467324Y-13973804D01*
X3467324Y-13973804D02*
X3476848Y-13992851D01*
X3476848Y-13992851D02*
X3476848Y-14097613D01*
X3572086Y-14097613D02*
X3572086Y-13964280D01*
X3572086Y-13983327D02*
X3581610Y-13973804D01*
X3581610Y-13973804D02*
X3600658Y-13964280D01*
X3600658Y-13964280D02*
X3629229Y-13964280D01*
X3629229Y-13964280D02*
X3648277Y-13973804D01*
X3648277Y-13973804D02*
X3657801Y-13992851D01*
X3657801Y-13992851D02*
X3657801Y-14097613D01*
X3657801Y-13992851D02*
X3667324Y-13973804D01*
X3667324Y-13973804D02*
X3686372Y-13964280D01*
X3686372Y-13964280D02*
X3714943Y-13964280D01*
X3714943Y-13964280D02*
X3733991Y-13973804D01*
X3733991Y-13973804D02*
X3743515Y-13992851D01*
X3743515Y-13992851D02*
X3743515Y-14097613D01*
X4133991Y-13888089D02*
X3962563Y-14145232D01*
X4391134Y-13897613D02*
X4410182Y-13897613D01*
X4410182Y-13897613D02*
X4429229Y-13907137D01*
X4429229Y-13907137D02*
X4438753Y-13916661D01*
X4438753Y-13916661D02*
X4448277Y-13935708D01*
X4448277Y-13935708D02*
X4457801Y-13973804D01*
X4457801Y-13973804D02*
X4457801Y-14021423D01*
X4457801Y-14021423D02*
X4448277Y-14059518D01*
X4448277Y-14059518D02*
X4438753Y-14078566D01*
X4438753Y-14078566D02*
X4429229Y-14088089D01*
X4429229Y-14088089D02*
X4410182Y-14097613D01*
X4410182Y-14097613D02*
X4391134Y-14097613D01*
X4391134Y-14097613D02*
X4372087Y-14088089D01*
X4372087Y-14088089D02*
X4362563Y-14078566D01*
X4362563Y-14078566D02*
X4353039Y-14059518D01*
X4353039Y-14059518D02*
X4343515Y-14021423D01*
X4343515Y-14021423D02*
X4343515Y-13973804D01*
X4343515Y-13973804D02*
X4353039Y-13935708D01*
X4353039Y-13935708D02*
X4362563Y-13916661D01*
X4362563Y-13916661D02*
X4372087Y-13907137D01*
X4372087Y-13907137D02*
X4391134Y-13897613D01*
X4543515Y-14078566D02*
X4553039Y-14088089D01*
X4553039Y-14088089D02*
X4543515Y-14097613D01*
X4543515Y-14097613D02*
X4533991Y-14088089D01*
X4533991Y-14088089D02*
X4543515Y-14078566D01*
X4543515Y-14078566D02*
X4543515Y-14097613D01*
X4676848Y-13897613D02*
X4695896Y-13897613D01*
X4695896Y-13897613D02*
X4714944Y-13907137D01*
X4714944Y-13907137D02*
X4724468Y-13916661D01*
X4724468Y-13916661D02*
X4733991Y-13935708D01*
X4733991Y-13935708D02*
X4743515Y-13973804D01*
X4743515Y-13973804D02*
X4743515Y-14021423D01*
X4743515Y-14021423D02*
X4733991Y-14059518D01*
X4733991Y-14059518D02*
X4724468Y-14078566D01*
X4724468Y-14078566D02*
X4714944Y-14088089D01*
X4714944Y-14088089D02*
X4695896Y-14097613D01*
X4695896Y-14097613D02*
X4676848Y-14097613D01*
X4676848Y-14097613D02*
X4657801Y-14088089D01*
X4657801Y-14088089D02*
X4648277Y-14078566D01*
X4648277Y-14078566D02*
X4638753Y-14059518D01*
X4638753Y-14059518D02*
X4629229Y-14021423D01*
X4629229Y-14021423D02*
X4629229Y-13973804D01*
X4629229Y-13973804D02*
X4638753Y-13935708D01*
X4638753Y-13935708D02*
X4648277Y-13916661D01*
X4648277Y-13916661D02*
X4657801Y-13907137D01*
X4657801Y-13907137D02*
X4676848Y-13897613D01*
X4933991Y-14097613D02*
X4819706Y-14097613D01*
X4876848Y-14097613D02*
X4876848Y-13897613D01*
X4876848Y-13897613D02*
X4857801Y-13926185D01*
X4857801Y-13926185D02*
X4838753Y-13945232D01*
X4838753Y-13945232D02*
X4819706Y-13954756D01*
X5029229Y-14097613D02*
X5067325Y-14097613D01*
X5067325Y-14097613D02*
X5086372Y-14088089D01*
X5086372Y-14088089D02*
X5095896Y-14078566D01*
X5095896Y-14078566D02*
X5114944Y-14049994D01*
X5114944Y-14049994D02*
X5124468Y-14011899D01*
X5124468Y-14011899D02*
X5124468Y-13935708D01*
X5124468Y-13935708D02*
X5114944Y-13916661D01*
X5114944Y-13916661D02*
X5105420Y-13907137D01*
X5105420Y-13907137D02*
X5086372Y-13897613D01*
X5086372Y-13897613D02*
X5048277Y-13897613D01*
X5048277Y-13897613D02*
X5029229Y-13907137D01*
X5029229Y-13907137D02*
X5019706Y-13916661D01*
X5019706Y-13916661D02*
X5010182Y-13935708D01*
X5010182Y-13935708D02*
X5010182Y-13983327D01*
X5010182Y-13983327D02*
X5019706Y-14002375D01*
X5019706Y-14002375D02*
X5029229Y-14011899D01*
X5029229Y-14011899D02*
X5048277Y-14021423D01*
X5048277Y-14021423D02*
X5086372Y-14021423D01*
X5086372Y-14021423D02*
X5105420Y-14011899D01*
X5105420Y-14011899D02*
X5114944Y-14002375D01*
X5114944Y-14002375D02*
X5124468Y-13983327D01*
X5191134Y-13897613D02*
X5324468Y-13897613D01*
X5324468Y-13897613D02*
X5238753Y-14097613D01*
X5391134Y-13897613D02*
X5391134Y-13935708D01*
X5467325Y-13897613D02*
X5467325Y-13935708D01*
X5762563Y-14173804D02*
X5753039Y-14164280D01*
X5753039Y-14164280D02*
X5733991Y-14135708D01*
X5733991Y-14135708D02*
X5724468Y-14116661D01*
X5724468Y-14116661D02*
X5714944Y-14088089D01*
X5714944Y-14088089D02*
X5705420Y-14040470D01*
X5705420Y-14040470D02*
X5705420Y-14002375D01*
X5705420Y-14002375D02*
X5714944Y-13954756D01*
X5714944Y-13954756D02*
X5724468Y-13926185D01*
X5724468Y-13926185D02*
X5733991Y-13907137D01*
X5733991Y-13907137D02*
X5753039Y-13878566D01*
X5753039Y-13878566D02*
X5762563Y-13869042D01*
X5819706Y-13897613D02*
X5953039Y-13897613D01*
X5953039Y-13897613D02*
X5867325Y-14097613D01*
X6019706Y-13916661D02*
X6029229Y-13907137D01*
X6029229Y-13907137D02*
X6048277Y-13897613D01*
X6048277Y-13897613D02*
X6095896Y-13897613D01*
X6095896Y-13897613D02*
X6114944Y-13907137D01*
X6114944Y-13907137D02*
X6124468Y-13916661D01*
X6124468Y-13916661D02*
X6133991Y-13935708D01*
X6133991Y-13935708D02*
X6133991Y-13954756D01*
X6133991Y-13954756D02*
X6124468Y-13983327D01*
X6124468Y-13983327D02*
X6010182Y-14097613D01*
X6010182Y-14097613D02*
X6133991Y-14097613D01*
X6372087Y-14097613D02*
X6372087Y-13897613D01*
X6457801Y-14097613D02*
X6457801Y-13992851D01*
X6457801Y-13992851D02*
X6448277Y-13973804D01*
X6448277Y-13973804D02*
X6429230Y-13964280D01*
X6429230Y-13964280D02*
X6400658Y-13964280D01*
X6400658Y-13964280D02*
X6381610Y-13973804D01*
X6381610Y-13973804D02*
X6372087Y-13983327D01*
X6581610Y-14097613D02*
X6562563Y-14088089D01*
X6562563Y-14088089D02*
X6553039Y-14078566D01*
X6553039Y-14078566D02*
X6543515Y-14059518D01*
X6543515Y-14059518D02*
X6543515Y-14002375D01*
X6543515Y-14002375D02*
X6553039Y-13983327D01*
X6553039Y-13983327D02*
X6562563Y-13973804D01*
X6562563Y-13973804D02*
X6581610Y-13964280D01*
X6581610Y-13964280D02*
X6610182Y-13964280D01*
X6610182Y-13964280D02*
X6629230Y-13973804D01*
X6629230Y-13973804D02*
X6638753Y-13983327D01*
X6638753Y-13983327D02*
X6648277Y-14002375D01*
X6648277Y-14002375D02*
X6648277Y-14059518D01*
X6648277Y-14059518D02*
X6638753Y-14078566D01*
X6638753Y-14078566D02*
X6629230Y-14088089D01*
X6629230Y-14088089D02*
X6610182Y-14097613D01*
X6610182Y-14097613D02*
X6581610Y-14097613D01*
X6762563Y-14097613D02*
X6743515Y-14088089D01*
X6743515Y-14088089D02*
X6733991Y-14069042D01*
X6733991Y-14069042D02*
X6733991Y-13897613D01*
X6914944Y-14088089D02*
X6895896Y-14097613D01*
X6895896Y-14097613D02*
X6857801Y-14097613D01*
X6857801Y-14097613D02*
X6838753Y-14088089D01*
X6838753Y-14088089D02*
X6829230Y-14069042D01*
X6829230Y-14069042D02*
X6829230Y-13992851D01*
X6829230Y-13992851D02*
X6838753Y-13973804D01*
X6838753Y-13973804D02*
X6857801Y-13964280D01*
X6857801Y-13964280D02*
X6895896Y-13964280D01*
X6895896Y-13964280D02*
X6914944Y-13973804D01*
X6914944Y-13973804D02*
X6924468Y-13992851D01*
X6924468Y-13992851D02*
X6924468Y-14011899D01*
X6924468Y-14011899D02*
X6829230Y-14030947D01*
X7000658Y-14088089D02*
X7019706Y-14097613D01*
X7019706Y-14097613D02*
X7057801Y-14097613D01*
X7057801Y-14097613D02*
X7076849Y-14088089D01*
X7076849Y-14088089D02*
X7086372Y-14069042D01*
X7086372Y-14069042D02*
X7086372Y-14059518D01*
X7086372Y-14059518D02*
X7076849Y-14040470D01*
X7076849Y-14040470D02*
X7057801Y-14030947D01*
X7057801Y-14030947D02*
X7029230Y-14030947D01*
X7029230Y-14030947D02*
X7010182Y-14021423D01*
X7010182Y-14021423D02*
X7000658Y-14002375D01*
X7000658Y-14002375D02*
X7000658Y-13992851D01*
X7000658Y-13992851D02*
X7010182Y-13973804D01*
X7010182Y-13973804D02*
X7029230Y-13964280D01*
X7029230Y-13964280D02*
X7057801Y-13964280D01*
X7057801Y-13964280D02*
X7076849Y-13973804D01*
X7153039Y-14173804D02*
X7162563Y-14164280D01*
X7162563Y-14164280D02*
X7181611Y-14135708D01*
X7181611Y-14135708D02*
X7191134Y-14116661D01*
X7191134Y-14116661D02*
X7200658Y-14088089D01*
X7200658Y-14088089D02*
X7210182Y-14040470D01*
X7210182Y-14040470D02*
X7210182Y-14002375D01*
X7210182Y-14002375D02*
X7200658Y-13954756D01*
X7200658Y-13954756D02*
X7191134Y-13926185D01*
X7191134Y-13926185D02*
X7181611Y-13907137D01*
X7181611Y-13907137D02*
X7162563Y-13878566D01*
X7162563Y-13878566D02*
X7153039Y-13869042D01*
X7514944Y-14173804D02*
X7505420Y-14164280D01*
X7505420Y-14164280D02*
X7486372Y-14135708D01*
X7486372Y-14135708D02*
X7476849Y-14116661D01*
X7476849Y-14116661D02*
X7467325Y-14088089D01*
X7467325Y-14088089D02*
X7457801Y-14040470D01*
X7457801Y-14040470D02*
X7457801Y-14002375D01*
X7457801Y-14002375D02*
X7467325Y-13954756D01*
X7467325Y-13954756D02*
X7476849Y-13926185D01*
X7476849Y-13926185D02*
X7486372Y-13907137D01*
X7486372Y-13907137D02*
X7505420Y-13878566D01*
X7505420Y-13878566D02*
X7514944Y-13869042D01*
X7591134Y-13964280D02*
X7591134Y-14097613D01*
X7591134Y-13983327D02*
X7600658Y-13973804D01*
X7600658Y-13973804D02*
X7619706Y-13964280D01*
X7619706Y-13964280D02*
X7648277Y-13964280D01*
X7648277Y-13964280D02*
X7667325Y-13973804D01*
X7667325Y-13973804D02*
X7676849Y-13992851D01*
X7676849Y-13992851D02*
X7676849Y-14097613D01*
X7800658Y-14097613D02*
X7781611Y-14088089D01*
X7781611Y-14088089D02*
X7772087Y-14078566D01*
X7772087Y-14078566D02*
X7762563Y-14059518D01*
X7762563Y-14059518D02*
X7762563Y-14002375D01*
X7762563Y-14002375D02*
X7772087Y-13983327D01*
X7772087Y-13983327D02*
X7781611Y-13973804D01*
X7781611Y-13973804D02*
X7800658Y-13964280D01*
X7800658Y-13964280D02*
X7829230Y-13964280D01*
X7829230Y-13964280D02*
X7848277Y-13973804D01*
X7848277Y-13973804D02*
X7857801Y-13983327D01*
X7857801Y-13983327D02*
X7867325Y-14002375D01*
X7867325Y-14002375D02*
X7867325Y-14059518D01*
X7867325Y-14059518D02*
X7857801Y-14078566D01*
X7857801Y-14078566D02*
X7848277Y-14088089D01*
X7848277Y-14088089D02*
X7829230Y-14097613D01*
X7829230Y-14097613D02*
X7800658Y-14097613D01*
X7924468Y-13964280D02*
X8000658Y-13964280D01*
X7953039Y-13897613D02*
X7953039Y-14069042D01*
X7953039Y-14069042D02*
X7962563Y-14088089D01*
X7962563Y-14088089D02*
X7981611Y-14097613D01*
X7981611Y-14097613D02*
X8000658Y-14097613D01*
X8219706Y-13964280D02*
X8219706Y-14164280D01*
X8219706Y-13973804D02*
X8238753Y-13964280D01*
X8238753Y-13964280D02*
X8276849Y-13964280D01*
X8276849Y-13964280D02*
X8295896Y-13973804D01*
X8295896Y-13973804D02*
X8305420Y-13983327D01*
X8305420Y-13983327D02*
X8314944Y-14002375D01*
X8314944Y-14002375D02*
X8314944Y-14059518D01*
X8314944Y-14059518D02*
X8305420Y-14078566D01*
X8305420Y-14078566D02*
X8295896Y-14088089D01*
X8295896Y-14088089D02*
X8276849Y-14097613D01*
X8276849Y-14097613D02*
X8238753Y-14097613D01*
X8238753Y-14097613D02*
X8219706Y-14088089D01*
X8429230Y-14097613D02*
X8410182Y-14088089D01*
X8410182Y-14088089D02*
X8400658Y-14069042D01*
X8400658Y-14069042D02*
X8400658Y-13897613D01*
X8591135Y-14097613D02*
X8591135Y-13992851D01*
X8591135Y-13992851D02*
X8581611Y-13973804D01*
X8581611Y-13973804D02*
X8562563Y-13964280D01*
X8562563Y-13964280D02*
X8524468Y-13964280D01*
X8524468Y-13964280D02*
X8505420Y-13973804D01*
X8591135Y-14088089D02*
X8572087Y-14097613D01*
X8572087Y-14097613D02*
X8524468Y-14097613D01*
X8524468Y-14097613D02*
X8505420Y-14088089D01*
X8505420Y-14088089D02*
X8495896Y-14069042D01*
X8495896Y-14069042D02*
X8495896Y-14049994D01*
X8495896Y-14049994D02*
X8505420Y-14030947D01*
X8505420Y-14030947D02*
X8524468Y-14021423D01*
X8524468Y-14021423D02*
X8572087Y-14021423D01*
X8572087Y-14021423D02*
X8591135Y-14011899D01*
X8657801Y-13964280D02*
X8733992Y-13964280D01*
X8686373Y-13897613D02*
X8686373Y-14069042D01*
X8686373Y-14069042D02*
X8695896Y-14088089D01*
X8695896Y-14088089D02*
X8714944Y-14097613D01*
X8714944Y-14097613D02*
X8733992Y-14097613D01*
X8876849Y-14088089D02*
X8857801Y-14097613D01*
X8857801Y-14097613D02*
X8819706Y-14097613D01*
X8819706Y-14097613D02*
X8800658Y-14088089D01*
X8800658Y-14088089D02*
X8791135Y-14069042D01*
X8791135Y-14069042D02*
X8791135Y-13992851D01*
X8791135Y-13992851D02*
X8800658Y-13973804D01*
X8800658Y-13973804D02*
X8819706Y-13964280D01*
X8819706Y-13964280D02*
X8857801Y-13964280D01*
X8857801Y-13964280D02*
X8876849Y-13973804D01*
X8876849Y-13973804D02*
X8886373Y-13992851D01*
X8886373Y-13992851D02*
X8886373Y-14011899D01*
X8886373Y-14011899D02*
X8791135Y-14030947D01*
X9057801Y-14097613D02*
X9057801Y-13897613D01*
X9057801Y-14088089D02*
X9038754Y-14097613D01*
X9038754Y-14097613D02*
X9000658Y-14097613D01*
X9000658Y-14097613D02*
X8981611Y-14088089D01*
X8981611Y-14088089D02*
X8972087Y-14078566D01*
X8972087Y-14078566D02*
X8962563Y-14059518D01*
X8962563Y-14059518D02*
X8962563Y-14002375D01*
X8962563Y-14002375D02*
X8972087Y-13983327D01*
X8972087Y-13983327D02*
X8981611Y-13973804D01*
X8981611Y-13973804D02*
X9000658Y-13964280D01*
X9000658Y-13964280D02*
X9038754Y-13964280D01*
X9038754Y-13964280D02*
X9057801Y-13973804D01*
X9133992Y-14173804D02*
X9143516Y-14164280D01*
X9143516Y-14164280D02*
X9162563Y-14135708D01*
X9162563Y-14135708D02*
X9172087Y-14116661D01*
X9172087Y-14116661D02*
X9181611Y-14088089D01*
X9181611Y-14088089D02*
X9191135Y-14040470D01*
X9191135Y-14040470D02*
X9191135Y-14002375D01*
X9191135Y-14002375D02*
X9181611Y-13954756D01*
X9181611Y-13954756D02*
X9172087Y-13926185D01*
X9172087Y-13926185D02*
X9162563Y-13907137D01*
X9162563Y-13907137D02*
X9143516Y-13878566D01*
X9143516Y-13878566D02*
X9133992Y-13869042D01*
D12*
X2187500Y-14270129D02*
G75*
G02*
X2087500Y-14270129I-50000J0D01*
G01*
X2087500Y-14270129D02*
G75*
G02*
X2187500Y-14270129I50000J0D01*
G01*
D11*
X2553039Y-14361613D02*
X2438753Y-14361613D01*
X2495896Y-14361613D02*
X2495896Y-14161613D01*
X2495896Y-14161613D02*
X2476848Y-14190185D01*
X2476848Y-14190185D02*
X2457801Y-14209232D01*
X2457801Y-14209232D02*
X2438753Y-14218756D01*
X2638753Y-14342566D02*
X2648277Y-14352089D01*
X2648277Y-14352089D02*
X2638753Y-14361613D01*
X2638753Y-14361613D02*
X2629229Y-14352089D01*
X2629229Y-14352089D02*
X2638753Y-14342566D01*
X2638753Y-14342566D02*
X2638753Y-14361613D01*
X2772086Y-14161613D02*
X2791134Y-14161613D01*
X2791134Y-14161613D02*
X2810182Y-14171137D01*
X2810182Y-14171137D02*
X2819705Y-14180661D01*
X2819705Y-14180661D02*
X2829229Y-14199708D01*
X2829229Y-14199708D02*
X2838753Y-14237804D01*
X2838753Y-14237804D02*
X2838753Y-14285423D01*
X2838753Y-14285423D02*
X2829229Y-14323518D01*
X2829229Y-14323518D02*
X2819705Y-14342566D01*
X2819705Y-14342566D02*
X2810182Y-14352089D01*
X2810182Y-14352089D02*
X2791134Y-14361613D01*
X2791134Y-14361613D02*
X2772086Y-14361613D01*
X2772086Y-14361613D02*
X2753039Y-14352089D01*
X2753039Y-14352089D02*
X2743515Y-14342566D01*
X2743515Y-14342566D02*
X2733991Y-14323518D01*
X2733991Y-14323518D02*
X2724467Y-14285423D01*
X2724467Y-14285423D02*
X2724467Y-14237804D01*
X2724467Y-14237804D02*
X2733991Y-14199708D01*
X2733991Y-14199708D02*
X2743515Y-14180661D01*
X2743515Y-14180661D02*
X2753039Y-14171137D01*
X2753039Y-14171137D02*
X2772086Y-14161613D01*
X2962562Y-14161613D02*
X2981610Y-14161613D01*
X2981610Y-14161613D02*
X3000658Y-14171137D01*
X3000658Y-14171137D02*
X3010182Y-14180661D01*
X3010182Y-14180661D02*
X3019705Y-14199708D01*
X3019705Y-14199708D02*
X3029229Y-14237804D01*
X3029229Y-14237804D02*
X3029229Y-14285423D01*
X3029229Y-14285423D02*
X3019705Y-14323518D01*
X3019705Y-14323518D02*
X3010182Y-14342566D01*
X3010182Y-14342566D02*
X3000658Y-14352089D01*
X3000658Y-14352089D02*
X2981610Y-14361613D01*
X2981610Y-14361613D02*
X2962562Y-14361613D01*
X2962562Y-14361613D02*
X2943515Y-14352089D01*
X2943515Y-14352089D02*
X2933991Y-14342566D01*
X2933991Y-14342566D02*
X2924467Y-14323518D01*
X2924467Y-14323518D02*
X2914943Y-14285423D01*
X2914943Y-14285423D02*
X2914943Y-14237804D01*
X2914943Y-14237804D02*
X2924467Y-14199708D01*
X2924467Y-14199708D02*
X2933991Y-14180661D01*
X2933991Y-14180661D02*
X2943515Y-14171137D01*
X2943515Y-14171137D02*
X2962562Y-14161613D01*
X3153039Y-14161613D02*
X3172086Y-14161613D01*
X3172086Y-14161613D02*
X3191134Y-14171137D01*
X3191134Y-14171137D02*
X3200658Y-14180661D01*
X3200658Y-14180661D02*
X3210182Y-14199708D01*
X3210182Y-14199708D02*
X3219705Y-14237804D01*
X3219705Y-14237804D02*
X3219705Y-14285423D01*
X3219705Y-14285423D02*
X3210182Y-14323518D01*
X3210182Y-14323518D02*
X3200658Y-14342566D01*
X3200658Y-14342566D02*
X3191134Y-14352089D01*
X3191134Y-14352089D02*
X3172086Y-14361613D01*
X3172086Y-14361613D02*
X3153039Y-14361613D01*
X3153039Y-14361613D02*
X3133991Y-14352089D01*
X3133991Y-14352089D02*
X3124467Y-14342566D01*
X3124467Y-14342566D02*
X3114943Y-14323518D01*
X3114943Y-14323518D02*
X3105420Y-14285423D01*
X3105420Y-14285423D02*
X3105420Y-14237804D01*
X3105420Y-14237804D02*
X3114943Y-14199708D01*
X3114943Y-14199708D02*
X3124467Y-14180661D01*
X3124467Y-14180661D02*
X3133991Y-14171137D01*
X3133991Y-14171137D02*
X3153039Y-14161613D01*
X3305420Y-14361613D02*
X3305420Y-14228280D01*
X3305420Y-14247327D02*
X3314943Y-14237804D01*
X3314943Y-14237804D02*
X3333991Y-14228280D01*
X3333991Y-14228280D02*
X3362563Y-14228280D01*
X3362563Y-14228280D02*
X3381610Y-14237804D01*
X3381610Y-14237804D02*
X3391134Y-14256851D01*
X3391134Y-14256851D02*
X3391134Y-14361613D01*
X3391134Y-14256851D02*
X3400658Y-14237804D01*
X3400658Y-14237804D02*
X3419705Y-14228280D01*
X3419705Y-14228280D02*
X3448277Y-14228280D01*
X3448277Y-14228280D02*
X3467324Y-14237804D01*
X3467324Y-14237804D02*
X3476848Y-14256851D01*
X3476848Y-14256851D02*
X3476848Y-14361613D01*
X3572086Y-14361613D02*
X3572086Y-14228280D01*
X3572086Y-14247327D02*
X3581610Y-14237804D01*
X3581610Y-14237804D02*
X3600658Y-14228280D01*
X3600658Y-14228280D02*
X3629229Y-14228280D01*
X3629229Y-14228280D02*
X3648277Y-14237804D01*
X3648277Y-14237804D02*
X3657801Y-14256851D01*
X3657801Y-14256851D02*
X3657801Y-14361613D01*
X3657801Y-14256851D02*
X3667324Y-14237804D01*
X3667324Y-14237804D02*
X3686372Y-14228280D01*
X3686372Y-14228280D02*
X3714943Y-14228280D01*
X3714943Y-14228280D02*
X3733991Y-14237804D01*
X3733991Y-14237804D02*
X3743515Y-14256851D01*
X3743515Y-14256851D02*
X3743515Y-14361613D01*
X4133991Y-14152089D02*
X3962563Y-14409232D01*
X4391134Y-14161613D02*
X4410182Y-14161613D01*
X4410182Y-14161613D02*
X4429229Y-14171137D01*
X4429229Y-14171137D02*
X4438753Y-14180661D01*
X4438753Y-14180661D02*
X4448277Y-14199708D01*
X4448277Y-14199708D02*
X4457801Y-14237804D01*
X4457801Y-14237804D02*
X4457801Y-14285423D01*
X4457801Y-14285423D02*
X4448277Y-14323518D01*
X4448277Y-14323518D02*
X4438753Y-14342566D01*
X4438753Y-14342566D02*
X4429229Y-14352089D01*
X4429229Y-14352089D02*
X4410182Y-14361613D01*
X4410182Y-14361613D02*
X4391134Y-14361613D01*
X4391134Y-14361613D02*
X4372087Y-14352089D01*
X4372087Y-14352089D02*
X4362563Y-14342566D01*
X4362563Y-14342566D02*
X4353039Y-14323518D01*
X4353039Y-14323518D02*
X4343515Y-14285423D01*
X4343515Y-14285423D02*
X4343515Y-14237804D01*
X4343515Y-14237804D02*
X4353039Y-14199708D01*
X4353039Y-14199708D02*
X4362563Y-14180661D01*
X4362563Y-14180661D02*
X4372087Y-14171137D01*
X4372087Y-14171137D02*
X4391134Y-14161613D01*
X4543515Y-14342566D02*
X4553039Y-14352089D01*
X4553039Y-14352089D02*
X4543515Y-14361613D01*
X4543515Y-14361613D02*
X4533991Y-14352089D01*
X4533991Y-14352089D02*
X4543515Y-14342566D01*
X4543515Y-14342566D02*
X4543515Y-14361613D01*
X4676848Y-14161613D02*
X4695896Y-14161613D01*
X4695896Y-14161613D02*
X4714944Y-14171137D01*
X4714944Y-14171137D02*
X4724468Y-14180661D01*
X4724468Y-14180661D02*
X4733991Y-14199708D01*
X4733991Y-14199708D02*
X4743515Y-14237804D01*
X4743515Y-14237804D02*
X4743515Y-14285423D01*
X4743515Y-14285423D02*
X4733991Y-14323518D01*
X4733991Y-14323518D02*
X4724468Y-14342566D01*
X4724468Y-14342566D02*
X4714944Y-14352089D01*
X4714944Y-14352089D02*
X4695896Y-14361613D01*
X4695896Y-14361613D02*
X4676848Y-14361613D01*
X4676848Y-14361613D02*
X4657801Y-14352089D01*
X4657801Y-14352089D02*
X4648277Y-14342566D01*
X4648277Y-14342566D02*
X4638753Y-14323518D01*
X4638753Y-14323518D02*
X4629229Y-14285423D01*
X4629229Y-14285423D02*
X4629229Y-14237804D01*
X4629229Y-14237804D02*
X4638753Y-14199708D01*
X4638753Y-14199708D02*
X4648277Y-14180661D01*
X4648277Y-14180661D02*
X4657801Y-14171137D01*
X4657801Y-14171137D02*
X4676848Y-14161613D01*
X4810182Y-14161613D02*
X4933991Y-14161613D01*
X4933991Y-14161613D02*
X4867325Y-14237804D01*
X4867325Y-14237804D02*
X4895896Y-14237804D01*
X4895896Y-14237804D02*
X4914944Y-14247327D01*
X4914944Y-14247327D02*
X4924468Y-14256851D01*
X4924468Y-14256851D02*
X4933991Y-14275899D01*
X4933991Y-14275899D02*
X4933991Y-14323518D01*
X4933991Y-14323518D02*
X4924468Y-14342566D01*
X4924468Y-14342566D02*
X4914944Y-14352089D01*
X4914944Y-14352089D02*
X4895896Y-14361613D01*
X4895896Y-14361613D02*
X4838753Y-14361613D01*
X4838753Y-14361613D02*
X4819706Y-14352089D01*
X4819706Y-14352089D02*
X4810182Y-14342566D01*
X5029229Y-14361613D02*
X5067325Y-14361613D01*
X5067325Y-14361613D02*
X5086372Y-14352089D01*
X5086372Y-14352089D02*
X5095896Y-14342566D01*
X5095896Y-14342566D02*
X5114944Y-14313994D01*
X5114944Y-14313994D02*
X5124468Y-14275899D01*
X5124468Y-14275899D02*
X5124468Y-14199708D01*
X5124468Y-14199708D02*
X5114944Y-14180661D01*
X5114944Y-14180661D02*
X5105420Y-14171137D01*
X5105420Y-14171137D02*
X5086372Y-14161613D01*
X5086372Y-14161613D02*
X5048277Y-14161613D01*
X5048277Y-14161613D02*
X5029229Y-14171137D01*
X5029229Y-14171137D02*
X5019706Y-14180661D01*
X5019706Y-14180661D02*
X5010182Y-14199708D01*
X5010182Y-14199708D02*
X5010182Y-14247327D01*
X5010182Y-14247327D02*
X5019706Y-14266375D01*
X5019706Y-14266375D02*
X5029229Y-14275899D01*
X5029229Y-14275899D02*
X5048277Y-14285423D01*
X5048277Y-14285423D02*
X5086372Y-14285423D01*
X5086372Y-14285423D02*
X5105420Y-14275899D01*
X5105420Y-14275899D02*
X5114944Y-14266375D01*
X5114944Y-14266375D02*
X5124468Y-14247327D01*
X5295896Y-14228280D02*
X5295896Y-14361613D01*
X5248277Y-14152089D02*
X5200658Y-14294947D01*
X5200658Y-14294947D02*
X5324468Y-14294947D01*
X5391134Y-14161613D02*
X5391134Y-14199708D01*
X5467325Y-14161613D02*
X5467325Y-14199708D01*
X5762563Y-14437804D02*
X5753039Y-14428280D01*
X5753039Y-14428280D02*
X5733991Y-14399708D01*
X5733991Y-14399708D02*
X5724468Y-14380661D01*
X5724468Y-14380661D02*
X5714944Y-14352089D01*
X5714944Y-14352089D02*
X5705420Y-14304470D01*
X5705420Y-14304470D02*
X5705420Y-14266375D01*
X5705420Y-14266375D02*
X5714944Y-14218756D01*
X5714944Y-14218756D02*
X5724468Y-14190185D01*
X5724468Y-14190185D02*
X5733991Y-14171137D01*
X5733991Y-14171137D02*
X5753039Y-14142566D01*
X5753039Y-14142566D02*
X5762563Y-14133042D01*
X5924468Y-14228280D02*
X5924468Y-14361613D01*
X5876848Y-14152089D02*
X5829229Y-14294947D01*
X5829229Y-14294947D02*
X5953039Y-14294947D01*
X6019706Y-14180661D02*
X6029229Y-14171137D01*
X6029229Y-14171137D02*
X6048277Y-14161613D01*
X6048277Y-14161613D02*
X6095896Y-14161613D01*
X6095896Y-14161613D02*
X6114944Y-14171137D01*
X6114944Y-14171137D02*
X6124468Y-14180661D01*
X6124468Y-14180661D02*
X6133991Y-14199708D01*
X6133991Y-14199708D02*
X6133991Y-14218756D01*
X6133991Y-14218756D02*
X6124468Y-14247327D01*
X6124468Y-14247327D02*
X6010182Y-14361613D01*
X6010182Y-14361613D02*
X6133991Y-14361613D01*
X6372087Y-14361613D02*
X6372087Y-14161613D01*
X6457801Y-14361613D02*
X6457801Y-14256851D01*
X6457801Y-14256851D02*
X6448277Y-14237804D01*
X6448277Y-14237804D02*
X6429230Y-14228280D01*
X6429230Y-14228280D02*
X6400658Y-14228280D01*
X6400658Y-14228280D02*
X6381610Y-14237804D01*
X6381610Y-14237804D02*
X6372087Y-14247327D01*
X6581610Y-14361613D02*
X6562563Y-14352089D01*
X6562563Y-14352089D02*
X6553039Y-14342566D01*
X6553039Y-14342566D02*
X6543515Y-14323518D01*
X6543515Y-14323518D02*
X6543515Y-14266375D01*
X6543515Y-14266375D02*
X6553039Y-14247327D01*
X6553039Y-14247327D02*
X6562563Y-14237804D01*
X6562563Y-14237804D02*
X6581610Y-14228280D01*
X6581610Y-14228280D02*
X6610182Y-14228280D01*
X6610182Y-14228280D02*
X6629230Y-14237804D01*
X6629230Y-14237804D02*
X6638753Y-14247327D01*
X6638753Y-14247327D02*
X6648277Y-14266375D01*
X6648277Y-14266375D02*
X6648277Y-14323518D01*
X6648277Y-14323518D02*
X6638753Y-14342566D01*
X6638753Y-14342566D02*
X6629230Y-14352089D01*
X6629230Y-14352089D02*
X6610182Y-14361613D01*
X6610182Y-14361613D02*
X6581610Y-14361613D01*
X6762563Y-14361613D02*
X6743515Y-14352089D01*
X6743515Y-14352089D02*
X6733991Y-14333042D01*
X6733991Y-14333042D02*
X6733991Y-14161613D01*
X6914944Y-14352089D02*
X6895896Y-14361613D01*
X6895896Y-14361613D02*
X6857801Y-14361613D01*
X6857801Y-14361613D02*
X6838753Y-14352089D01*
X6838753Y-14352089D02*
X6829230Y-14333042D01*
X6829230Y-14333042D02*
X6829230Y-14256851D01*
X6829230Y-14256851D02*
X6838753Y-14237804D01*
X6838753Y-14237804D02*
X6857801Y-14228280D01*
X6857801Y-14228280D02*
X6895896Y-14228280D01*
X6895896Y-14228280D02*
X6914944Y-14237804D01*
X6914944Y-14237804D02*
X6924468Y-14256851D01*
X6924468Y-14256851D02*
X6924468Y-14275899D01*
X6924468Y-14275899D02*
X6829230Y-14294947D01*
X7000658Y-14352089D02*
X7019706Y-14361613D01*
X7019706Y-14361613D02*
X7057801Y-14361613D01*
X7057801Y-14361613D02*
X7076849Y-14352089D01*
X7076849Y-14352089D02*
X7086372Y-14333042D01*
X7086372Y-14333042D02*
X7086372Y-14323518D01*
X7086372Y-14323518D02*
X7076849Y-14304470D01*
X7076849Y-14304470D02*
X7057801Y-14294947D01*
X7057801Y-14294947D02*
X7029230Y-14294947D01*
X7029230Y-14294947D02*
X7010182Y-14285423D01*
X7010182Y-14285423D02*
X7000658Y-14266375D01*
X7000658Y-14266375D02*
X7000658Y-14256851D01*
X7000658Y-14256851D02*
X7010182Y-14237804D01*
X7010182Y-14237804D02*
X7029230Y-14228280D01*
X7029230Y-14228280D02*
X7057801Y-14228280D01*
X7057801Y-14228280D02*
X7076849Y-14237804D01*
X7153039Y-14437804D02*
X7162563Y-14428280D01*
X7162563Y-14428280D02*
X7181611Y-14399708D01*
X7181611Y-14399708D02*
X7191134Y-14380661D01*
X7191134Y-14380661D02*
X7200658Y-14352089D01*
X7200658Y-14352089D02*
X7210182Y-14304470D01*
X7210182Y-14304470D02*
X7210182Y-14266375D01*
X7210182Y-14266375D02*
X7200658Y-14218756D01*
X7200658Y-14218756D02*
X7191134Y-14190185D01*
X7191134Y-14190185D02*
X7181611Y-14171137D01*
X7181611Y-14171137D02*
X7162563Y-14142566D01*
X7162563Y-14142566D02*
X7153039Y-14133042D01*
X7514944Y-14437804D02*
X7505420Y-14428280D01*
X7505420Y-14428280D02*
X7486372Y-14399708D01*
X7486372Y-14399708D02*
X7476849Y-14380661D01*
X7476849Y-14380661D02*
X7467325Y-14352089D01*
X7467325Y-14352089D02*
X7457801Y-14304470D01*
X7457801Y-14304470D02*
X7457801Y-14266375D01*
X7457801Y-14266375D02*
X7467325Y-14218756D01*
X7467325Y-14218756D02*
X7476849Y-14190185D01*
X7476849Y-14190185D02*
X7486372Y-14171137D01*
X7486372Y-14171137D02*
X7505420Y-14142566D01*
X7505420Y-14142566D02*
X7514944Y-14133042D01*
X7591134Y-14228280D02*
X7591134Y-14361613D01*
X7591134Y-14247327D02*
X7600658Y-14237804D01*
X7600658Y-14237804D02*
X7619706Y-14228280D01*
X7619706Y-14228280D02*
X7648277Y-14228280D01*
X7648277Y-14228280D02*
X7667325Y-14237804D01*
X7667325Y-14237804D02*
X7676849Y-14256851D01*
X7676849Y-14256851D02*
X7676849Y-14361613D01*
X7800658Y-14361613D02*
X7781611Y-14352089D01*
X7781611Y-14352089D02*
X7772087Y-14342566D01*
X7772087Y-14342566D02*
X7762563Y-14323518D01*
X7762563Y-14323518D02*
X7762563Y-14266375D01*
X7762563Y-14266375D02*
X7772087Y-14247327D01*
X7772087Y-14247327D02*
X7781611Y-14237804D01*
X7781611Y-14237804D02*
X7800658Y-14228280D01*
X7800658Y-14228280D02*
X7829230Y-14228280D01*
X7829230Y-14228280D02*
X7848277Y-14237804D01*
X7848277Y-14237804D02*
X7857801Y-14247327D01*
X7857801Y-14247327D02*
X7867325Y-14266375D01*
X7867325Y-14266375D02*
X7867325Y-14323518D01*
X7867325Y-14323518D02*
X7857801Y-14342566D01*
X7857801Y-14342566D02*
X7848277Y-14352089D01*
X7848277Y-14352089D02*
X7829230Y-14361613D01*
X7829230Y-14361613D02*
X7800658Y-14361613D01*
X7924468Y-14228280D02*
X8000658Y-14228280D01*
X7953039Y-14161613D02*
X7953039Y-14333042D01*
X7953039Y-14333042D02*
X7962563Y-14352089D01*
X7962563Y-14352089D02*
X7981611Y-14361613D01*
X7981611Y-14361613D02*
X8000658Y-14361613D01*
X8219706Y-14228280D02*
X8219706Y-14428280D01*
X8219706Y-14237804D02*
X8238753Y-14228280D01*
X8238753Y-14228280D02*
X8276849Y-14228280D01*
X8276849Y-14228280D02*
X8295896Y-14237804D01*
X8295896Y-14237804D02*
X8305420Y-14247327D01*
X8305420Y-14247327D02*
X8314944Y-14266375D01*
X8314944Y-14266375D02*
X8314944Y-14323518D01*
X8314944Y-14323518D02*
X8305420Y-14342566D01*
X8305420Y-14342566D02*
X8295896Y-14352089D01*
X8295896Y-14352089D02*
X8276849Y-14361613D01*
X8276849Y-14361613D02*
X8238753Y-14361613D01*
X8238753Y-14361613D02*
X8219706Y-14352089D01*
X8429230Y-14361613D02*
X8410182Y-14352089D01*
X8410182Y-14352089D02*
X8400658Y-14333042D01*
X8400658Y-14333042D02*
X8400658Y-14161613D01*
X8591135Y-14361613D02*
X8591135Y-14256851D01*
X8591135Y-14256851D02*
X8581611Y-14237804D01*
X8581611Y-14237804D02*
X8562563Y-14228280D01*
X8562563Y-14228280D02*
X8524468Y-14228280D01*
X8524468Y-14228280D02*
X8505420Y-14237804D01*
X8591135Y-14352089D02*
X8572087Y-14361613D01*
X8572087Y-14361613D02*
X8524468Y-14361613D01*
X8524468Y-14361613D02*
X8505420Y-14352089D01*
X8505420Y-14352089D02*
X8495896Y-14333042D01*
X8495896Y-14333042D02*
X8495896Y-14313994D01*
X8495896Y-14313994D02*
X8505420Y-14294947D01*
X8505420Y-14294947D02*
X8524468Y-14285423D01*
X8524468Y-14285423D02*
X8572087Y-14285423D01*
X8572087Y-14285423D02*
X8591135Y-14275899D01*
X8657801Y-14228280D02*
X8733992Y-14228280D01*
X8686373Y-14161613D02*
X8686373Y-14333042D01*
X8686373Y-14333042D02*
X8695896Y-14352089D01*
X8695896Y-14352089D02*
X8714944Y-14361613D01*
X8714944Y-14361613D02*
X8733992Y-14361613D01*
X8876849Y-14352089D02*
X8857801Y-14361613D01*
X8857801Y-14361613D02*
X8819706Y-14361613D01*
X8819706Y-14361613D02*
X8800658Y-14352089D01*
X8800658Y-14352089D02*
X8791135Y-14333042D01*
X8791135Y-14333042D02*
X8791135Y-14256851D01*
X8791135Y-14256851D02*
X8800658Y-14237804D01*
X8800658Y-14237804D02*
X8819706Y-14228280D01*
X8819706Y-14228280D02*
X8857801Y-14228280D01*
X8857801Y-14228280D02*
X8876849Y-14237804D01*
X8876849Y-14237804D02*
X8886373Y-14256851D01*
X8886373Y-14256851D02*
X8886373Y-14275899D01*
X8886373Y-14275899D02*
X8791135Y-14294947D01*
X9057801Y-14361613D02*
X9057801Y-14161613D01*
X9057801Y-14352089D02*
X9038754Y-14361613D01*
X9038754Y-14361613D02*
X9000658Y-14361613D01*
X9000658Y-14361613D02*
X8981611Y-14352089D01*
X8981611Y-14352089D02*
X8972087Y-14342566D01*
X8972087Y-14342566D02*
X8962563Y-14323518D01*
X8962563Y-14323518D02*
X8962563Y-14266375D01*
X8962563Y-14266375D02*
X8972087Y-14247327D01*
X8972087Y-14247327D02*
X8981611Y-14237804D01*
X8981611Y-14237804D02*
X9000658Y-14228280D01*
X9000658Y-14228280D02*
X9038754Y-14228280D01*
X9038754Y-14228280D02*
X9057801Y-14237804D01*
X9133992Y-14437804D02*
X9143516Y-14428280D01*
X9143516Y-14428280D02*
X9162563Y-14399708D01*
X9162563Y-14399708D02*
X9172087Y-14380661D01*
X9172087Y-14380661D02*
X9181611Y-14352089D01*
X9181611Y-14352089D02*
X9191135Y-14304470D01*
X9191135Y-14304470D02*
X9191135Y-14266375D01*
X9191135Y-14266375D02*
X9181611Y-14218756D01*
X9181611Y-14218756D02*
X9172087Y-14190185D01*
X9172087Y-14190185D02*
X9162563Y-14171137D01*
X9162563Y-14171137D02*
X9143516Y-14142566D01*
X9143516Y-14142566D02*
X9133992Y-14133042D01*
X2087500Y-14434129D02*
X2087500Y-14634129D01*
X1987500Y-14534129D02*
X2187500Y-14534129D01*
X2438753Y-14444661D02*
X2448277Y-14435137D01*
X2448277Y-14435137D02*
X2467324Y-14425613D01*
X2467324Y-14425613D02*
X2514944Y-14425613D01*
X2514944Y-14425613D02*
X2533991Y-14435137D01*
X2533991Y-14435137D02*
X2543515Y-14444661D01*
X2543515Y-14444661D02*
X2553039Y-14463708D01*
X2553039Y-14463708D02*
X2553039Y-14482756D01*
X2553039Y-14482756D02*
X2543515Y-14511327D01*
X2543515Y-14511327D02*
X2429229Y-14625613D01*
X2429229Y-14625613D02*
X2553039Y-14625613D01*
X2638753Y-14606566D02*
X2648277Y-14616089D01*
X2648277Y-14616089D02*
X2638753Y-14625613D01*
X2638753Y-14625613D02*
X2629229Y-14616089D01*
X2629229Y-14616089D02*
X2638753Y-14606566D01*
X2638753Y-14606566D02*
X2638753Y-14625613D01*
X2724467Y-14444661D02*
X2733991Y-14435137D01*
X2733991Y-14435137D02*
X2753039Y-14425613D01*
X2753039Y-14425613D02*
X2800658Y-14425613D01*
X2800658Y-14425613D02*
X2819705Y-14435137D01*
X2819705Y-14435137D02*
X2829229Y-14444661D01*
X2829229Y-14444661D02*
X2838753Y-14463708D01*
X2838753Y-14463708D02*
X2838753Y-14482756D01*
X2838753Y-14482756D02*
X2829229Y-14511327D01*
X2829229Y-14511327D02*
X2714944Y-14625613D01*
X2714944Y-14625613D02*
X2838753Y-14625613D01*
X2962562Y-14425613D02*
X2981610Y-14425613D01*
X2981610Y-14425613D02*
X3000658Y-14435137D01*
X3000658Y-14435137D02*
X3010182Y-14444661D01*
X3010182Y-14444661D02*
X3019705Y-14463708D01*
X3019705Y-14463708D02*
X3029229Y-14501804D01*
X3029229Y-14501804D02*
X3029229Y-14549423D01*
X3029229Y-14549423D02*
X3019705Y-14587518D01*
X3019705Y-14587518D02*
X3010182Y-14606566D01*
X3010182Y-14606566D02*
X3000658Y-14616089D01*
X3000658Y-14616089D02*
X2981610Y-14625613D01*
X2981610Y-14625613D02*
X2962562Y-14625613D01*
X2962562Y-14625613D02*
X2943515Y-14616089D01*
X2943515Y-14616089D02*
X2933991Y-14606566D01*
X2933991Y-14606566D02*
X2924467Y-14587518D01*
X2924467Y-14587518D02*
X2914943Y-14549423D01*
X2914943Y-14549423D02*
X2914943Y-14501804D01*
X2914943Y-14501804D02*
X2924467Y-14463708D01*
X2924467Y-14463708D02*
X2933991Y-14444661D01*
X2933991Y-14444661D02*
X2943515Y-14435137D01*
X2943515Y-14435137D02*
X2962562Y-14425613D01*
X3153039Y-14425613D02*
X3172086Y-14425613D01*
X3172086Y-14425613D02*
X3191134Y-14435137D01*
X3191134Y-14435137D02*
X3200658Y-14444661D01*
X3200658Y-14444661D02*
X3210182Y-14463708D01*
X3210182Y-14463708D02*
X3219705Y-14501804D01*
X3219705Y-14501804D02*
X3219705Y-14549423D01*
X3219705Y-14549423D02*
X3210182Y-14587518D01*
X3210182Y-14587518D02*
X3200658Y-14606566D01*
X3200658Y-14606566D02*
X3191134Y-14616089D01*
X3191134Y-14616089D02*
X3172086Y-14625613D01*
X3172086Y-14625613D02*
X3153039Y-14625613D01*
X3153039Y-14625613D02*
X3133991Y-14616089D01*
X3133991Y-14616089D02*
X3124467Y-14606566D01*
X3124467Y-14606566D02*
X3114943Y-14587518D01*
X3114943Y-14587518D02*
X3105420Y-14549423D01*
X3105420Y-14549423D02*
X3105420Y-14501804D01*
X3105420Y-14501804D02*
X3114943Y-14463708D01*
X3114943Y-14463708D02*
X3124467Y-14444661D01*
X3124467Y-14444661D02*
X3133991Y-14435137D01*
X3133991Y-14435137D02*
X3153039Y-14425613D01*
X3305420Y-14625613D02*
X3305420Y-14492280D01*
X3305420Y-14511327D02*
X3314943Y-14501804D01*
X3314943Y-14501804D02*
X3333991Y-14492280D01*
X3333991Y-14492280D02*
X3362563Y-14492280D01*
X3362563Y-14492280D02*
X3381610Y-14501804D01*
X3381610Y-14501804D02*
X3391134Y-14520851D01*
X3391134Y-14520851D02*
X3391134Y-14625613D01*
X3391134Y-14520851D02*
X3400658Y-14501804D01*
X3400658Y-14501804D02*
X3419705Y-14492280D01*
X3419705Y-14492280D02*
X3448277Y-14492280D01*
X3448277Y-14492280D02*
X3467324Y-14501804D01*
X3467324Y-14501804D02*
X3476848Y-14520851D01*
X3476848Y-14520851D02*
X3476848Y-14625613D01*
X3572086Y-14625613D02*
X3572086Y-14492280D01*
X3572086Y-14511327D02*
X3581610Y-14501804D01*
X3581610Y-14501804D02*
X3600658Y-14492280D01*
X3600658Y-14492280D02*
X3629229Y-14492280D01*
X3629229Y-14492280D02*
X3648277Y-14501804D01*
X3648277Y-14501804D02*
X3657801Y-14520851D01*
X3657801Y-14520851D02*
X3657801Y-14625613D01*
X3657801Y-14520851D02*
X3667324Y-14501804D01*
X3667324Y-14501804D02*
X3686372Y-14492280D01*
X3686372Y-14492280D02*
X3714943Y-14492280D01*
X3714943Y-14492280D02*
X3733991Y-14501804D01*
X3733991Y-14501804D02*
X3743515Y-14520851D01*
X3743515Y-14520851D02*
X3743515Y-14625613D01*
X4133991Y-14416089D02*
X3962563Y-14673232D01*
X4391134Y-14425613D02*
X4410182Y-14425613D01*
X4410182Y-14425613D02*
X4429229Y-14435137D01*
X4429229Y-14435137D02*
X4438753Y-14444661D01*
X4438753Y-14444661D02*
X4448277Y-14463708D01*
X4448277Y-14463708D02*
X4457801Y-14501804D01*
X4457801Y-14501804D02*
X4457801Y-14549423D01*
X4457801Y-14549423D02*
X4448277Y-14587518D01*
X4448277Y-14587518D02*
X4438753Y-14606566D01*
X4438753Y-14606566D02*
X4429229Y-14616089D01*
X4429229Y-14616089D02*
X4410182Y-14625613D01*
X4410182Y-14625613D02*
X4391134Y-14625613D01*
X4391134Y-14625613D02*
X4372087Y-14616089D01*
X4372087Y-14616089D02*
X4362563Y-14606566D01*
X4362563Y-14606566D02*
X4353039Y-14587518D01*
X4353039Y-14587518D02*
X4343515Y-14549423D01*
X4343515Y-14549423D02*
X4343515Y-14501804D01*
X4343515Y-14501804D02*
X4353039Y-14463708D01*
X4353039Y-14463708D02*
X4362563Y-14444661D01*
X4362563Y-14444661D02*
X4372087Y-14435137D01*
X4372087Y-14435137D02*
X4391134Y-14425613D01*
X4543515Y-14606566D02*
X4553039Y-14616089D01*
X4553039Y-14616089D02*
X4543515Y-14625613D01*
X4543515Y-14625613D02*
X4533991Y-14616089D01*
X4533991Y-14616089D02*
X4543515Y-14606566D01*
X4543515Y-14606566D02*
X4543515Y-14625613D01*
X4676848Y-14425613D02*
X4695896Y-14425613D01*
X4695896Y-14425613D02*
X4714944Y-14435137D01*
X4714944Y-14435137D02*
X4724468Y-14444661D01*
X4724468Y-14444661D02*
X4733991Y-14463708D01*
X4733991Y-14463708D02*
X4743515Y-14501804D01*
X4743515Y-14501804D02*
X4743515Y-14549423D01*
X4743515Y-14549423D02*
X4733991Y-14587518D01*
X4733991Y-14587518D02*
X4724468Y-14606566D01*
X4724468Y-14606566D02*
X4714944Y-14616089D01*
X4714944Y-14616089D02*
X4695896Y-14625613D01*
X4695896Y-14625613D02*
X4676848Y-14625613D01*
X4676848Y-14625613D02*
X4657801Y-14616089D01*
X4657801Y-14616089D02*
X4648277Y-14606566D01*
X4648277Y-14606566D02*
X4638753Y-14587518D01*
X4638753Y-14587518D02*
X4629229Y-14549423D01*
X4629229Y-14549423D02*
X4629229Y-14501804D01*
X4629229Y-14501804D02*
X4638753Y-14463708D01*
X4638753Y-14463708D02*
X4648277Y-14444661D01*
X4648277Y-14444661D02*
X4657801Y-14435137D01*
X4657801Y-14435137D02*
X4676848Y-14425613D01*
X4857801Y-14511327D02*
X4838753Y-14501804D01*
X4838753Y-14501804D02*
X4829229Y-14492280D01*
X4829229Y-14492280D02*
X4819706Y-14473232D01*
X4819706Y-14473232D02*
X4819706Y-14463708D01*
X4819706Y-14463708D02*
X4829229Y-14444661D01*
X4829229Y-14444661D02*
X4838753Y-14435137D01*
X4838753Y-14435137D02*
X4857801Y-14425613D01*
X4857801Y-14425613D02*
X4895896Y-14425613D01*
X4895896Y-14425613D02*
X4914944Y-14435137D01*
X4914944Y-14435137D02*
X4924468Y-14444661D01*
X4924468Y-14444661D02*
X4933991Y-14463708D01*
X4933991Y-14463708D02*
X4933991Y-14473232D01*
X4933991Y-14473232D02*
X4924468Y-14492280D01*
X4924468Y-14492280D02*
X4914944Y-14501804D01*
X4914944Y-14501804D02*
X4895896Y-14511327D01*
X4895896Y-14511327D02*
X4857801Y-14511327D01*
X4857801Y-14511327D02*
X4838753Y-14520851D01*
X4838753Y-14520851D02*
X4829229Y-14530375D01*
X4829229Y-14530375D02*
X4819706Y-14549423D01*
X4819706Y-14549423D02*
X4819706Y-14587518D01*
X4819706Y-14587518D02*
X4829229Y-14606566D01*
X4829229Y-14606566D02*
X4838753Y-14616089D01*
X4838753Y-14616089D02*
X4857801Y-14625613D01*
X4857801Y-14625613D02*
X4895896Y-14625613D01*
X4895896Y-14625613D02*
X4914944Y-14616089D01*
X4914944Y-14616089D02*
X4924468Y-14606566D01*
X4924468Y-14606566D02*
X4933991Y-14587518D01*
X4933991Y-14587518D02*
X4933991Y-14549423D01*
X4933991Y-14549423D02*
X4924468Y-14530375D01*
X4924468Y-14530375D02*
X4914944Y-14520851D01*
X4914944Y-14520851D02*
X4895896Y-14511327D01*
X5105420Y-14425613D02*
X5067325Y-14425613D01*
X5067325Y-14425613D02*
X5048277Y-14435137D01*
X5048277Y-14435137D02*
X5038753Y-14444661D01*
X5038753Y-14444661D02*
X5019706Y-14473232D01*
X5019706Y-14473232D02*
X5010182Y-14511327D01*
X5010182Y-14511327D02*
X5010182Y-14587518D01*
X5010182Y-14587518D02*
X5019706Y-14606566D01*
X5019706Y-14606566D02*
X5029229Y-14616089D01*
X5029229Y-14616089D02*
X5048277Y-14625613D01*
X5048277Y-14625613D02*
X5086372Y-14625613D01*
X5086372Y-14625613D02*
X5105420Y-14616089D01*
X5105420Y-14616089D02*
X5114944Y-14606566D01*
X5114944Y-14606566D02*
X5124468Y-14587518D01*
X5124468Y-14587518D02*
X5124468Y-14539899D01*
X5124468Y-14539899D02*
X5114944Y-14520851D01*
X5114944Y-14520851D02*
X5105420Y-14511327D01*
X5105420Y-14511327D02*
X5086372Y-14501804D01*
X5086372Y-14501804D02*
X5048277Y-14501804D01*
X5048277Y-14501804D02*
X5029229Y-14511327D01*
X5029229Y-14511327D02*
X5019706Y-14520851D01*
X5019706Y-14520851D02*
X5010182Y-14539899D01*
X5295896Y-14425613D02*
X5257801Y-14425613D01*
X5257801Y-14425613D02*
X5238753Y-14435137D01*
X5238753Y-14435137D02*
X5229229Y-14444661D01*
X5229229Y-14444661D02*
X5210182Y-14473232D01*
X5210182Y-14473232D02*
X5200658Y-14511327D01*
X5200658Y-14511327D02*
X5200658Y-14587518D01*
X5200658Y-14587518D02*
X5210182Y-14606566D01*
X5210182Y-14606566D02*
X5219706Y-14616089D01*
X5219706Y-14616089D02*
X5238753Y-14625613D01*
X5238753Y-14625613D02*
X5276849Y-14625613D01*
X5276849Y-14625613D02*
X5295896Y-14616089D01*
X5295896Y-14616089D02*
X5305420Y-14606566D01*
X5305420Y-14606566D02*
X5314944Y-14587518D01*
X5314944Y-14587518D02*
X5314944Y-14539899D01*
X5314944Y-14539899D02*
X5305420Y-14520851D01*
X5305420Y-14520851D02*
X5295896Y-14511327D01*
X5295896Y-14511327D02*
X5276849Y-14501804D01*
X5276849Y-14501804D02*
X5238753Y-14501804D01*
X5238753Y-14501804D02*
X5219706Y-14511327D01*
X5219706Y-14511327D02*
X5210182Y-14520851D01*
X5210182Y-14520851D02*
X5200658Y-14539899D01*
X5391134Y-14425613D02*
X5391134Y-14463708D01*
X5467325Y-14425613D02*
X5467325Y-14463708D01*
X5762563Y-14701804D02*
X5753039Y-14692280D01*
X5753039Y-14692280D02*
X5733991Y-14663708D01*
X5733991Y-14663708D02*
X5724468Y-14644661D01*
X5724468Y-14644661D02*
X5714944Y-14616089D01*
X5714944Y-14616089D02*
X5705420Y-14568470D01*
X5705420Y-14568470D02*
X5705420Y-14530375D01*
X5705420Y-14530375D02*
X5714944Y-14482756D01*
X5714944Y-14482756D02*
X5724468Y-14454185D01*
X5724468Y-14454185D02*
X5733991Y-14435137D01*
X5733991Y-14435137D02*
X5753039Y-14406566D01*
X5753039Y-14406566D02*
X5762563Y-14397042D01*
X5829229Y-14444661D02*
X5838753Y-14435137D01*
X5838753Y-14435137D02*
X5857801Y-14425613D01*
X5857801Y-14425613D02*
X5905420Y-14425613D01*
X5905420Y-14425613D02*
X5924468Y-14435137D01*
X5924468Y-14435137D02*
X5933991Y-14444661D01*
X5933991Y-14444661D02*
X5943515Y-14463708D01*
X5943515Y-14463708D02*
X5943515Y-14482756D01*
X5943515Y-14482756D02*
X5933991Y-14511327D01*
X5933991Y-14511327D02*
X5819706Y-14625613D01*
X5819706Y-14625613D02*
X5943515Y-14625613D01*
X6181610Y-14625613D02*
X6181610Y-14425613D01*
X6267325Y-14625613D02*
X6267325Y-14520851D01*
X6267325Y-14520851D02*
X6257801Y-14501804D01*
X6257801Y-14501804D02*
X6238753Y-14492280D01*
X6238753Y-14492280D02*
X6210182Y-14492280D01*
X6210182Y-14492280D02*
X6191134Y-14501804D01*
X6191134Y-14501804D02*
X6181610Y-14511327D01*
X6391134Y-14625613D02*
X6372087Y-14616089D01*
X6372087Y-14616089D02*
X6362563Y-14606566D01*
X6362563Y-14606566D02*
X6353039Y-14587518D01*
X6353039Y-14587518D02*
X6353039Y-14530375D01*
X6353039Y-14530375D02*
X6362563Y-14511327D01*
X6362563Y-14511327D02*
X6372087Y-14501804D01*
X6372087Y-14501804D02*
X6391134Y-14492280D01*
X6391134Y-14492280D02*
X6419706Y-14492280D01*
X6419706Y-14492280D02*
X6438753Y-14501804D01*
X6438753Y-14501804D02*
X6448277Y-14511327D01*
X6448277Y-14511327D02*
X6457801Y-14530375D01*
X6457801Y-14530375D02*
X6457801Y-14587518D01*
X6457801Y-14587518D02*
X6448277Y-14606566D01*
X6448277Y-14606566D02*
X6438753Y-14616089D01*
X6438753Y-14616089D02*
X6419706Y-14625613D01*
X6419706Y-14625613D02*
X6391134Y-14625613D01*
X6572087Y-14625613D02*
X6553039Y-14616089D01*
X6553039Y-14616089D02*
X6543515Y-14597042D01*
X6543515Y-14597042D02*
X6543515Y-14425613D01*
X6724468Y-14616089D02*
X6705420Y-14625613D01*
X6705420Y-14625613D02*
X6667325Y-14625613D01*
X6667325Y-14625613D02*
X6648277Y-14616089D01*
X6648277Y-14616089D02*
X6638753Y-14597042D01*
X6638753Y-14597042D02*
X6638753Y-14520851D01*
X6638753Y-14520851D02*
X6648277Y-14501804D01*
X6648277Y-14501804D02*
X6667325Y-14492280D01*
X6667325Y-14492280D02*
X6705420Y-14492280D01*
X6705420Y-14492280D02*
X6724468Y-14501804D01*
X6724468Y-14501804D02*
X6733991Y-14520851D01*
X6733991Y-14520851D02*
X6733991Y-14539899D01*
X6733991Y-14539899D02*
X6638753Y-14558947D01*
X6810182Y-14616089D02*
X6829230Y-14625613D01*
X6829230Y-14625613D02*
X6867325Y-14625613D01*
X6867325Y-14625613D02*
X6886372Y-14616089D01*
X6886372Y-14616089D02*
X6895896Y-14597042D01*
X6895896Y-14597042D02*
X6895896Y-14587518D01*
X6895896Y-14587518D02*
X6886372Y-14568470D01*
X6886372Y-14568470D02*
X6867325Y-14558947D01*
X6867325Y-14558947D02*
X6838753Y-14558947D01*
X6838753Y-14558947D02*
X6819706Y-14549423D01*
X6819706Y-14549423D02*
X6810182Y-14530375D01*
X6810182Y-14530375D02*
X6810182Y-14520851D01*
X6810182Y-14520851D02*
X6819706Y-14501804D01*
X6819706Y-14501804D02*
X6838753Y-14492280D01*
X6838753Y-14492280D02*
X6867325Y-14492280D01*
X6867325Y-14492280D02*
X6886372Y-14501804D01*
X6962563Y-14701804D02*
X6972087Y-14692280D01*
X6972087Y-14692280D02*
X6991134Y-14663708D01*
X6991134Y-14663708D02*
X7000658Y-14644661D01*
X7000658Y-14644661D02*
X7010182Y-14616089D01*
X7010182Y-14616089D02*
X7019706Y-14568470D01*
X7019706Y-14568470D02*
X7019706Y-14530375D01*
X7019706Y-14530375D02*
X7010182Y-14482756D01*
X7010182Y-14482756D02*
X7000658Y-14454185D01*
X7000658Y-14454185D02*
X6991134Y-14435137D01*
X6991134Y-14435137D02*
X6972087Y-14406566D01*
X6972087Y-14406566D02*
X6962563Y-14397042D01*
X7324468Y-14701804D02*
X7314944Y-14692280D01*
X7314944Y-14692280D02*
X7295896Y-14663708D01*
X7295896Y-14663708D02*
X7286372Y-14644661D01*
X7286372Y-14644661D02*
X7276849Y-14616089D01*
X7276849Y-14616089D02*
X7267325Y-14568470D01*
X7267325Y-14568470D02*
X7267325Y-14530375D01*
X7267325Y-14530375D02*
X7276849Y-14482756D01*
X7276849Y-14482756D02*
X7286372Y-14454185D01*
X7286372Y-14454185D02*
X7295896Y-14435137D01*
X7295896Y-14435137D02*
X7314944Y-14406566D01*
X7314944Y-14406566D02*
X7324468Y-14397042D01*
X7400658Y-14492280D02*
X7400658Y-14625613D01*
X7400658Y-14511327D02*
X7410182Y-14501804D01*
X7410182Y-14501804D02*
X7429230Y-14492280D01*
X7429230Y-14492280D02*
X7457801Y-14492280D01*
X7457801Y-14492280D02*
X7476849Y-14501804D01*
X7476849Y-14501804D02*
X7486372Y-14520851D01*
X7486372Y-14520851D02*
X7486372Y-14625613D01*
X7610182Y-14625613D02*
X7591134Y-14616089D01*
X7591134Y-14616089D02*
X7581611Y-14606566D01*
X7581611Y-14606566D02*
X7572087Y-14587518D01*
X7572087Y-14587518D02*
X7572087Y-14530375D01*
X7572087Y-14530375D02*
X7581611Y-14511327D01*
X7581611Y-14511327D02*
X7591134Y-14501804D01*
X7591134Y-14501804D02*
X7610182Y-14492280D01*
X7610182Y-14492280D02*
X7638753Y-14492280D01*
X7638753Y-14492280D02*
X7657801Y-14501804D01*
X7657801Y-14501804D02*
X7667325Y-14511327D01*
X7667325Y-14511327D02*
X7676849Y-14530375D01*
X7676849Y-14530375D02*
X7676849Y-14587518D01*
X7676849Y-14587518D02*
X7667325Y-14606566D01*
X7667325Y-14606566D02*
X7657801Y-14616089D01*
X7657801Y-14616089D02*
X7638753Y-14625613D01*
X7638753Y-14625613D02*
X7610182Y-14625613D01*
X7733992Y-14492280D02*
X7810182Y-14492280D01*
X7762563Y-14425613D02*
X7762563Y-14597042D01*
X7762563Y-14597042D02*
X7772087Y-14616089D01*
X7772087Y-14616089D02*
X7791134Y-14625613D01*
X7791134Y-14625613D02*
X7810182Y-14625613D01*
X8029230Y-14492280D02*
X8029230Y-14692280D01*
X8029230Y-14501804D02*
X8048277Y-14492280D01*
X8048277Y-14492280D02*
X8086373Y-14492280D01*
X8086373Y-14492280D02*
X8105420Y-14501804D01*
X8105420Y-14501804D02*
X8114944Y-14511327D01*
X8114944Y-14511327D02*
X8124468Y-14530375D01*
X8124468Y-14530375D02*
X8124468Y-14587518D01*
X8124468Y-14587518D02*
X8114944Y-14606566D01*
X8114944Y-14606566D02*
X8105420Y-14616089D01*
X8105420Y-14616089D02*
X8086373Y-14625613D01*
X8086373Y-14625613D02*
X8048277Y-14625613D01*
X8048277Y-14625613D02*
X8029230Y-14616089D01*
X8238753Y-14625613D02*
X8219706Y-14616089D01*
X8219706Y-14616089D02*
X8210182Y-14597042D01*
X8210182Y-14597042D02*
X8210182Y-14425613D01*
X8400658Y-14625613D02*
X8400658Y-14520851D01*
X8400658Y-14520851D02*
X8391135Y-14501804D01*
X8391135Y-14501804D02*
X8372087Y-14492280D01*
X8372087Y-14492280D02*
X8333992Y-14492280D01*
X8333992Y-14492280D02*
X8314944Y-14501804D01*
X8400658Y-14616089D02*
X8381611Y-14625613D01*
X8381611Y-14625613D02*
X8333992Y-14625613D01*
X8333992Y-14625613D02*
X8314944Y-14616089D01*
X8314944Y-14616089D02*
X8305420Y-14597042D01*
X8305420Y-14597042D02*
X8305420Y-14577994D01*
X8305420Y-14577994D02*
X8314944Y-14558947D01*
X8314944Y-14558947D02*
X8333992Y-14549423D01*
X8333992Y-14549423D02*
X8381611Y-14549423D01*
X8381611Y-14549423D02*
X8400658Y-14539899D01*
X8467325Y-14492280D02*
X8543515Y-14492280D01*
X8495896Y-14425613D02*
X8495896Y-14597042D01*
X8495896Y-14597042D02*
X8505420Y-14616089D01*
X8505420Y-14616089D02*
X8524468Y-14625613D01*
X8524468Y-14625613D02*
X8543515Y-14625613D01*
X8686373Y-14616089D02*
X8667325Y-14625613D01*
X8667325Y-14625613D02*
X8629230Y-14625613D01*
X8629230Y-14625613D02*
X8610182Y-14616089D01*
X8610182Y-14616089D02*
X8600658Y-14597042D01*
X8600658Y-14597042D02*
X8600658Y-14520851D01*
X8600658Y-14520851D02*
X8610182Y-14501804D01*
X8610182Y-14501804D02*
X8629230Y-14492280D01*
X8629230Y-14492280D02*
X8667325Y-14492280D01*
X8667325Y-14492280D02*
X8686373Y-14501804D01*
X8686373Y-14501804D02*
X8695896Y-14520851D01*
X8695896Y-14520851D02*
X8695896Y-14539899D01*
X8695896Y-14539899D02*
X8600658Y-14558947D01*
X8867325Y-14625613D02*
X8867325Y-14425613D01*
X8867325Y-14616089D02*
X8848277Y-14625613D01*
X8848277Y-14625613D02*
X8810182Y-14625613D01*
X8810182Y-14625613D02*
X8791135Y-14616089D01*
X8791135Y-14616089D02*
X8781611Y-14606566D01*
X8781611Y-14606566D02*
X8772087Y-14587518D01*
X8772087Y-14587518D02*
X8772087Y-14530375D01*
X8772087Y-14530375D02*
X8781611Y-14511327D01*
X8781611Y-14511327D02*
X8791135Y-14501804D01*
X8791135Y-14501804D02*
X8810182Y-14492280D01*
X8810182Y-14492280D02*
X8848277Y-14492280D01*
X8848277Y-14492280D02*
X8867325Y-14501804D01*
X8943516Y-14701804D02*
X8953039Y-14692280D01*
X8953039Y-14692280D02*
X8972087Y-14663708D01*
X8972087Y-14663708D02*
X8981611Y-14644661D01*
X8981611Y-14644661D02*
X8991135Y-14616089D01*
X8991135Y-14616089D02*
X9000658Y-14568470D01*
X9000658Y-14568470D02*
X9000658Y-14530375D01*
X9000658Y-14530375D02*
X8991135Y-14482756D01*
X8991135Y-14482756D02*
X8981611Y-14454185D01*
X8981611Y-14454185D02*
X8972087Y-14435137D01*
X8972087Y-14435137D02*
X8953039Y-14406566D01*
X8953039Y-14406566D02*
X8943516Y-14397042D01*
X2158211Y-14924841D02*
X2158211Y-14783418D01*
X2016789Y-14783418D01*
X2016789Y-14924841D01*
X2158211Y-14924841D01*
X2429229Y-14745613D02*
X2553039Y-14745613D01*
X2553039Y-14745613D02*
X2486372Y-14821804D01*
X2486372Y-14821804D02*
X2514944Y-14821804D01*
X2514944Y-14821804D02*
X2533991Y-14831327D01*
X2533991Y-14831327D02*
X2543515Y-14840851D01*
X2543515Y-14840851D02*
X2553039Y-14859899D01*
X2553039Y-14859899D02*
X2553039Y-14907518D01*
X2553039Y-14907518D02*
X2543515Y-14926566D01*
X2543515Y-14926566D02*
X2533991Y-14936089D01*
X2533991Y-14936089D02*
X2514944Y-14945613D01*
X2514944Y-14945613D02*
X2457801Y-14945613D01*
X2457801Y-14945613D02*
X2438753Y-14936089D01*
X2438753Y-14936089D02*
X2429229Y-14926566D01*
X2638753Y-14926566D02*
X2648277Y-14936089D01*
X2648277Y-14936089D02*
X2638753Y-14945613D01*
X2638753Y-14945613D02*
X2629229Y-14936089D01*
X2629229Y-14936089D02*
X2638753Y-14926566D01*
X2638753Y-14926566D02*
X2638753Y-14945613D01*
X2772086Y-14745613D02*
X2791134Y-14745613D01*
X2791134Y-14745613D02*
X2810182Y-14755137D01*
X2810182Y-14755137D02*
X2819705Y-14764661D01*
X2819705Y-14764661D02*
X2829229Y-14783708D01*
X2829229Y-14783708D02*
X2838753Y-14821804D01*
X2838753Y-14821804D02*
X2838753Y-14869423D01*
X2838753Y-14869423D02*
X2829229Y-14907518D01*
X2829229Y-14907518D02*
X2819705Y-14926566D01*
X2819705Y-14926566D02*
X2810182Y-14936089D01*
X2810182Y-14936089D02*
X2791134Y-14945613D01*
X2791134Y-14945613D02*
X2772086Y-14945613D01*
X2772086Y-14945613D02*
X2753039Y-14936089D01*
X2753039Y-14936089D02*
X2743515Y-14926566D01*
X2743515Y-14926566D02*
X2733991Y-14907518D01*
X2733991Y-14907518D02*
X2724467Y-14869423D01*
X2724467Y-14869423D02*
X2724467Y-14821804D01*
X2724467Y-14821804D02*
X2733991Y-14783708D01*
X2733991Y-14783708D02*
X2743515Y-14764661D01*
X2743515Y-14764661D02*
X2753039Y-14755137D01*
X2753039Y-14755137D02*
X2772086Y-14745613D01*
X2962562Y-14745613D02*
X2981610Y-14745613D01*
X2981610Y-14745613D02*
X3000658Y-14755137D01*
X3000658Y-14755137D02*
X3010182Y-14764661D01*
X3010182Y-14764661D02*
X3019705Y-14783708D01*
X3019705Y-14783708D02*
X3029229Y-14821804D01*
X3029229Y-14821804D02*
X3029229Y-14869423D01*
X3029229Y-14869423D02*
X3019705Y-14907518D01*
X3019705Y-14907518D02*
X3010182Y-14926566D01*
X3010182Y-14926566D02*
X3000658Y-14936089D01*
X3000658Y-14936089D02*
X2981610Y-14945613D01*
X2981610Y-14945613D02*
X2962562Y-14945613D01*
X2962562Y-14945613D02*
X2943515Y-14936089D01*
X2943515Y-14936089D02*
X2933991Y-14926566D01*
X2933991Y-14926566D02*
X2924467Y-14907518D01*
X2924467Y-14907518D02*
X2914943Y-14869423D01*
X2914943Y-14869423D02*
X2914943Y-14821804D01*
X2914943Y-14821804D02*
X2924467Y-14783708D01*
X2924467Y-14783708D02*
X2933991Y-14764661D01*
X2933991Y-14764661D02*
X2943515Y-14755137D01*
X2943515Y-14755137D02*
X2962562Y-14745613D01*
X3153039Y-14745613D02*
X3172086Y-14745613D01*
X3172086Y-14745613D02*
X3191134Y-14755137D01*
X3191134Y-14755137D02*
X3200658Y-14764661D01*
X3200658Y-14764661D02*
X3210182Y-14783708D01*
X3210182Y-14783708D02*
X3219705Y-14821804D01*
X3219705Y-14821804D02*
X3219705Y-14869423D01*
X3219705Y-14869423D02*
X3210182Y-14907518D01*
X3210182Y-14907518D02*
X3200658Y-14926566D01*
X3200658Y-14926566D02*
X3191134Y-14936089D01*
X3191134Y-14936089D02*
X3172086Y-14945613D01*
X3172086Y-14945613D02*
X3153039Y-14945613D01*
X3153039Y-14945613D02*
X3133991Y-14936089D01*
X3133991Y-14936089D02*
X3124467Y-14926566D01*
X3124467Y-14926566D02*
X3114943Y-14907518D01*
X3114943Y-14907518D02*
X3105420Y-14869423D01*
X3105420Y-14869423D02*
X3105420Y-14821804D01*
X3105420Y-14821804D02*
X3114943Y-14783708D01*
X3114943Y-14783708D02*
X3124467Y-14764661D01*
X3124467Y-14764661D02*
X3133991Y-14755137D01*
X3133991Y-14755137D02*
X3153039Y-14745613D01*
X3305420Y-14945613D02*
X3305420Y-14812280D01*
X3305420Y-14831327D02*
X3314943Y-14821804D01*
X3314943Y-14821804D02*
X3333991Y-14812280D01*
X3333991Y-14812280D02*
X3362563Y-14812280D01*
X3362563Y-14812280D02*
X3381610Y-14821804D01*
X3381610Y-14821804D02*
X3391134Y-14840851D01*
X3391134Y-14840851D02*
X3391134Y-14945613D01*
X3391134Y-14840851D02*
X3400658Y-14821804D01*
X3400658Y-14821804D02*
X3419705Y-14812280D01*
X3419705Y-14812280D02*
X3448277Y-14812280D01*
X3448277Y-14812280D02*
X3467324Y-14821804D01*
X3467324Y-14821804D02*
X3476848Y-14840851D01*
X3476848Y-14840851D02*
X3476848Y-14945613D01*
X3572086Y-14945613D02*
X3572086Y-14812280D01*
X3572086Y-14831327D02*
X3581610Y-14821804D01*
X3581610Y-14821804D02*
X3600658Y-14812280D01*
X3600658Y-14812280D02*
X3629229Y-14812280D01*
X3629229Y-14812280D02*
X3648277Y-14821804D01*
X3648277Y-14821804D02*
X3657801Y-14840851D01*
X3657801Y-14840851D02*
X3657801Y-14945613D01*
X3657801Y-14840851D02*
X3667324Y-14821804D01*
X3667324Y-14821804D02*
X3686372Y-14812280D01*
X3686372Y-14812280D02*
X3714943Y-14812280D01*
X3714943Y-14812280D02*
X3733991Y-14821804D01*
X3733991Y-14821804D02*
X3743515Y-14840851D01*
X3743515Y-14840851D02*
X3743515Y-14945613D01*
X4133991Y-14736089D02*
X3962563Y-14993232D01*
X4391134Y-14745613D02*
X4410182Y-14745613D01*
X4410182Y-14745613D02*
X4429229Y-14755137D01*
X4429229Y-14755137D02*
X4438753Y-14764661D01*
X4438753Y-14764661D02*
X4448277Y-14783708D01*
X4448277Y-14783708D02*
X4457801Y-14821804D01*
X4457801Y-14821804D02*
X4457801Y-14869423D01*
X4457801Y-14869423D02*
X4448277Y-14907518D01*
X4448277Y-14907518D02*
X4438753Y-14926566D01*
X4438753Y-14926566D02*
X4429229Y-14936089D01*
X4429229Y-14936089D02*
X4410182Y-14945613D01*
X4410182Y-14945613D02*
X4391134Y-14945613D01*
X4391134Y-14945613D02*
X4372087Y-14936089D01*
X4372087Y-14936089D02*
X4362563Y-14926566D01*
X4362563Y-14926566D02*
X4353039Y-14907518D01*
X4353039Y-14907518D02*
X4343515Y-14869423D01*
X4343515Y-14869423D02*
X4343515Y-14821804D01*
X4343515Y-14821804D02*
X4353039Y-14783708D01*
X4353039Y-14783708D02*
X4362563Y-14764661D01*
X4362563Y-14764661D02*
X4372087Y-14755137D01*
X4372087Y-14755137D02*
X4391134Y-14745613D01*
X4543515Y-14926566D02*
X4553039Y-14936089D01*
X4553039Y-14936089D02*
X4543515Y-14945613D01*
X4543515Y-14945613D02*
X4533991Y-14936089D01*
X4533991Y-14936089D02*
X4543515Y-14926566D01*
X4543515Y-14926566D02*
X4543515Y-14945613D01*
X4743515Y-14945613D02*
X4629229Y-14945613D01*
X4686372Y-14945613D02*
X4686372Y-14745613D01*
X4686372Y-14745613D02*
X4667325Y-14774185D01*
X4667325Y-14774185D02*
X4648277Y-14793232D01*
X4648277Y-14793232D02*
X4629229Y-14802756D01*
X4933991Y-14945613D02*
X4819706Y-14945613D01*
X4876848Y-14945613D02*
X4876848Y-14745613D01*
X4876848Y-14745613D02*
X4857801Y-14774185D01*
X4857801Y-14774185D02*
X4838753Y-14793232D01*
X4838753Y-14793232D02*
X4819706Y-14802756D01*
X5048277Y-14831327D02*
X5029229Y-14821804D01*
X5029229Y-14821804D02*
X5019706Y-14812280D01*
X5019706Y-14812280D02*
X5010182Y-14793232D01*
X5010182Y-14793232D02*
X5010182Y-14783708D01*
X5010182Y-14783708D02*
X5019706Y-14764661D01*
X5019706Y-14764661D02*
X5029229Y-14755137D01*
X5029229Y-14755137D02*
X5048277Y-14745613D01*
X5048277Y-14745613D02*
X5086372Y-14745613D01*
X5086372Y-14745613D02*
X5105420Y-14755137D01*
X5105420Y-14755137D02*
X5114944Y-14764661D01*
X5114944Y-14764661D02*
X5124468Y-14783708D01*
X5124468Y-14783708D02*
X5124468Y-14793232D01*
X5124468Y-14793232D02*
X5114944Y-14812280D01*
X5114944Y-14812280D02*
X5105420Y-14821804D01*
X5105420Y-14821804D02*
X5086372Y-14831327D01*
X5086372Y-14831327D02*
X5048277Y-14831327D01*
X5048277Y-14831327D02*
X5029229Y-14840851D01*
X5029229Y-14840851D02*
X5019706Y-14850375D01*
X5019706Y-14850375D02*
X5010182Y-14869423D01*
X5010182Y-14869423D02*
X5010182Y-14907518D01*
X5010182Y-14907518D02*
X5019706Y-14926566D01*
X5019706Y-14926566D02*
X5029229Y-14936089D01*
X5029229Y-14936089D02*
X5048277Y-14945613D01*
X5048277Y-14945613D02*
X5086372Y-14945613D01*
X5086372Y-14945613D02*
X5105420Y-14936089D01*
X5105420Y-14936089D02*
X5114944Y-14926566D01*
X5114944Y-14926566D02*
X5124468Y-14907518D01*
X5124468Y-14907518D02*
X5124468Y-14869423D01*
X5124468Y-14869423D02*
X5114944Y-14850375D01*
X5114944Y-14850375D02*
X5105420Y-14840851D01*
X5105420Y-14840851D02*
X5086372Y-14831327D01*
X5314944Y-14945613D02*
X5200658Y-14945613D01*
X5257801Y-14945613D02*
X5257801Y-14745613D01*
X5257801Y-14745613D02*
X5238753Y-14774185D01*
X5238753Y-14774185D02*
X5219706Y-14793232D01*
X5219706Y-14793232D02*
X5200658Y-14802756D01*
X5391134Y-14745613D02*
X5391134Y-14783708D01*
X5467325Y-14745613D02*
X5467325Y-14783708D01*
X5762563Y-15021804D02*
X5753039Y-15012280D01*
X5753039Y-15012280D02*
X5733991Y-14983708D01*
X5733991Y-14983708D02*
X5724468Y-14964661D01*
X5724468Y-14964661D02*
X5714944Y-14936089D01*
X5714944Y-14936089D02*
X5705420Y-14888470D01*
X5705420Y-14888470D02*
X5705420Y-14850375D01*
X5705420Y-14850375D02*
X5714944Y-14802756D01*
X5714944Y-14802756D02*
X5724468Y-14774185D01*
X5724468Y-14774185D02*
X5733991Y-14755137D01*
X5733991Y-14755137D02*
X5753039Y-14726566D01*
X5753039Y-14726566D02*
X5762563Y-14717042D01*
X5867325Y-14831327D02*
X5848277Y-14821804D01*
X5848277Y-14821804D02*
X5838753Y-14812280D01*
X5838753Y-14812280D02*
X5829229Y-14793232D01*
X5829229Y-14793232D02*
X5829229Y-14783708D01*
X5829229Y-14783708D02*
X5838753Y-14764661D01*
X5838753Y-14764661D02*
X5848277Y-14755137D01*
X5848277Y-14755137D02*
X5867325Y-14745613D01*
X5867325Y-14745613D02*
X5905420Y-14745613D01*
X5905420Y-14745613D02*
X5924468Y-14755137D01*
X5924468Y-14755137D02*
X5933991Y-14764661D01*
X5933991Y-14764661D02*
X5943515Y-14783708D01*
X5943515Y-14783708D02*
X5943515Y-14793232D01*
X5943515Y-14793232D02*
X5933991Y-14812280D01*
X5933991Y-14812280D02*
X5924468Y-14821804D01*
X5924468Y-14821804D02*
X5905420Y-14831327D01*
X5905420Y-14831327D02*
X5867325Y-14831327D01*
X5867325Y-14831327D02*
X5848277Y-14840851D01*
X5848277Y-14840851D02*
X5838753Y-14850375D01*
X5838753Y-14850375D02*
X5829229Y-14869423D01*
X5829229Y-14869423D02*
X5829229Y-14907518D01*
X5829229Y-14907518D02*
X5838753Y-14926566D01*
X5838753Y-14926566D02*
X5848277Y-14936089D01*
X5848277Y-14936089D02*
X5867325Y-14945613D01*
X5867325Y-14945613D02*
X5905420Y-14945613D01*
X5905420Y-14945613D02*
X5924468Y-14936089D01*
X5924468Y-14936089D02*
X5933991Y-14926566D01*
X5933991Y-14926566D02*
X5943515Y-14907518D01*
X5943515Y-14907518D02*
X5943515Y-14869423D01*
X5943515Y-14869423D02*
X5933991Y-14850375D01*
X5933991Y-14850375D02*
X5924468Y-14840851D01*
X5924468Y-14840851D02*
X5905420Y-14831327D01*
X6114944Y-14812280D02*
X6114944Y-14945613D01*
X6067325Y-14736089D02*
X6019706Y-14878947D01*
X6019706Y-14878947D02*
X6143515Y-14878947D01*
X6372087Y-14945613D02*
X6372087Y-14745613D01*
X6457801Y-14945613D02*
X6457801Y-14840851D01*
X6457801Y-14840851D02*
X6448277Y-14821804D01*
X6448277Y-14821804D02*
X6429230Y-14812280D01*
X6429230Y-14812280D02*
X6400658Y-14812280D01*
X6400658Y-14812280D02*
X6381610Y-14821804D01*
X6381610Y-14821804D02*
X6372087Y-14831327D01*
X6581610Y-14945613D02*
X6562563Y-14936089D01*
X6562563Y-14936089D02*
X6553039Y-14926566D01*
X6553039Y-14926566D02*
X6543515Y-14907518D01*
X6543515Y-14907518D02*
X6543515Y-14850375D01*
X6543515Y-14850375D02*
X6553039Y-14831327D01*
X6553039Y-14831327D02*
X6562563Y-14821804D01*
X6562563Y-14821804D02*
X6581610Y-14812280D01*
X6581610Y-14812280D02*
X6610182Y-14812280D01*
X6610182Y-14812280D02*
X6629230Y-14821804D01*
X6629230Y-14821804D02*
X6638753Y-14831327D01*
X6638753Y-14831327D02*
X6648277Y-14850375D01*
X6648277Y-14850375D02*
X6648277Y-14907518D01*
X6648277Y-14907518D02*
X6638753Y-14926566D01*
X6638753Y-14926566D02*
X6629230Y-14936089D01*
X6629230Y-14936089D02*
X6610182Y-14945613D01*
X6610182Y-14945613D02*
X6581610Y-14945613D01*
X6762563Y-14945613D02*
X6743515Y-14936089D01*
X6743515Y-14936089D02*
X6733991Y-14917042D01*
X6733991Y-14917042D02*
X6733991Y-14745613D01*
X6914944Y-14936089D02*
X6895896Y-14945613D01*
X6895896Y-14945613D02*
X6857801Y-14945613D01*
X6857801Y-14945613D02*
X6838753Y-14936089D01*
X6838753Y-14936089D02*
X6829230Y-14917042D01*
X6829230Y-14917042D02*
X6829230Y-14840851D01*
X6829230Y-14840851D02*
X6838753Y-14821804D01*
X6838753Y-14821804D02*
X6857801Y-14812280D01*
X6857801Y-14812280D02*
X6895896Y-14812280D01*
X6895896Y-14812280D02*
X6914944Y-14821804D01*
X6914944Y-14821804D02*
X6924468Y-14840851D01*
X6924468Y-14840851D02*
X6924468Y-14859899D01*
X6924468Y-14859899D02*
X6829230Y-14878947D01*
X7000658Y-14936089D02*
X7019706Y-14945613D01*
X7019706Y-14945613D02*
X7057801Y-14945613D01*
X7057801Y-14945613D02*
X7076849Y-14936089D01*
X7076849Y-14936089D02*
X7086372Y-14917042D01*
X7086372Y-14917042D02*
X7086372Y-14907518D01*
X7086372Y-14907518D02*
X7076849Y-14888470D01*
X7076849Y-14888470D02*
X7057801Y-14878947D01*
X7057801Y-14878947D02*
X7029230Y-14878947D01*
X7029230Y-14878947D02*
X7010182Y-14869423D01*
X7010182Y-14869423D02*
X7000658Y-14850375D01*
X7000658Y-14850375D02*
X7000658Y-14840851D01*
X7000658Y-14840851D02*
X7010182Y-14821804D01*
X7010182Y-14821804D02*
X7029230Y-14812280D01*
X7029230Y-14812280D02*
X7057801Y-14812280D01*
X7057801Y-14812280D02*
X7076849Y-14821804D01*
X7153039Y-15021804D02*
X7162563Y-15012280D01*
X7162563Y-15012280D02*
X7181611Y-14983708D01*
X7181611Y-14983708D02*
X7191134Y-14964661D01*
X7191134Y-14964661D02*
X7200658Y-14936089D01*
X7200658Y-14936089D02*
X7210182Y-14888470D01*
X7210182Y-14888470D02*
X7210182Y-14850375D01*
X7210182Y-14850375D02*
X7200658Y-14802756D01*
X7200658Y-14802756D02*
X7191134Y-14774185D01*
X7191134Y-14774185D02*
X7181611Y-14755137D01*
X7181611Y-14755137D02*
X7162563Y-14726566D01*
X7162563Y-14726566D02*
X7153039Y-14717042D01*
X7514944Y-15021804D02*
X7505420Y-15012280D01*
X7505420Y-15012280D02*
X7486372Y-14983708D01*
X7486372Y-14983708D02*
X7476849Y-14964661D01*
X7476849Y-14964661D02*
X7467325Y-14936089D01*
X7467325Y-14936089D02*
X7457801Y-14888470D01*
X7457801Y-14888470D02*
X7457801Y-14850375D01*
X7457801Y-14850375D02*
X7467325Y-14802756D01*
X7467325Y-14802756D02*
X7476849Y-14774185D01*
X7476849Y-14774185D02*
X7486372Y-14755137D01*
X7486372Y-14755137D02*
X7505420Y-14726566D01*
X7505420Y-14726566D02*
X7514944Y-14717042D01*
X7591134Y-14812280D02*
X7591134Y-14945613D01*
X7591134Y-14831327D02*
X7600658Y-14821804D01*
X7600658Y-14821804D02*
X7619706Y-14812280D01*
X7619706Y-14812280D02*
X7648277Y-14812280D01*
X7648277Y-14812280D02*
X7667325Y-14821804D01*
X7667325Y-14821804D02*
X7676849Y-14840851D01*
X7676849Y-14840851D02*
X7676849Y-14945613D01*
X7800658Y-14945613D02*
X7781611Y-14936089D01*
X7781611Y-14936089D02*
X7772087Y-14926566D01*
X7772087Y-14926566D02*
X7762563Y-14907518D01*
X7762563Y-14907518D02*
X7762563Y-14850375D01*
X7762563Y-14850375D02*
X7772087Y-14831327D01*
X7772087Y-14831327D02*
X7781611Y-14821804D01*
X7781611Y-14821804D02*
X7800658Y-14812280D01*
X7800658Y-14812280D02*
X7829230Y-14812280D01*
X7829230Y-14812280D02*
X7848277Y-14821804D01*
X7848277Y-14821804D02*
X7857801Y-14831327D01*
X7857801Y-14831327D02*
X7867325Y-14850375D01*
X7867325Y-14850375D02*
X7867325Y-14907518D01*
X7867325Y-14907518D02*
X7857801Y-14926566D01*
X7857801Y-14926566D02*
X7848277Y-14936089D01*
X7848277Y-14936089D02*
X7829230Y-14945613D01*
X7829230Y-14945613D02*
X7800658Y-14945613D01*
X7924468Y-14812280D02*
X8000658Y-14812280D01*
X7953039Y-14745613D02*
X7953039Y-14917042D01*
X7953039Y-14917042D02*
X7962563Y-14936089D01*
X7962563Y-14936089D02*
X7981611Y-14945613D01*
X7981611Y-14945613D02*
X8000658Y-14945613D01*
X8219706Y-14812280D02*
X8219706Y-15012280D01*
X8219706Y-14821804D02*
X8238753Y-14812280D01*
X8238753Y-14812280D02*
X8276849Y-14812280D01*
X8276849Y-14812280D02*
X8295896Y-14821804D01*
X8295896Y-14821804D02*
X8305420Y-14831327D01*
X8305420Y-14831327D02*
X8314944Y-14850375D01*
X8314944Y-14850375D02*
X8314944Y-14907518D01*
X8314944Y-14907518D02*
X8305420Y-14926566D01*
X8305420Y-14926566D02*
X8295896Y-14936089D01*
X8295896Y-14936089D02*
X8276849Y-14945613D01*
X8276849Y-14945613D02*
X8238753Y-14945613D01*
X8238753Y-14945613D02*
X8219706Y-14936089D01*
X8429230Y-14945613D02*
X8410182Y-14936089D01*
X8410182Y-14936089D02*
X8400658Y-14917042D01*
X8400658Y-14917042D02*
X8400658Y-14745613D01*
X8591135Y-14945613D02*
X8591135Y-14840851D01*
X8591135Y-14840851D02*
X8581611Y-14821804D01*
X8581611Y-14821804D02*
X8562563Y-14812280D01*
X8562563Y-14812280D02*
X8524468Y-14812280D01*
X8524468Y-14812280D02*
X8505420Y-14821804D01*
X8591135Y-14936089D02*
X8572087Y-14945613D01*
X8572087Y-14945613D02*
X8524468Y-14945613D01*
X8524468Y-14945613D02*
X8505420Y-14936089D01*
X8505420Y-14936089D02*
X8495896Y-14917042D01*
X8495896Y-14917042D02*
X8495896Y-14897994D01*
X8495896Y-14897994D02*
X8505420Y-14878947D01*
X8505420Y-14878947D02*
X8524468Y-14869423D01*
X8524468Y-14869423D02*
X8572087Y-14869423D01*
X8572087Y-14869423D02*
X8591135Y-14859899D01*
X8657801Y-14812280D02*
X8733992Y-14812280D01*
X8686373Y-14745613D02*
X8686373Y-14917042D01*
X8686373Y-14917042D02*
X8695896Y-14936089D01*
X8695896Y-14936089D02*
X8714944Y-14945613D01*
X8714944Y-14945613D02*
X8733992Y-14945613D01*
X8876849Y-14936089D02*
X8857801Y-14945613D01*
X8857801Y-14945613D02*
X8819706Y-14945613D01*
X8819706Y-14945613D02*
X8800658Y-14936089D01*
X8800658Y-14936089D02*
X8791135Y-14917042D01*
X8791135Y-14917042D02*
X8791135Y-14840851D01*
X8791135Y-14840851D02*
X8800658Y-14821804D01*
X8800658Y-14821804D02*
X8819706Y-14812280D01*
X8819706Y-14812280D02*
X8857801Y-14812280D01*
X8857801Y-14812280D02*
X8876849Y-14821804D01*
X8876849Y-14821804D02*
X8886373Y-14840851D01*
X8886373Y-14840851D02*
X8886373Y-14859899D01*
X8886373Y-14859899D02*
X8791135Y-14878947D01*
X9057801Y-14945613D02*
X9057801Y-14745613D01*
X9057801Y-14936089D02*
X9038754Y-14945613D01*
X9038754Y-14945613D02*
X9000658Y-14945613D01*
X9000658Y-14945613D02*
X8981611Y-14936089D01*
X8981611Y-14936089D02*
X8972087Y-14926566D01*
X8972087Y-14926566D02*
X8962563Y-14907518D01*
X8962563Y-14907518D02*
X8962563Y-14850375D01*
X8962563Y-14850375D02*
X8972087Y-14831327D01*
X8972087Y-14831327D02*
X8981611Y-14821804D01*
X8981611Y-14821804D02*
X9000658Y-14812280D01*
X9000658Y-14812280D02*
X9038754Y-14812280D01*
X9038754Y-14812280D02*
X9057801Y-14821804D01*
X9133992Y-15021804D02*
X9143516Y-15012280D01*
X9143516Y-15012280D02*
X9162563Y-14983708D01*
X9162563Y-14983708D02*
X9172087Y-14964661D01*
X9172087Y-14964661D02*
X9181611Y-14936089D01*
X9181611Y-14936089D02*
X9191135Y-14888470D01*
X9191135Y-14888470D02*
X9191135Y-14850375D01*
X9191135Y-14850375D02*
X9181611Y-14802756D01*
X9181611Y-14802756D02*
X9172087Y-14774185D01*
X9172087Y-14774185D02*
X9162563Y-14755137D01*
X9162563Y-14755137D02*
X9143516Y-14726566D01*
X9143516Y-14726566D02*
X9133992Y-14717042D01*
X2087500Y-15274129D02*
X2187500Y-15174129D01*
X2087500Y-15074129D01*
X1987500Y-15174129D01*
X2087500Y-15274129D01*
X2533991Y-15132280D02*
X2533991Y-15265613D01*
X2486372Y-15056089D02*
X2438753Y-15198947D01*
X2438753Y-15198947D02*
X2562563Y-15198947D01*
X2638753Y-15246566D02*
X2648277Y-15256089D01*
X2648277Y-15256089D02*
X2638753Y-15265613D01*
X2638753Y-15265613D02*
X2629229Y-15256089D01*
X2629229Y-15256089D02*
X2638753Y-15246566D01*
X2638753Y-15246566D02*
X2638753Y-15265613D01*
X2762563Y-15151327D02*
X2743515Y-15141804D01*
X2743515Y-15141804D02*
X2733991Y-15132280D01*
X2733991Y-15132280D02*
X2724467Y-15113232D01*
X2724467Y-15113232D02*
X2724467Y-15103708D01*
X2724467Y-15103708D02*
X2733991Y-15084661D01*
X2733991Y-15084661D02*
X2743515Y-15075137D01*
X2743515Y-15075137D02*
X2762563Y-15065613D01*
X2762563Y-15065613D02*
X2800658Y-15065613D01*
X2800658Y-15065613D02*
X2819705Y-15075137D01*
X2819705Y-15075137D02*
X2829229Y-15084661D01*
X2829229Y-15084661D02*
X2838753Y-15103708D01*
X2838753Y-15103708D02*
X2838753Y-15113232D01*
X2838753Y-15113232D02*
X2829229Y-15132280D01*
X2829229Y-15132280D02*
X2819705Y-15141804D01*
X2819705Y-15141804D02*
X2800658Y-15151327D01*
X2800658Y-15151327D02*
X2762563Y-15151327D01*
X2762563Y-15151327D02*
X2743515Y-15160851D01*
X2743515Y-15160851D02*
X2733991Y-15170375D01*
X2733991Y-15170375D02*
X2724467Y-15189423D01*
X2724467Y-15189423D02*
X2724467Y-15227518D01*
X2724467Y-15227518D02*
X2733991Y-15246566D01*
X2733991Y-15246566D02*
X2743515Y-15256089D01*
X2743515Y-15256089D02*
X2762563Y-15265613D01*
X2762563Y-15265613D02*
X2800658Y-15265613D01*
X2800658Y-15265613D02*
X2819705Y-15256089D01*
X2819705Y-15256089D02*
X2829229Y-15246566D01*
X2829229Y-15246566D02*
X2838753Y-15227518D01*
X2838753Y-15227518D02*
X2838753Y-15189423D01*
X2838753Y-15189423D02*
X2829229Y-15170375D01*
X2829229Y-15170375D02*
X2819705Y-15160851D01*
X2819705Y-15160851D02*
X2800658Y-15151327D01*
X2962562Y-15065613D02*
X2981610Y-15065613D01*
X2981610Y-15065613D02*
X3000658Y-15075137D01*
X3000658Y-15075137D02*
X3010182Y-15084661D01*
X3010182Y-15084661D02*
X3019705Y-15103708D01*
X3019705Y-15103708D02*
X3029229Y-15141804D01*
X3029229Y-15141804D02*
X3029229Y-15189423D01*
X3029229Y-15189423D02*
X3019705Y-15227518D01*
X3019705Y-15227518D02*
X3010182Y-15246566D01*
X3010182Y-15246566D02*
X3000658Y-15256089D01*
X3000658Y-15256089D02*
X2981610Y-15265613D01*
X2981610Y-15265613D02*
X2962562Y-15265613D01*
X2962562Y-15265613D02*
X2943515Y-15256089D01*
X2943515Y-15256089D02*
X2933991Y-15246566D01*
X2933991Y-15246566D02*
X2924467Y-15227518D01*
X2924467Y-15227518D02*
X2914943Y-15189423D01*
X2914943Y-15189423D02*
X2914943Y-15141804D01*
X2914943Y-15141804D02*
X2924467Y-15103708D01*
X2924467Y-15103708D02*
X2933991Y-15084661D01*
X2933991Y-15084661D02*
X2943515Y-15075137D01*
X2943515Y-15075137D02*
X2962562Y-15065613D01*
X3153039Y-15065613D02*
X3172086Y-15065613D01*
X3172086Y-15065613D02*
X3191134Y-15075137D01*
X3191134Y-15075137D02*
X3200658Y-15084661D01*
X3200658Y-15084661D02*
X3210182Y-15103708D01*
X3210182Y-15103708D02*
X3219705Y-15141804D01*
X3219705Y-15141804D02*
X3219705Y-15189423D01*
X3219705Y-15189423D02*
X3210182Y-15227518D01*
X3210182Y-15227518D02*
X3200658Y-15246566D01*
X3200658Y-15246566D02*
X3191134Y-15256089D01*
X3191134Y-15256089D02*
X3172086Y-15265613D01*
X3172086Y-15265613D02*
X3153039Y-15265613D01*
X3153039Y-15265613D02*
X3133991Y-15256089D01*
X3133991Y-15256089D02*
X3124467Y-15246566D01*
X3124467Y-15246566D02*
X3114943Y-15227518D01*
X3114943Y-15227518D02*
X3105420Y-15189423D01*
X3105420Y-15189423D02*
X3105420Y-15141804D01*
X3105420Y-15141804D02*
X3114943Y-15103708D01*
X3114943Y-15103708D02*
X3124467Y-15084661D01*
X3124467Y-15084661D02*
X3133991Y-15075137D01*
X3133991Y-15075137D02*
X3153039Y-15065613D01*
X3305420Y-15265613D02*
X3305420Y-15132280D01*
X3305420Y-15151327D02*
X3314943Y-15141804D01*
X3314943Y-15141804D02*
X3333991Y-15132280D01*
X3333991Y-15132280D02*
X3362563Y-15132280D01*
X3362563Y-15132280D02*
X3381610Y-15141804D01*
X3381610Y-15141804D02*
X3391134Y-15160851D01*
X3391134Y-15160851D02*
X3391134Y-15265613D01*
X3391134Y-15160851D02*
X3400658Y-15141804D01*
X3400658Y-15141804D02*
X3419705Y-15132280D01*
X3419705Y-15132280D02*
X3448277Y-15132280D01*
X3448277Y-15132280D02*
X3467324Y-15141804D01*
X3467324Y-15141804D02*
X3476848Y-15160851D01*
X3476848Y-15160851D02*
X3476848Y-15265613D01*
X3572086Y-15265613D02*
X3572086Y-15132280D01*
X3572086Y-15151327D02*
X3581610Y-15141804D01*
X3581610Y-15141804D02*
X3600658Y-15132280D01*
X3600658Y-15132280D02*
X3629229Y-15132280D01*
X3629229Y-15132280D02*
X3648277Y-15141804D01*
X3648277Y-15141804D02*
X3657801Y-15160851D01*
X3657801Y-15160851D02*
X3657801Y-15265613D01*
X3657801Y-15160851D02*
X3667324Y-15141804D01*
X3667324Y-15141804D02*
X3686372Y-15132280D01*
X3686372Y-15132280D02*
X3714943Y-15132280D01*
X3714943Y-15132280D02*
X3733991Y-15141804D01*
X3733991Y-15141804D02*
X3743515Y-15160851D01*
X3743515Y-15160851D02*
X3743515Y-15265613D01*
X4133991Y-15056089D02*
X3962563Y-15313232D01*
X4391134Y-15065613D02*
X4410182Y-15065613D01*
X4410182Y-15065613D02*
X4429229Y-15075137D01*
X4429229Y-15075137D02*
X4438753Y-15084661D01*
X4438753Y-15084661D02*
X4448277Y-15103708D01*
X4448277Y-15103708D02*
X4457801Y-15141804D01*
X4457801Y-15141804D02*
X4457801Y-15189423D01*
X4457801Y-15189423D02*
X4448277Y-15227518D01*
X4448277Y-15227518D02*
X4438753Y-15246566D01*
X4438753Y-15246566D02*
X4429229Y-15256089D01*
X4429229Y-15256089D02*
X4410182Y-15265613D01*
X4410182Y-15265613D02*
X4391134Y-15265613D01*
X4391134Y-15265613D02*
X4372087Y-15256089D01*
X4372087Y-15256089D02*
X4362563Y-15246566D01*
X4362563Y-15246566D02*
X4353039Y-15227518D01*
X4353039Y-15227518D02*
X4343515Y-15189423D01*
X4343515Y-15189423D02*
X4343515Y-15141804D01*
X4343515Y-15141804D02*
X4353039Y-15103708D01*
X4353039Y-15103708D02*
X4362563Y-15084661D01*
X4362563Y-15084661D02*
X4372087Y-15075137D01*
X4372087Y-15075137D02*
X4391134Y-15065613D01*
X4543515Y-15246566D02*
X4553039Y-15256089D01*
X4553039Y-15256089D02*
X4543515Y-15265613D01*
X4543515Y-15265613D02*
X4533991Y-15256089D01*
X4533991Y-15256089D02*
X4543515Y-15246566D01*
X4543515Y-15246566D02*
X4543515Y-15265613D01*
X4743515Y-15265613D02*
X4629229Y-15265613D01*
X4686372Y-15265613D02*
X4686372Y-15065613D01*
X4686372Y-15065613D02*
X4667325Y-15094185D01*
X4667325Y-15094185D02*
X4648277Y-15113232D01*
X4648277Y-15113232D02*
X4629229Y-15122756D01*
X4857801Y-15151327D02*
X4838753Y-15141804D01*
X4838753Y-15141804D02*
X4829229Y-15132280D01*
X4829229Y-15132280D02*
X4819706Y-15113232D01*
X4819706Y-15113232D02*
X4819706Y-15103708D01*
X4819706Y-15103708D02*
X4829229Y-15084661D01*
X4829229Y-15084661D02*
X4838753Y-15075137D01*
X4838753Y-15075137D02*
X4857801Y-15065613D01*
X4857801Y-15065613D02*
X4895896Y-15065613D01*
X4895896Y-15065613D02*
X4914944Y-15075137D01*
X4914944Y-15075137D02*
X4924468Y-15084661D01*
X4924468Y-15084661D02*
X4933991Y-15103708D01*
X4933991Y-15103708D02*
X4933991Y-15113232D01*
X4933991Y-15113232D02*
X4924468Y-15132280D01*
X4924468Y-15132280D02*
X4914944Y-15141804D01*
X4914944Y-15141804D02*
X4895896Y-15151327D01*
X4895896Y-15151327D02*
X4857801Y-15151327D01*
X4857801Y-15151327D02*
X4838753Y-15160851D01*
X4838753Y-15160851D02*
X4829229Y-15170375D01*
X4829229Y-15170375D02*
X4819706Y-15189423D01*
X4819706Y-15189423D02*
X4819706Y-15227518D01*
X4819706Y-15227518D02*
X4829229Y-15246566D01*
X4829229Y-15246566D02*
X4838753Y-15256089D01*
X4838753Y-15256089D02*
X4857801Y-15265613D01*
X4857801Y-15265613D02*
X4895896Y-15265613D01*
X4895896Y-15265613D02*
X4914944Y-15256089D01*
X4914944Y-15256089D02*
X4924468Y-15246566D01*
X4924468Y-15246566D02*
X4933991Y-15227518D01*
X4933991Y-15227518D02*
X4933991Y-15189423D01*
X4933991Y-15189423D02*
X4924468Y-15170375D01*
X4924468Y-15170375D02*
X4914944Y-15160851D01*
X4914944Y-15160851D02*
X4895896Y-15151327D01*
X5029229Y-15265613D02*
X5067325Y-15265613D01*
X5067325Y-15265613D02*
X5086372Y-15256089D01*
X5086372Y-15256089D02*
X5095896Y-15246566D01*
X5095896Y-15246566D02*
X5114944Y-15217994D01*
X5114944Y-15217994D02*
X5124468Y-15179899D01*
X5124468Y-15179899D02*
X5124468Y-15103708D01*
X5124468Y-15103708D02*
X5114944Y-15084661D01*
X5114944Y-15084661D02*
X5105420Y-15075137D01*
X5105420Y-15075137D02*
X5086372Y-15065613D01*
X5086372Y-15065613D02*
X5048277Y-15065613D01*
X5048277Y-15065613D02*
X5029229Y-15075137D01*
X5029229Y-15075137D02*
X5019706Y-15084661D01*
X5019706Y-15084661D02*
X5010182Y-15103708D01*
X5010182Y-15103708D02*
X5010182Y-15151327D01*
X5010182Y-15151327D02*
X5019706Y-15170375D01*
X5019706Y-15170375D02*
X5029229Y-15179899D01*
X5029229Y-15179899D02*
X5048277Y-15189423D01*
X5048277Y-15189423D02*
X5086372Y-15189423D01*
X5086372Y-15189423D02*
X5105420Y-15179899D01*
X5105420Y-15179899D02*
X5114944Y-15170375D01*
X5114944Y-15170375D02*
X5124468Y-15151327D01*
X5248277Y-15065613D02*
X5267325Y-15065613D01*
X5267325Y-15065613D02*
X5286372Y-15075137D01*
X5286372Y-15075137D02*
X5295896Y-15084661D01*
X5295896Y-15084661D02*
X5305420Y-15103708D01*
X5305420Y-15103708D02*
X5314944Y-15141804D01*
X5314944Y-15141804D02*
X5314944Y-15189423D01*
X5314944Y-15189423D02*
X5305420Y-15227518D01*
X5305420Y-15227518D02*
X5295896Y-15246566D01*
X5295896Y-15246566D02*
X5286372Y-15256089D01*
X5286372Y-15256089D02*
X5267325Y-15265613D01*
X5267325Y-15265613D02*
X5248277Y-15265613D01*
X5248277Y-15265613D02*
X5229229Y-15256089D01*
X5229229Y-15256089D02*
X5219706Y-15246566D01*
X5219706Y-15246566D02*
X5210182Y-15227518D01*
X5210182Y-15227518D02*
X5200658Y-15189423D01*
X5200658Y-15189423D02*
X5200658Y-15141804D01*
X5200658Y-15141804D02*
X5210182Y-15103708D01*
X5210182Y-15103708D02*
X5219706Y-15084661D01*
X5219706Y-15084661D02*
X5229229Y-15075137D01*
X5229229Y-15075137D02*
X5248277Y-15065613D01*
X5391134Y-15065613D02*
X5391134Y-15103708D01*
X5467325Y-15065613D02*
X5467325Y-15103708D01*
X5762563Y-15341804D02*
X5753039Y-15332280D01*
X5753039Y-15332280D02*
X5733991Y-15303708D01*
X5733991Y-15303708D02*
X5724468Y-15284661D01*
X5724468Y-15284661D02*
X5714944Y-15256089D01*
X5714944Y-15256089D02*
X5705420Y-15208470D01*
X5705420Y-15208470D02*
X5705420Y-15170375D01*
X5705420Y-15170375D02*
X5714944Y-15122756D01*
X5714944Y-15122756D02*
X5724468Y-15094185D01*
X5724468Y-15094185D02*
X5733991Y-15075137D01*
X5733991Y-15075137D02*
X5753039Y-15046566D01*
X5753039Y-15046566D02*
X5762563Y-15037042D01*
X5924468Y-15132280D02*
X5924468Y-15265613D01*
X5876848Y-15056089D02*
X5829229Y-15198947D01*
X5829229Y-15198947D02*
X5953039Y-15198947D01*
X6019706Y-15084661D02*
X6029229Y-15075137D01*
X6029229Y-15075137D02*
X6048277Y-15065613D01*
X6048277Y-15065613D02*
X6095896Y-15065613D01*
X6095896Y-15065613D02*
X6114944Y-15075137D01*
X6114944Y-15075137D02*
X6124468Y-15084661D01*
X6124468Y-15084661D02*
X6133991Y-15103708D01*
X6133991Y-15103708D02*
X6133991Y-15122756D01*
X6133991Y-15122756D02*
X6124468Y-15151327D01*
X6124468Y-15151327D02*
X6010182Y-15265613D01*
X6010182Y-15265613D02*
X6133991Y-15265613D01*
X6372087Y-15265613D02*
X6372087Y-15065613D01*
X6457801Y-15265613D02*
X6457801Y-15160851D01*
X6457801Y-15160851D02*
X6448277Y-15141804D01*
X6448277Y-15141804D02*
X6429230Y-15132280D01*
X6429230Y-15132280D02*
X6400658Y-15132280D01*
X6400658Y-15132280D02*
X6381610Y-15141804D01*
X6381610Y-15141804D02*
X6372087Y-15151327D01*
X6581610Y-15265613D02*
X6562563Y-15256089D01*
X6562563Y-15256089D02*
X6553039Y-15246566D01*
X6553039Y-15246566D02*
X6543515Y-15227518D01*
X6543515Y-15227518D02*
X6543515Y-15170375D01*
X6543515Y-15170375D02*
X6553039Y-15151327D01*
X6553039Y-15151327D02*
X6562563Y-15141804D01*
X6562563Y-15141804D02*
X6581610Y-15132280D01*
X6581610Y-15132280D02*
X6610182Y-15132280D01*
X6610182Y-15132280D02*
X6629230Y-15141804D01*
X6629230Y-15141804D02*
X6638753Y-15151327D01*
X6638753Y-15151327D02*
X6648277Y-15170375D01*
X6648277Y-15170375D02*
X6648277Y-15227518D01*
X6648277Y-15227518D02*
X6638753Y-15246566D01*
X6638753Y-15246566D02*
X6629230Y-15256089D01*
X6629230Y-15256089D02*
X6610182Y-15265613D01*
X6610182Y-15265613D02*
X6581610Y-15265613D01*
X6762563Y-15265613D02*
X6743515Y-15256089D01*
X6743515Y-15256089D02*
X6733991Y-15237042D01*
X6733991Y-15237042D02*
X6733991Y-15065613D01*
X6914944Y-15256089D02*
X6895896Y-15265613D01*
X6895896Y-15265613D02*
X6857801Y-15265613D01*
X6857801Y-15265613D02*
X6838753Y-15256089D01*
X6838753Y-15256089D02*
X6829230Y-15237042D01*
X6829230Y-15237042D02*
X6829230Y-15160851D01*
X6829230Y-15160851D02*
X6838753Y-15141804D01*
X6838753Y-15141804D02*
X6857801Y-15132280D01*
X6857801Y-15132280D02*
X6895896Y-15132280D01*
X6895896Y-15132280D02*
X6914944Y-15141804D01*
X6914944Y-15141804D02*
X6924468Y-15160851D01*
X6924468Y-15160851D02*
X6924468Y-15179899D01*
X6924468Y-15179899D02*
X6829230Y-15198947D01*
X7000658Y-15256089D02*
X7019706Y-15265613D01*
X7019706Y-15265613D02*
X7057801Y-15265613D01*
X7057801Y-15265613D02*
X7076849Y-15256089D01*
X7076849Y-15256089D02*
X7086372Y-15237042D01*
X7086372Y-15237042D02*
X7086372Y-15227518D01*
X7086372Y-15227518D02*
X7076849Y-15208470D01*
X7076849Y-15208470D02*
X7057801Y-15198947D01*
X7057801Y-15198947D02*
X7029230Y-15198947D01*
X7029230Y-15198947D02*
X7010182Y-15189423D01*
X7010182Y-15189423D02*
X7000658Y-15170375D01*
X7000658Y-15170375D02*
X7000658Y-15160851D01*
X7000658Y-15160851D02*
X7010182Y-15141804D01*
X7010182Y-15141804D02*
X7029230Y-15132280D01*
X7029230Y-15132280D02*
X7057801Y-15132280D01*
X7057801Y-15132280D02*
X7076849Y-15141804D01*
X7153039Y-15341804D02*
X7162563Y-15332280D01*
X7162563Y-15332280D02*
X7181611Y-15303708D01*
X7181611Y-15303708D02*
X7191134Y-15284661D01*
X7191134Y-15284661D02*
X7200658Y-15256089D01*
X7200658Y-15256089D02*
X7210182Y-15208470D01*
X7210182Y-15208470D02*
X7210182Y-15170375D01*
X7210182Y-15170375D02*
X7200658Y-15122756D01*
X7200658Y-15122756D02*
X7191134Y-15094185D01*
X7191134Y-15094185D02*
X7181611Y-15075137D01*
X7181611Y-15075137D02*
X7162563Y-15046566D01*
X7162563Y-15046566D02*
X7153039Y-15037042D01*
X7514944Y-15341804D02*
X7505420Y-15332280D01*
X7505420Y-15332280D02*
X7486372Y-15303708D01*
X7486372Y-15303708D02*
X7476849Y-15284661D01*
X7476849Y-15284661D02*
X7467325Y-15256089D01*
X7467325Y-15256089D02*
X7457801Y-15208470D01*
X7457801Y-15208470D02*
X7457801Y-15170375D01*
X7457801Y-15170375D02*
X7467325Y-15122756D01*
X7467325Y-15122756D02*
X7476849Y-15094185D01*
X7476849Y-15094185D02*
X7486372Y-15075137D01*
X7486372Y-15075137D02*
X7505420Y-15046566D01*
X7505420Y-15046566D02*
X7514944Y-15037042D01*
X7591134Y-15132280D02*
X7591134Y-15265613D01*
X7591134Y-15151327D02*
X7600658Y-15141804D01*
X7600658Y-15141804D02*
X7619706Y-15132280D01*
X7619706Y-15132280D02*
X7648277Y-15132280D01*
X7648277Y-15132280D02*
X7667325Y-15141804D01*
X7667325Y-15141804D02*
X7676849Y-15160851D01*
X7676849Y-15160851D02*
X7676849Y-15265613D01*
X7800658Y-15265613D02*
X7781611Y-15256089D01*
X7781611Y-15256089D02*
X7772087Y-15246566D01*
X7772087Y-15246566D02*
X7762563Y-15227518D01*
X7762563Y-15227518D02*
X7762563Y-15170375D01*
X7762563Y-15170375D02*
X7772087Y-15151327D01*
X7772087Y-15151327D02*
X7781611Y-15141804D01*
X7781611Y-15141804D02*
X7800658Y-15132280D01*
X7800658Y-15132280D02*
X7829230Y-15132280D01*
X7829230Y-15132280D02*
X7848277Y-15141804D01*
X7848277Y-15141804D02*
X7857801Y-15151327D01*
X7857801Y-15151327D02*
X7867325Y-15170375D01*
X7867325Y-15170375D02*
X7867325Y-15227518D01*
X7867325Y-15227518D02*
X7857801Y-15246566D01*
X7857801Y-15246566D02*
X7848277Y-15256089D01*
X7848277Y-15256089D02*
X7829230Y-15265613D01*
X7829230Y-15265613D02*
X7800658Y-15265613D01*
X7924468Y-15132280D02*
X8000658Y-15132280D01*
X7953039Y-15065613D02*
X7953039Y-15237042D01*
X7953039Y-15237042D02*
X7962563Y-15256089D01*
X7962563Y-15256089D02*
X7981611Y-15265613D01*
X7981611Y-15265613D02*
X8000658Y-15265613D01*
X8219706Y-15132280D02*
X8219706Y-15332280D01*
X8219706Y-15141804D02*
X8238753Y-15132280D01*
X8238753Y-15132280D02*
X8276849Y-15132280D01*
X8276849Y-15132280D02*
X8295896Y-15141804D01*
X8295896Y-15141804D02*
X8305420Y-15151327D01*
X8305420Y-15151327D02*
X8314944Y-15170375D01*
X8314944Y-15170375D02*
X8314944Y-15227518D01*
X8314944Y-15227518D02*
X8305420Y-15246566D01*
X8305420Y-15246566D02*
X8295896Y-15256089D01*
X8295896Y-15256089D02*
X8276849Y-15265613D01*
X8276849Y-15265613D02*
X8238753Y-15265613D01*
X8238753Y-15265613D02*
X8219706Y-15256089D01*
X8429230Y-15265613D02*
X8410182Y-15256089D01*
X8410182Y-15256089D02*
X8400658Y-15237042D01*
X8400658Y-15237042D02*
X8400658Y-15065613D01*
X8591135Y-15265613D02*
X8591135Y-15160851D01*
X8591135Y-15160851D02*
X8581611Y-15141804D01*
X8581611Y-15141804D02*
X8562563Y-15132280D01*
X8562563Y-15132280D02*
X8524468Y-15132280D01*
X8524468Y-15132280D02*
X8505420Y-15141804D01*
X8591135Y-15256089D02*
X8572087Y-15265613D01*
X8572087Y-15265613D02*
X8524468Y-15265613D01*
X8524468Y-15265613D02*
X8505420Y-15256089D01*
X8505420Y-15256089D02*
X8495896Y-15237042D01*
X8495896Y-15237042D02*
X8495896Y-15217994D01*
X8495896Y-15217994D02*
X8505420Y-15198947D01*
X8505420Y-15198947D02*
X8524468Y-15189423D01*
X8524468Y-15189423D02*
X8572087Y-15189423D01*
X8572087Y-15189423D02*
X8591135Y-15179899D01*
X8657801Y-15132280D02*
X8733992Y-15132280D01*
X8686373Y-15065613D02*
X8686373Y-15237042D01*
X8686373Y-15237042D02*
X8695896Y-15256089D01*
X8695896Y-15256089D02*
X8714944Y-15265613D01*
X8714944Y-15265613D02*
X8733992Y-15265613D01*
X8876849Y-15256089D02*
X8857801Y-15265613D01*
X8857801Y-15265613D02*
X8819706Y-15265613D01*
X8819706Y-15265613D02*
X8800658Y-15256089D01*
X8800658Y-15256089D02*
X8791135Y-15237042D01*
X8791135Y-15237042D02*
X8791135Y-15160851D01*
X8791135Y-15160851D02*
X8800658Y-15141804D01*
X8800658Y-15141804D02*
X8819706Y-15132280D01*
X8819706Y-15132280D02*
X8857801Y-15132280D01*
X8857801Y-15132280D02*
X8876849Y-15141804D01*
X8876849Y-15141804D02*
X8886373Y-15160851D01*
X8886373Y-15160851D02*
X8886373Y-15179899D01*
X8886373Y-15179899D02*
X8791135Y-15198947D01*
X9057801Y-15265613D02*
X9057801Y-15065613D01*
X9057801Y-15256089D02*
X9038754Y-15265613D01*
X9038754Y-15265613D02*
X9000658Y-15265613D01*
X9000658Y-15265613D02*
X8981611Y-15256089D01*
X8981611Y-15256089D02*
X8972087Y-15246566D01*
X8972087Y-15246566D02*
X8962563Y-15227518D01*
X8962563Y-15227518D02*
X8962563Y-15170375D01*
X8962563Y-15170375D02*
X8972087Y-15151327D01*
X8972087Y-15151327D02*
X8981611Y-15141804D01*
X8981611Y-15141804D02*
X9000658Y-15132280D01*
X9000658Y-15132280D02*
X9038754Y-15132280D01*
X9038754Y-15132280D02*
X9057801Y-15141804D01*
X9133992Y-15341804D02*
X9143516Y-15332280D01*
X9143516Y-15332280D02*
X9162563Y-15303708D01*
X9162563Y-15303708D02*
X9172087Y-15284661D01*
X9172087Y-15284661D02*
X9181611Y-15256089D01*
X9181611Y-15256089D02*
X9191135Y-15208470D01*
X9191135Y-15208470D02*
X9191135Y-15170375D01*
X9191135Y-15170375D02*
X9181611Y-15122756D01*
X9181611Y-15122756D02*
X9172087Y-15094185D01*
X9172087Y-15094185D02*
X9162563Y-15075137D01*
X9162563Y-15075137D02*
X9143516Y-15046566D01*
X9143516Y-15046566D02*
X9133992Y-15037042D01*
M02*
