%TF.GenerationSoftware,KiCad,Pcbnew,9.0.8*%
%TF.CreationDate,2026-04-05T10:53:14+09:00*%
%TF.ProjectId,assemble-finish,61737365-6d62-46c6-952d-66696e697368,rev?*%
%TF.SameCoordinates,Original*%
%TF.FileFunction,Soldermask,Top*%
%TF.FilePolarity,Negative*%
%FSLAX46Y46*%
G04 Gerber Fmt 4.6, Leading zero omitted, Abs format (unit mm)*
G04 Created by KiCad (PCBNEW 9.0.8) date 2026-04-05 10:53:14*
%MOMM*%
%LPD*%
G01*
G04 APERTURE LIST*
G04 Aperture macros list*
%AMRoundRect*
0 Rectangle with rounded corners*
0 $1 Rounding radius*
0 $2 $3 $4 $5 $6 $7 $8 $9 X,Y pos of 4 corners*
0 Add a 4 corners polygon primitive as box body*
4,1,4,$2,$3,$4,$5,$6,$7,$8,$9,$2,$3,0*
0 Add four circle primitives for the rounded corners*
1,1,$1+$1,$2,$3*
1,1,$1+$1,$4,$5*
1,1,$1+$1,$6,$7*
1,1,$1+$1,$8,$9*
0 Add four rect primitives between the rounded corners*
20,1,$1+$1,$2,$3,$4,$5,0*
20,1,$1+$1,$4,$5,$6,$7,0*
20,1,$1+$1,$6,$7,$8,$9,0*
20,1,$1+$1,$8,$9,$2,$3,0*%
G04 Aperture macros list end*
%ADD10C,0.500000*%
%ADD11R,2.000000X2.000000*%
%ADD12C,2.000000*%
%ADD13RoundRect,0.525400X-0.900400X-0.525400X0.900400X-0.525400X0.900400X0.525400X-0.900400X0.525400X0*%
%ADD14RoundRect,0.300400X1.000400X0.300400X-1.000400X0.300400X-1.000400X-0.300400X1.000400X-0.300400X0*%
%ADD15C,3.000000*%
%ADD16C,4.800000*%
%ADD17C,1.000000*%
%ADD18O,1.300000X1.000000*%
%ADD19C,2.200000*%
%ADD20R,3.200000X2.500000*%
%ADD21RoundRect,0.250000X0.825000X0.825000X-0.825000X0.825000X-0.825000X-0.825000X0.825000X-0.825000X0*%
%ADD22C,2.150000*%
%ADD23RoundRect,0.250000X0.265000X0.615000X-0.265000X0.615000X-0.265000X-0.615000X0.265000X-0.615000X0*%
%ADD24O,1.030000X1.730000*%
%ADD25RoundRect,0.250000X-0.825000X-0.825000X0.825000X-0.825000X0.825000X0.825000X-0.825000X0.825000X0*%
%ADD26RoundRect,0.250000X-0.265000X-0.615000X0.265000X-0.615000X0.265000X0.615000X-0.265000X0.615000X0*%
G04 APERTURE END LIST*
D10*
%TO.C,Ref\u002A\u002A*%
X145100000Y-78450000D03*
X145100000Y-77700000D03*
X145100000Y-76950000D03*
X145100000Y-76200000D03*
X145100000Y-75450000D03*
X145100000Y-74700000D03*
%TD*%
%TO.C,Ref\u002A\u002A*%
X147500000Y-78450000D03*
X147500000Y-77700000D03*
X147500000Y-76950000D03*
X147500000Y-76200000D03*
X147500000Y-75450000D03*
X147500000Y-74700000D03*
%TD*%
%TO.C,Ref\u002A\u002A*%
X145100000Y-107650000D03*
X145100000Y-106900000D03*
X145100000Y-106150000D03*
X145100000Y-105400000D03*
X145100000Y-104650000D03*
X145100000Y-103900000D03*
%TD*%
%TO.C,Ref\u002A\u002A*%
X147500000Y-107650000D03*
X147500000Y-106900000D03*
X147500000Y-106150000D03*
X147500000Y-105400000D03*
X147500000Y-104650000D03*
X147500000Y-103900000D03*
%TD*%
%TO.C,Ref\u002A\u002A*%
X255950000Y-47600000D03*
X256700000Y-47600000D03*
X257450000Y-47600000D03*
X258200000Y-47600000D03*
X258950000Y-47600000D03*
X259700000Y-47600000D03*
%TD*%
%TO.C,Ref\u002A\u002A*%
X255950000Y-50000000D03*
X256700000Y-50000000D03*
X257450000Y-50000000D03*
X258200000Y-50000000D03*
X258950000Y-50000000D03*
X259700000Y-50000000D03*
%TD*%
%TO.C,Ref\u002A\u002A*%
X177450000Y-47600000D03*
X178200000Y-47600000D03*
X178950000Y-47600000D03*
X179700000Y-47600000D03*
X180450000Y-47600000D03*
X181200000Y-47600000D03*
%TD*%
%TO.C,Ref\u002A\u002A*%
X177450000Y-50000000D03*
X178200000Y-50000000D03*
X178950000Y-50000000D03*
X179700000Y-50000000D03*
X180450000Y-50000000D03*
X181200000Y-50000000D03*
%TD*%
%TO.C,Ref\u002A\u002A*%
X111650000Y-47600000D03*
X112400000Y-47600000D03*
X113150000Y-47600000D03*
X113900000Y-47600000D03*
X114650000Y-47600000D03*
X115400000Y-47600000D03*
%TD*%
%TO.C,Ref\u002A\u002A*%
X111650000Y-50000000D03*
X112400000Y-50000000D03*
X113150000Y-50000000D03*
X113900000Y-50000000D03*
X114650000Y-50000000D03*
X115400000Y-50000000D03*
%TD*%
%TO.C,Ref\u002A\u002A*%
X42950000Y-50000000D03*
X43700000Y-50000000D03*
X44450000Y-50000000D03*
X42200000Y-50000000D03*
X41450000Y-50000000D03*
X45200000Y-50000000D03*
%TD*%
%TO.C,Ref\u002A\u002A*%
X42950000Y-47600000D03*
X43700000Y-47600000D03*
X44450000Y-47600000D03*
X42200000Y-47600000D03*
X41450000Y-47600000D03*
X45200000Y-47600000D03*
%TD*%
D11*
%TO.C,AE-XCL102D333CR-G2*%
X136810000Y-88210000D03*
D12*
X139350000Y-88210000D03*
X141890000Y-88210000D03*
X136810000Y-80590000D03*
X139350000Y-80590000D03*
X141850000Y-80590000D03*
%TD*%
D13*
%TO.C,U2*%
X150335000Y-55380000D03*
X150335000Y-57920000D03*
X150335000Y-60460000D03*
X150335000Y-63000000D03*
X150335000Y-65540000D03*
X150335000Y-68080000D03*
X150335000Y-70620000D03*
X166500000Y-70620000D03*
X166500000Y-68080000D03*
X166500000Y-65540000D03*
X166500000Y-63000000D03*
X166500000Y-60460000D03*
X166500000Y-57920000D03*
X166500000Y-55380000D03*
D14*
X153945000Y-62686500D03*
X153945000Y-60781500D03*
%TD*%
D15*
%TO.C,SW24*%
X233400000Y-90500000D03*
D16*
X228400000Y-94200000D03*
D15*
X228400000Y-88300000D03*
D17*
X223400000Y-99750000D03*
%TD*%
D15*
%TO.C,SW30*%
X250000000Y-94650000D03*
D16*
X245000000Y-98350000D03*
D15*
X245000000Y-92450000D03*
D17*
X240000000Y-103900000D03*
%TD*%
D15*
%TO.C,SW15*%
X59200000Y-97900000D03*
D16*
X64200000Y-94200000D03*
D15*
X64200000Y-100100000D03*
D17*
X69200000Y-88650000D03*
%TD*%
D11*
%TO.C,BT3*%
X266600000Y-39800000D03*
D12*
X221800000Y-39800000D03*
%TD*%
D15*
%TO.C,SW9*%
X42600000Y-102050000D03*
D16*
X47600000Y-98350000D03*
D15*
X47600000Y-104250000D03*
D17*
X52600000Y-92800000D03*
%TD*%
D15*
%TO.C,SW7*%
X42600000Y-68850000D03*
D16*
X47600000Y-65150000D03*
D15*
X47600000Y-71050000D03*
D17*
X52600000Y-59600000D03*
%TD*%
D15*
%TO.C,SW42*%
X164480127Y-111735706D03*
D16*
X162000000Y-117440000D03*
D15*
X159050000Y-112330450D03*
D17*
X160444873Y-124746441D03*
%TD*%
D15*
%TO.C,SW8*%
X42600000Y-85450000D03*
D16*
X47600000Y-81750000D03*
D15*
X47600000Y-87650000D03*
D17*
X52600000Y-76200000D03*
%TD*%
D15*
%TO.C,SW39*%
X124419873Y-118144294D03*
D16*
X130600000Y-117440000D03*
D15*
X127650000Y-122549550D03*
D17*
X137705128Y-115133560D03*
%TD*%
D18*
%TO.C,SW43*%
X158700000Y-35400000D03*
X161200000Y-35400000D03*
X163700000Y-35400000D03*
%TD*%
D15*
%TO.C,SW12*%
X200200000Y-90500000D03*
D16*
X195200000Y-94200000D03*
D15*
X195200000Y-88300000D03*
D17*
X190200000Y-99750000D03*
%TD*%
D15*
%TO.C,SW19*%
X75800000Y-62210000D03*
D16*
X80800000Y-58510000D03*
D15*
X80800000Y-64410000D03*
D17*
X85800000Y-52960000D03*
%TD*%
D15*
%TO.C,SW11*%
X200200000Y-73900000D03*
D16*
X195200000Y-77600000D03*
D15*
X195200000Y-71700000D03*
D17*
X190200000Y-83150000D03*
%TD*%
D13*
%TO.C,U1*%
X126135000Y-55380000D03*
X126135000Y-57920000D03*
X126135000Y-60460000D03*
X126135000Y-63000000D03*
X126135000Y-65540000D03*
X126135000Y-68080000D03*
X126135000Y-70620000D03*
X142300000Y-70620000D03*
X142300000Y-68080000D03*
X142300000Y-65540000D03*
X142300000Y-63000000D03*
X142300000Y-60460000D03*
X142300000Y-57920000D03*
X142300000Y-55380000D03*
D14*
X129745000Y-62686500D03*
X129745000Y-60781500D03*
%TD*%
D19*
%TO.C,Ref\u002A\u002A*%
X142400000Y-34800000D03*
%TD*%
D11*
%TO.C,AE-XCL102D333CR-G1*%
X150710000Y-88210000D03*
D12*
X153250000Y-88210000D03*
X155790000Y-88210000D03*
X150710000Y-80590000D03*
X153250000Y-80590000D03*
X155750000Y-80590000D03*
%TD*%
D15*
%TO.C,SW10*%
X200200000Y-57300000D03*
D16*
X195200000Y-61000000D03*
D15*
X195200000Y-55100000D03*
D17*
X190200000Y-66550000D03*
%TD*%
D15*
%TO.C,SW2*%
X36000000Y-79710000D03*
D16*
X31000000Y-83410000D03*
D15*
X31000000Y-77510000D03*
D17*
X26000000Y-88960000D03*
%TD*%
D15*
%TO.C,SW41*%
X181900000Y-116990000D03*
D16*
X186900000Y-113290000D03*
D15*
X186900000Y-119190000D03*
D17*
X191900000Y-107740000D03*
%TD*%
D15*
%TO.C,SW38*%
X100700000Y-116990000D03*
D16*
X105700000Y-113290000D03*
D15*
X105700000Y-119190000D03*
D17*
X110700000Y-107740000D03*
%TD*%
D12*
%TO.C,SW46*%
X72300000Y-119200000D03*
X72300000Y-114200000D03*
X72300000Y-116700000D03*
D20*
X64800000Y-122300000D03*
X64800000Y-111100000D03*
%TD*%
D12*
%TO.C,SW45*%
X220300000Y-114100000D03*
X220300000Y-119100000D03*
X220300000Y-116600000D03*
D20*
X227800000Y-111000000D03*
X227800000Y-122200000D03*
%TD*%
D15*
%TO.C,SW31*%
X109000000Y-67190000D03*
D16*
X114000000Y-63490000D03*
D15*
X114000000Y-69390000D03*
D17*
X119000000Y-57940000D03*
%TD*%
D19*
%TO.C,Ref\u002A\u002A*%
X150200000Y-34800000D03*
%TD*%
D21*
%TO.C,J4*%
X164300000Y-39800000D03*
D22*
X159700000Y-39800000D03*
X155100000Y-39800000D03*
X150500000Y-39800000D03*
%TD*%
D18*
%TO.C,SW44*%
X128700000Y-35350000D03*
X131200000Y-35350000D03*
X133700000Y-35350000D03*
%TD*%
D15*
%TO.C,SW34*%
X256600000Y-70510000D03*
D16*
X261600000Y-66810000D03*
D15*
X261600000Y-72710000D03*
D17*
X266600000Y-61260000D03*
%TD*%
D15*
%TO.C,SW26*%
X92400000Y-81300000D03*
D16*
X97400000Y-77600000D03*
D15*
X97400000Y-83500000D03*
D17*
X102400000Y-72050000D03*
%TD*%
D15*
%TO.C,SW18*%
X216800000Y-88010000D03*
D16*
X211800000Y-91710000D03*
D15*
X211800000Y-85810000D03*
D17*
X206800000Y-97260000D03*
%TD*%
D15*
%TO.C,SW37*%
X84100000Y-114500000D03*
D16*
X89100000Y-110800000D03*
D15*
X89100000Y-116700000D03*
D17*
X94100000Y-105250000D03*
%TD*%
D15*
%TO.C,SW35*%
X256600000Y-87110000D03*
D16*
X261600000Y-83410000D03*
D15*
X261600000Y-89310000D03*
D17*
X266600000Y-77860000D03*
%TD*%
D15*
%TO.C,SW29*%
X250000000Y-78050000D03*
D16*
X245000000Y-81750000D03*
D15*
X245000000Y-75850000D03*
D17*
X240000000Y-87300000D03*
%TD*%
D15*
%TO.C,SW5*%
X183600000Y-76390000D03*
D16*
X178600000Y-80090000D03*
D15*
X178600000Y-74190000D03*
D17*
X173600000Y-85640000D03*
%TD*%
D15*
%TO.C,SW3*%
X36000000Y-96310000D03*
D16*
X31000000Y-100010000D03*
D15*
X31000000Y-94110000D03*
D17*
X26000000Y-105560000D03*
%TD*%
D15*
%TO.C,SW27*%
X92400000Y-97900000D03*
D16*
X97400000Y-94200000D03*
D15*
X97400000Y-100100000D03*
D17*
X102400000Y-88650000D03*
%TD*%
D11*
%TO.C,BT2*%
X77900000Y-39800000D03*
D12*
X122700000Y-39800000D03*
%TD*%
D15*
%TO.C,SW16*%
X216800000Y-54810000D03*
D16*
X211800000Y-58510000D03*
D15*
X211800000Y-52610000D03*
D17*
X206800000Y-64060000D03*
%TD*%
D15*
%TO.C,SW14*%
X59200000Y-81300000D03*
D16*
X64200000Y-77600000D03*
D15*
X64200000Y-83500000D03*
D17*
X69200000Y-72050000D03*
%TD*%
D15*
%TO.C,SW13*%
X59200000Y-64700000D03*
D16*
X64200000Y-61000000D03*
D15*
X64200000Y-66900000D03*
D17*
X69200000Y-55450000D03*
%TD*%
D15*
%TO.C,SW28*%
X250000000Y-61450000D03*
D16*
X245000000Y-65150000D03*
D15*
X245000000Y-59250000D03*
D17*
X240000000Y-70700000D03*
%TD*%
D23*
%TO.C,J3*%
X155800000Y-98000000D03*
D24*
X154300000Y-98000000D03*
X152800000Y-98000000D03*
X151300000Y-98000000D03*
%TD*%
D15*
%TO.C,SW1*%
X36000000Y-63110000D03*
D16*
X31000000Y-66810000D03*
D15*
X31000000Y-60910000D03*
D17*
X26000000Y-72360000D03*
%TD*%
D15*
%TO.C,SW36*%
X256600000Y-103710000D03*
D16*
X261600000Y-100010000D03*
D15*
X261600000Y-105910000D03*
D17*
X266600000Y-94460000D03*
%TD*%
D15*
%TO.C,SW25*%
X92400000Y-64700000D03*
D16*
X97400000Y-61000000D03*
D15*
X97400000Y-66900000D03*
D17*
X102400000Y-55450000D03*
%TD*%
D15*
%TO.C,SW32*%
X109000000Y-83790000D03*
D16*
X114000000Y-80090000D03*
D15*
X114000000Y-85990000D03*
D17*
X119000000Y-74540000D03*
%TD*%
D15*
%TO.C,SW21*%
X75800000Y-95410000D03*
D16*
X80800000Y-91710000D03*
D15*
X80800000Y-97610000D03*
D17*
X85800000Y-86160000D03*
%TD*%
D15*
%TO.C,SW33*%
X109000000Y-100390000D03*
D16*
X114000000Y-96690000D03*
D15*
X114000000Y-102590000D03*
D17*
X119000000Y-91140000D03*
%TD*%
D15*
%TO.C,SW22*%
X233400000Y-57300000D03*
D16*
X228400000Y-61000000D03*
D15*
X228400000Y-55100000D03*
D17*
X223400000Y-66550000D03*
%TD*%
D15*
%TO.C,SW17*%
X216800000Y-71410000D03*
D16*
X211800000Y-75110000D03*
D15*
X211800000Y-69210000D03*
D17*
X206800000Y-80660000D03*
%TD*%
D15*
%TO.C,SW40*%
X198500000Y-114500000D03*
D16*
X203500000Y-110800000D03*
D15*
X203500000Y-116700000D03*
D17*
X208500000Y-105250000D03*
%TD*%
D15*
%TO.C,SW23*%
X233400000Y-73900000D03*
D16*
X228400000Y-77600000D03*
D15*
X228400000Y-71700000D03*
D17*
X223400000Y-83150000D03*
%TD*%
D11*
%TO.C,BT1*%
X214600000Y-39800000D03*
D12*
X169800000Y-39800000D03*
%TD*%
D15*
%TO.C,SW20*%
X75800000Y-78810000D03*
D16*
X80800000Y-75110000D03*
D15*
X80800000Y-81010000D03*
D17*
X85800000Y-69560000D03*
%TD*%
D15*
%TO.C,SW4*%
X183600000Y-59790000D03*
D16*
X178600000Y-63490000D03*
D15*
X178600000Y-57590000D03*
D17*
X173600000Y-69040000D03*
%TD*%
D25*
%TO.C,J2*%
X128700000Y-40000000D03*
D22*
X133300000Y-40000000D03*
X137900000Y-40000000D03*
X142500000Y-40000000D03*
%TD*%
D15*
%TO.C,SW6*%
X183600000Y-92990000D03*
D16*
X178600000Y-96690000D03*
D15*
X178600000Y-90790000D03*
D17*
X173600000Y-102240000D03*
%TD*%
D26*
%TO.C,J1*%
X136700000Y-98000000D03*
D24*
X138200000Y-98000000D03*
X139700000Y-98000000D03*
X141200000Y-98000000D03*
%TD*%
D11*
%TO.C,BT4*%
X25900000Y-39800000D03*
D12*
X70700000Y-39800000D03*
%TD*%
M02*
