%TF.GenerationSoftware,KiCad,Pcbnew,9.0.8*%
%TF.CreationDate,2026-04-05T10:53:14+09:00*%
%TF.ProjectId,assemble-finish,61737365-6d62-46c6-952d-66696e697368,rev?*%
%TF.SameCoordinates,Original*%
%TF.FileFunction,Paste,Top*%
%TF.FilePolarity,Positive*%
%FSLAX46Y46*%
G04 Gerber Fmt 4.6, Leading zero omitted, Abs format (unit mm)*
G04 Created by KiCad (PCBNEW 9.0.8) date 2026-04-05 10:53:14*
%MOMM*%
%LPD*%
G01*
G04 APERTURE LIST*
G04 Aperture macros list*
%AMRoundRect*
0 Rectangle with rounded corners*
0 $1 Rounding radius*
0 $2 $3 $4 $5 $6 $7 $8 $9 X,Y pos of 4 corners*
0 Add a 4 corners polygon primitive as box body*
4,1,4,$2,$3,$4,$5,$6,$7,$8,$9,$2,$3,0*
0 Add four circle primitives for the rounded corners*
1,1,$1+$1,$2,$3*
1,1,$1+$1,$4,$5*
1,1,$1+$1,$6,$7*
1,1,$1+$1,$8,$9*
0 Add four rect primitives between the rounded corners*
20,1,$1+$1,$2,$3,$4,$5,0*
20,1,$1+$1,$4,$5,$6,$7,0*
20,1,$1+$1,$6,$7,$8,$9,0*
20,1,$1+$1,$8,$9,$2,$3,0*%
G04 Aperture macros list end*
%ADD10R,2.000000X2.000000*%
%ADD11C,2.000000*%
%ADD12RoundRect,0.500000X-0.875000X-0.500000X0.875000X-0.500000X0.875000X0.500000X-0.875000X0.500000X0*%
G04 APERTURE END LIST*
D10*
%TO.C,AE-XCL102D333CR-G2*%
X136810000Y-88210000D03*
D11*
X139350000Y-88210000D03*
X141890000Y-88210000D03*
X136810000Y-80590000D03*
X139350000Y-80590000D03*
X141850000Y-80590000D03*
%TD*%
D12*
%TO.C,U2*%
X150335000Y-55380000D03*
X150335000Y-57920000D03*
X150335000Y-60460000D03*
X150335000Y-63000000D03*
X150335000Y-65540000D03*
X150335000Y-68080000D03*
X150335000Y-70620000D03*
X166500000Y-70620000D03*
X166500000Y-68080000D03*
X166500000Y-65540000D03*
X166500000Y-63000000D03*
X166500000Y-60460000D03*
X166500000Y-57920000D03*
X166500000Y-55380000D03*
%TD*%
%TO.C,U1*%
X126135000Y-55380000D03*
X126135000Y-57920000D03*
X126135000Y-60460000D03*
X126135000Y-63000000D03*
X126135000Y-65540000D03*
X126135000Y-68080000D03*
X126135000Y-70620000D03*
X142300000Y-70620000D03*
X142300000Y-68080000D03*
X142300000Y-65540000D03*
X142300000Y-63000000D03*
X142300000Y-60460000D03*
X142300000Y-57920000D03*
X142300000Y-55380000D03*
%TD*%
D10*
%TO.C,AE-XCL102D333CR-G1*%
X150710000Y-88210000D03*
D11*
X153250000Y-88210000D03*
X155790000Y-88210000D03*
X150710000Y-80590000D03*
X153250000Y-80590000D03*
X155750000Y-80590000D03*
%TD*%
M02*
